{"glyphs":{"0":{"ha":467,"x_min":0,"x_max":0,"o":"m 151 0 b 221 -7 160 -3 188 -10 b 351 67 307 0 351 67 b 433 315 413 156 433 315 b 417 706 471 558 417 706 b 243 883 363 875 243 883 b 121 849 174 893 132 858 b 40 654 121 849 68 810 b 32 583 36 631 33 607 b 22 442 26 538 24 489 b 22 307 21 396 21 350 b 151 0 22 307 18 69 z m 88 465 b 179 839 97 774 179 839 b 286 750 193 846 238 861 b 322 571 314 696 318 631 l 322 500 b 319 426 321 475 319 450 b 310 290 319 378 315 332 b 278 164 310 290 299 219 b 163 50 278 164 224 17 b 93 232 107 75 93 232 b 86 346 89 268 88 306 b 88 465 85 385 86 425 z m 285 844 b 313 832 285 844 301 842 b 325 807 322 824 329 813 b 306 814 325 807 321 799 b 299 828 301 818 301 824 b 285 844 293 836 290 842 z "},"1":{"ha":222,"x_min":0,"x_max":0,"o":"m 38 744 b 68 744 53 732 68 744 b 101 774 76 750 89 761 b 76 179 82 601 79 274 b 136 -1 72 54 78 -1 b 186 103 178 -1 186 103 b 190 810 208 269 207 706 b 143 886 179 874 158 886 b 126 881 133 886 126 881 b 32 792 90 856 32 792 b 38 744 15 775 18 760 z m 143 863 b 163 840 143 863 154 851 b 167 813 169 831 172 817 b 150 826 167 813 156 806 b 149 842 149 832 149 838 b 143 863 147 851 146 858 z "},"2":{"ha":408,"x_min":0,"x_max":0,"o":"m 332 811 b 311 818 332 811 325 801 b 306 832 308 824 307 828 b 292 850 303 842 297 847 b 319 836 292 850 307 844 b 332 811 329 829 336 818 z m 365 799 b 224 886 322 897 224 886 b 88 774 160 881 101 839 b 83 738 83 760 82 747 b 107 707 85 725 92 707 b 119 714 111 706 115 710 b 151 774 133 728 151 774 b 242 822 151 774 178 831 b 313 717 242 822 314 813 b 149 278 313 600 206 383 b 35 107 149 278 83 169 b 24 85 32 104 26 94 b 50 1 18 63 15 18 b 65 -3 53 0 58 -1 b 257 -4 65 -3 157 -15 b 301 1 276 -1 293 -1 b 333 28 336 13 333 28 b 299 49 332 38 319 44 b 136 57 221 64 136 57 b 264 243 201 129 264 243 b 382 593 322 347 368 475 b 386 704 389 638 389 675 b 365 799 382 753 369 788 z "},"3":{"ha":436,"x_min":0,"x_max":0,"o":"m 28 135 b 178 -8 42 51 93 -1 b 279 8 211 -11 249 -7 b 411 236 393 65 411 236 b 415 279 414 251 415 265 b 339 539 425 454 339 539 b 369 638 350 557 364 588 b 369 704 372 663 371 685 b 251 882 364 776 335 869 b 206 886 236 886 221 886 b 71 774 139 879 88 842 b 67 738 67 760 65 747 b 90 707 67 724 74 707 b 103 714 94 706 99 710 b 114 733 108 719 110 726 b 200 822 114 733 143 810 b 267 806 200 822 244 833 b 296 717 278 796 296 771 b 290 665 296 701 293 685 b 281 618 288 649 283 633 b 161 525 268 581 236 514 b 131 507 161 525 129 529 b 214 471 132 485 165 465 b 261 483 228 472 244 476 b 310 396 300 458 308 411 b 261 144 310 396 322 288 b 165 43 256 135 214 40 b 82 179 104 47 82 179 b 69 222 76 199 72 214 b 50 250 64 240 56 246 b 39 253 44 254 39 253 b 22 215 29 251 25 236 b 28 135 19 194 21 165 z m 274 851 b 301 838 274 851 289 846 b 315 814 311 831 318 819 b 294 821 315 814 310 806 b 288 833 290 825 290 829 b 274 851 282 842 279 849 z "},"4":{"ha":396,"x_min":0,"x_max":0,"o":"m 25 364 b 40 342 26 358 32 342 b 74 331 50 332 74 331 b 192 328 119 326 192 328 b 188 179 190 264 189 210 b 247 -1 182 54 189 -1 b 297 103 288 -1 297 103 b 311 332 304 157 308 240 b 340 335 324 333 335 333 b 376 363 381 344 376 363 b 338 383 375 372 360 379 b 313 388 331 385 322 386 b 300 810 315 560 311 746 b 254 886 289 874 269 886 b 238 881 244 886 238 881 b 126 746 182 843 126 746 b 65 619 104 708 82 664 b 25 364 65 619 4 451 z m 117 574 b 211 764 183 739 211 764 b 193 392 201 664 196 517 b 65 386 129 400 65 386 b 117 574 88 494 117 574 z m 250 868 b 271 847 250 868 264 858 b 275 819 278 836 279 824 b 258 833 275 819 264 813 b 256 847 256 839 257 843 b 250 868 256 857 254 864 z "},"5":{"ha":438,"x_min":0,"x_max":0,"o":"m 28 153 b 65 54 35 119 47 83 b 178 -8 65 54 94 -4 b 279 11 211 -10 250 -7 b 397 194 361 63 397 194 b 408 458 436 350 408 458 b 272 667 386 606 272 667 b 104 710 175 721 104 710 b 110 821 115 761 110 821 b 336 821 176 814 304 814 b 368 849 374 829 368 849 b 114 881 365 888 157 879 b 54 857 78 882 60 875 b 49 685 54 857 28 756 b 76 664 57 661 76 664 b 308 476 111 658 272 626 b 306 339 308 476 317 422 b 261 164 306 339 299 239 b 165 50 256 153 214 44 b 82 203 113 56 82 203 b 69 251 76 225 72 243 b 50 283 63 272 56 279 b 39 286 44 288 39 286 b 22 244 29 285 25 268 b 28 153 19 219 21 188 z m 319 860 b 339 840 331 856 340 846 b 317 840 339 840 332 825 b 307 851 313 844 310 849 b 290 864 300 858 294 864 b 319 860 290 864 306 864 z "},"6":{"ha":444,"x_min":0,"x_max":0,"o":"m 61 119 b 224 -6 124 -4 224 -6 b 307 4 240 -7 279 -7 b 394 104 372 31 394 104 b 422 317 432 218 422 317 b 381 453 417 408 381 453 b 268 504 339 508 268 504 b 143 443 190 507 143 443 b 182 704 153 613 182 704 b 274 831 197 760 226 831 b 350 731 338 831 349 753 b 351 717 350 731 351 724 b 354 676 353 699 353 685 b 358 657 356 668 356 661 b 365 647 361 653 364 649 b 375 642 371 642 375 642 b 403 674 385 640 394 653 b 411 710 407 683 410 696 b 340 874 424 831 340 874 b 278 890 319 888 297 890 b 61 697 171 890 94 789 b 22 431 61 697 26 607 b 61 119 22 431 8 226 z m 140 317 b 158 360 146 331 151 344 b 160 363 158 361 160 361 b 161 365 160 364 161 364 b 167 376 161 365 167 376 b 171 382 168 378 169 379 b 178 392 172 385 175 389 b 181 397 178 393 179 396 l 185 401 b 203 419 192 408 196 413 b 222 433 208 425 215 429 b 271 442 236 442 253 443 l 276 442 l 283 440 b 290 439 286 440 288 440 l 296 439 b 331 413 310 435 324 425 b 360 282 353 372 360 326 b 357 231 360 264 360 246 l 357 218 b 356 213 356 217 356 214 l 356 207 b 353 196 354 203 354 200 b 321 89 353 175 332 100 l 318 86 b 317 82 318 85 317 83 b 314 78 315 81 314 79 b 250 54 304 67 281 42 l 250 53 b 154 178 196 86 168 115 b 139 307 146 215 140 261 l 139 314 b 140 317 139 314 140 315 z m 339 851 b 363 832 339 851 354 844 b 369 806 369 822 374 810 b 351 817 369 806 361 797 b 347 831 349 822 349 826 b 339 851 344 840 343 847 z "},"7":{"ha":458,"x_min":0,"x_max":0,"o":"m 21 846 b 68 826 22 829 68 826 b 238 824 68 826 138 819 b 332 826 272 825 332 826 b 136 467 222 740 164 600 b 108 69 136 467 90 232 b 122 24 108 69 113 40 b 176 -1 135 3 151 -3 b 207 38 193 0 203 18 b 214 74 213 54 214 74 b 226 247 218 117 221 179 b 394 765 242 443 278 606 b 435 832 419 799 435 832 b 432 865 446 854 432 865 b 418 869 429 868 425 869 b 99 885 283 894 99 885 b 21 846 42 885 19 872 z m 399 858 b 422 840 399 858 424 858 b 413 826 422 840 422 825 b 408 840 407 826 408 832 b 399 858 410 847 410 856 z "},"8":{"ha":436,"x_min":0,"x_max":0,"o":"m 72 60 b 203 0 72 60 115 0 b 269 7 225 -1 249 0 b 403 160 364 39 403 160 b 415 256 410 182 414 215 b 413 318 415 275 415 296 b 313 506 394 463 313 506 b 406 725 439 532 406 725 b 211 885 381 903 211 885 b 114 832 150 879 114 832 b 96 800 107 822 100 811 b 72 629 58 699 72 629 b 129 519 72 629 81 543 b 28 329 46 483 28 329 b 72 60 28 329 -6 160 z m 93 332 b 186 481 101 376 125 478 b 236 451 206 481 222 467 b 299 221 236 451 319 364 b 206 63 288 76 225 63 b 94 171 113 57 94 171 b 93 332 76 242 93 332 z m 126 718 b 211 844 128 763 158 842 b 307 653 211 844 325 853 b 226 536 297 546 244 536 b 147 575 172 535 147 575 b 126 718 110 625 126 718 z m 336 831 b 347 804 346 822 350 810 b 328 814 347 804 338 794 b 322 828 325 819 324 824 b 311 847 319 838 317 844 b 336 831 311 847 326 840 z "},"9":{"ha":444,"x_min":0,"x_max":0,"o":"m 22 568 b 65 432 28 476 65 432 b 176 381 106 376 176 381 b 301 442 254 378 301 442 b 264 181 292 272 264 181 b 171 54 249 125 219 54 b 94 154 107 54 96 132 b 93 168 94 154 93 161 b 90 208 92 186 92 200 b 69 243 90 219 83 243 b 42 213 60 244 47 232 b 33 175 39 201 35 189 b 104 11 21 54 104 11 b 167 -6 125 -3 147 -6 b 385 188 274 -6 350 96 b 422 454 385 188 418 278 b 383 765 422 454 436 660 b 221 890 321 889 221 890 b 139 881 206 892 165 892 b 50 781 72 853 50 781 b 22 568 13 668 22 568 z m 85 603 b 88 654 85 621 86 639 b 89 667 88 658 88 663 l 89 672 b 90 678 89 674 89 676 b 92 689 90 682 90 685 b 93 700 92 693 93 696 b 124 796 99 732 107 768 b 126 799 125 797 125 799 b 128 803 126 800 128 801 b 131 807 129 804 131 806 b 194 832 140 818 164 843 b 290 707 249 800 276 768 b 306 578 299 669 304 625 l 306 571 b 304 568 306 571 304 569 b 286 525 300 554 293 540 b 285 522 286 524 286 524 b 283 519 285 521 285 521 b 281 514 283 518 282 515 b 278 508 279 513 279 511 b 275 503 276 507 275 506 b 268 493 272 500 269 496 b 264 488 267 492 265 489 l 260 483 b 243 465 253 476 249 471 b 222 451 236 458 229 456 b 175 443 208 443 192 442 l 168 443 l 161 444 b 154 446 160 444 157 444 l 151 446 l 149 447 b 131 456 142 447 136 451 b 85 603 93 483 85 558 z m 303 831 b 317 806 313 822 319 811 b 296 813 317 806 308 794 b 289 825 293 817 292 822 b 276 843 285 835 281 840 b 303 831 276 843 292 839 z "},"\u0000":{"ha":0,"x_min":0,"x_max":0,"o":""},"\r":{"ha":347,"x_min":0,"x_max":0,"o":""}," ":{"ha":361,"x_min":0,"x_max":0,"o":""},"A":{"ha":553,"x_min":0,"x_max":0,"o":"m 31 -4 b 133 -3 54 -7 99 -11 b 140 13 139 0 142 7 b 132 121 135 36 129 81 b 150 242 132 140 139 185 b 357 244 190 244 293 249 b 343 13 358 133 350 42 b 350 0 342 7 346 3 b 432 -11 375 -8 404 -11 b 522 -3 468 -11 503 -6 b 532 13 529 -3 535 6 b 443 858 492 113 450 785 b 347 883 443 878 363 883 b 235 868 299 883 253 874 b 226 860 231 868 226 864 b 149 489 218 822 183 656 b 76 129 114 322 83 158 b 24 14 64 78 40 35 b 31 -4 18 7 22 -3 z m 289 814 b 356 297 289 814 347 457 b 161 299 296 293 193 288 b 289 814 204 508 289 814 z m 424 825 b 408 819 424 825 425 813 b 393 839 401 822 399 832 b 371 856 386 847 381 854 b 424 825 371 856 424 861 z "},"B":{"ha":510,"x_min":0,"x_max":0,"o":"m 22 846 b 61 706 36 821 60 771 b 72 146 63 613 68 213 b 57 31 75 94 65 51 b 65 14 54 24 58 17 b 188 -8 89 4 135 -7 b 489 271 478 -17 488 124 b 342 419 492 396 375 417 b 460 581 369 419 450 431 b 306 863 472 776 392 850 b 172 869 274 868 224 869 b 35 864 118 869 64 868 b 22 846 24 863 18 853 z m 206 288 b 208 417 206 357 208 417 b 307 396 208 417 265 421 b 353 253 344 374 353 286 b 306 58 351 221 340 83 b 238 33 279 39 256 33 b 199 43 214 33 199 43 b 206 288 207 72 207 218 z m 193 829 b 313 753 193 829 301 833 b 319 554 321 693 324 617 b 204 458 313 450 204 458 b 201 750 200 492 201 713 b 193 829 201 788 193 829 z m 311 838 b 344 826 311 838 328 835 b 368 799 360 819 372 807 b 358 792 365 794 363 792 b 332 813 350 792 339 801 b 311 838 325 824 315 833 z "},"C":{"ha":500,"x_min":0,"x_max":0,"o":"m 24 435 b 268 7 24 432 43 7 b 479 192 397 4 454 92 b 414 292 483 247 469 274 b 404 286 410 293 406 290 b 275 47 396 174 349 42 b 185 429 178 54 183 429 b 310 828 183 740 308 829 b 375 597 335 821 360 676 b 388 597 376 590 386 590 b 419 813 401 665 410 757 b 435 851 422 828 429 842 b 424 868 439 858 433 867 b 260 864 326 882 260 863 b 24 435 258 865 -11 810 z m 375 858 b 411 836 375 858 408 857 b 401 818 411 836 414 817 b 393 836 401 818 394 818 b 375 858 392 851 375 858 z "},"D":{"ha":546,"x_min":0,"x_max":0,"o":"m 22 846 b 61 706 36 822 60 771 b 74 160 63 613 69 228 b 61 49 76 111 72 69 b 72 28 57 40 63 29 b 190 6 97 21 140 11 b 524 514 515 -31 524 513 b 304 864 544 850 304 864 b 171 871 272 868 221 871 b 33 864 117 871 63 868 b 22 846 24 863 18 854 z m 379 439 b 200 57 365 79 290 38 b 207 301 208 86 207 232 b 206 467 208 371 206 467 b 201 750 206 524 201 713 b 192 829 200 788 192 829 b 379 439 192 829 397 843 z m 363 826 b 386 799 378 819 390 807 b 376 792 383 794 381 792 b 350 813 368 792 357 801 b 329 838 343 824 333 833 b 363 826 329 838 346 835 z "},"E":{"ha":504,"x_min":0,"x_max":0,"o":"m 24 847 b 61 740 38 828 60 790 b 76 67 64 664 81 92 b 40 13 75 58 81 32 b 43 1 35 10 38 1 b 465 0 121 -3 396 -11 b 483 207 465 0 482 140 b 474 210 483 213 476 215 b 222 51 446 156 364 22 b 207 367 222 51 201 332 b 282 364 207 367 269 381 b 321 292 293 350 314 319 b 331 293 322 286 329 288 b 340 543 335 347 346 471 b 329 544 339 549 331 550 b 254 426 318 503 292 429 b 204 426 254 426 225 421 b 201 817 204 426 190 796 b 328 808 201 817 285 821 b 431 649 364 797 413 719 b 442 650 432 643 442 643 b 457 847 449 703 458 797 b 439 865 457 857 449 864 b 243 875 375 875 310 875 b 32 864 174 875 103 871 b 24 847 22 864 18 854 z m 394 853 b 440 824 394 853 439 851 b 429 800 440 824 446 799 b 418 824 429 800 419 801 b 394 853 415 843 394 853 z "},"F":{"ha":479,"x_min":0,"x_max":0,"o":"m 428 800 b 415 824 428 800 417 801 b 392 853 414 843 392 853 b 439 824 392 853 436 851 b 428 800 439 824 443 799 z m 431 864 b 232 875 361 871 297 875 b 26 864 167 875 100 871 b 22 856 21 863 19 858 b 68 740 38 840 67 799 b 83 94 68 743 93 213 b 43 7 83 86 83 35 b 46 -3 39 4 40 -3 b 246 1 124 -7 193 -4 b 251 14 253 1 256 10 b 219 113 218 47 219 113 b 213 444 219 113 208 410 b 290 440 213 444 276 458 b 324 381 299 429 314 404 b 339 382 326 372 339 374 b 350 621 346 442 356 554 b 338 621 349 626 340 628 b 261 503 322 582 300 507 b 211 503 261 503 232 499 b 210 817 211 503 199 794 b 328 808 210 817 283 818 b 431 653 374 799 415 722 b 443 654 432 647 443 647 b 458 853 450 711 461 806 b 431 864 458 858 438 864 z "},"G":{"ha":515,"x_min":0,"x_max":0,"o":"m 22 435 b 253 4 21 433 25 4 b 476 350 253 4 467 -12 b 494 385 476 360 488 374 b 490 396 497 389 496 394 b 383 411 471 400 429 411 b 315 401 361 411 338 408 b 314 392 311 400 310 394 b 335 360 325 383 335 371 b 258 44 338 42 258 44 b 172 426 161 47 172 426 b 286 825 175 736 285 825 b 346 611 307 819 332 693 b 361 613 347 603 360 604 b 385 811 372 679 381 760 b 399 854 386 828 393 843 b 390 867 401 860 397 867 b 242 860 301 867 242 860 b 22 435 242 861 3 810 z m 332 853 b 368 829 332 853 367 851 b 360 813 368 829 372 811 b 350 831 360 813 351 813 b 332 853 349 844 332 853 z "},"H":{"ha":525,"x_min":0,"x_max":0,"o":"m 453 796 b 440 818 453 796 443 796 b 418 849 438 838 418 849 b 464 818 418 849 463 846 b 453 796 464 818 469 794 z m 497 865 b 314 868 435 871 372 871 b 307 854 307 867 303 860 b 344 743 321 835 344 796 l 344 742 b 346 299 344 736 347 490 b 189 292 315 297 244 292 b 113 300 153 292 124 293 b 117 715 108 465 104 657 b 156 860 132 789 147 840 b 147 871 158 865 153 869 b 31 867 124 872 69 875 b 22 851 24 864 19 857 b 54 671 33 829 51 769 b 69 67 54 603 64 232 b 51 11 69 63 68 31 b 57 -3 47 6 50 -3 b 126 -1 76 -4 103 -4 b 132 13 133 0 136 7 b 117 58 122 25 118 39 l 117 60 b 114 240 117 94 115 163 b 344 242 167 244 290 249 b 338 97 343 178 342 125 b 303 15 338 89 336 43 b 307 0 296 10 300 0 b 490 -3 378 -6 440 -6 b 499 15 500 -3 504 8 b 475 111 471 50 475 111 b 478 442 475 111 472 404 l 478 443 b 485 813 478 460 472 779 b 504 853 492 831 497 842 b 497 865 508 858 504 865 z "},"I":{"ha":307,"x_min":0,"x_max":0,"o":"m 22 856 b 71 751 72 826 71 751 b 76 421 71 751 82 456 l 76 419 b 81 50 78 410 92 83 b 65 10 75 33 71 19 b 72 -4 61 3 65 -4 b 238 -3 128 -6 185 -6 b 243 8 243 -3 246 3 b 211 122 233 28 210 67 b 236 768 211 131 217 651 b 282 847 238 776 240 819 b 276 864 290 853 286 863 b 24 861 178 878 89 868 b 22 856 21 861 19 857 z m 175 844 b 222 814 175 844 219 842 b 210 792 222 814 226 790 b 199 815 210 792 200 792 b 175 844 196 833 175 844 z "},"J":{"ha":468,"x_min":0,"x_max":0,"o":"m 21 218 b 181 3 31 121 63 3 b 410 442 428 3 411 431 b 424 811 410 450 413 778 b 446 854 431 831 436 844 b 440 865 450 858 446 864 b 247 867 375 869 310 871 b 242 857 242 867 239 861 b 279 742 254 838 281 797 b 276 439 279 738 279 593 b 190 50 276 439 283 36 b 121 235 97 64 121 222 l 121 236 b 133 263 121 238 126 249 b 131 268 135 265 133 268 b 39 251 114 271 74 271 b 21 218 26 244 19 232 z m 399 815 b 388 793 399 815 404 792 b 375 815 388 793 376 793 b 353 846 374 835 353 846 b 399 815 353 846 397 843 z "},"K":{"ha":522,"x_min":0,"x_max":0,"o":"m 169 792 b 157 815 169 792 160 792 b 135 844 154 833 135 844 b 181 814 135 844 179 842 b 169 792 181 814 186 790 z m 497 865 b 356 868 471 868 413 872 b 346 854 349 867 344 861 b 351 785 353 840 360 814 b 199 482 340 744 288 538 b 200 814 196 571 192 788 b 219 856 206 833 213 846 b 213 868 224 861 219 868 b 29 864 150 871 88 869 b 22 851 22 864 18 856 b 61 740 40 833 61 793 b 65 94 61 732 76 211 b 31 13 64 86 65 40 b 36 -3 25 7 28 -3 b 219 1 107 -6 169 -4 b 228 19 229 1 233 13 b 201 114 200 54 201 114 b 197 390 201 114 197 296 b 339 64 242 329 336 97 b 331 13 340 40 336 22 b 336 1 329 7 332 3 b 489 -3 403 -21 460 -7 b 492 11 494 -1 497 7 b 435 100 476 24 454 51 b 290 493 408 165 303 467 b 435 783 365 594 422 754 b 500 856 449 815 482 843 b 497 865 504 858 503 864 z "},"L":{"ha":519,"x_min":0,"x_max":0,"o":"m 22 857 b 65 740 35 842 65 800 b 68 94 65 732 81 213 b 25 6 68 86 61 42 b 28 -3 22 3 24 -3 b 442 -8 119 -7 336 -21 b 493 40 468 -4 488 14 b 493 190 504 90 506 153 b 485 190 492 194 486 196 b 383 47 464 119 433 65 b 210 35 331 31 210 35 b 203 444 210 35 206 385 b 204 814 203 444 193 781 l 204 815 b 226 861 210 836 215 850 b 224 868 229 864 226 868 b 25 864 157 872 89 869 b 22 857 21 864 19 860 z m 138 846 b 185 815 138 846 182 843 b 172 793 185 815 189 792 b 161 815 172 793 163 793 b 138 846 158 835 138 846 z "},"M":{"ha":721,"x_min":0,"x_max":0,"o":"m 639 793 b 626 815 639 793 629 793 b 604 846 624 835 604 846 b 650 815 604 846 649 843 b 639 793 650 815 656 792 z m 694 867 b 586 874 658 872 622 874 b 500 868 557 874 528 872 b 496 864 499 868 496 865 b 351 364 444 697 397 531 b 339 364 350 357 340 357 b 179 868 304 536 194 832 b 174 871 178 869 175 871 b 31 869 156 872 88 878 b 28 858 25 868 24 863 b 46 810 39 847 47 835 b 50 101 44 694 65 197 b 22 7 40 44 29 18 b 26 -3 21 4 22 -1 b 132 4 47 -4 93 -7 b 136 13 136 6 139 10 b 111 149 125 24 111 61 b 99 690 110 217 104 525 b 228 225 100 690 224 336 b 217 181 228 225 229 197 b 219 171 214 176 217 172 b 296 160 233 164 261 160 b 392 176 324 160 356 164 b 394 185 394 178 396 182 b 382 253 389 197 375 218 b 531 789 386 286 496 747 l 531 760 b 519 97 531 751 533 214 b 479 13 519 89 518 39 b 482 1 474 8 476 1 b 682 -1 560 -6 629 -6 b 686 8 688 -1 690 6 b 656 111 646 35 656 111 b 658 438 656 111 654 378 b 678 813 658 438 665 779 b 699 857 683 833 692 846 b 694 867 701 861 700 865 z "},"N":{"ha":607,"x_min":0,"x_max":0,"o":"m 22 857 b 67 740 36 842 67 800 b 71 94 68 732 90 211 b 26 7 69 86 69 36 b 29 -3 22 4 24 -3 b 254 3 118 -7 196 -3 b 256 8 257 4 257 7 b 215 114 214 38 215 111 b 210 442 215 119 207 381 b 210 560 210 442 211 496 b 363 22 300 357 339 164 b 378 6 364 14 369 7 b 525 -1 403 1 463 -11 b 528 7 529 -1 531 4 b 511 64 514 21 510 40 b 549 771 518 183 525 676 b 585 860 561 826 575 850 b 582 868 588 863 586 867 b 447 867 556 871 490 878 b 444 863 446 867 444 864 b 475 731 451 850 479 844 b 463 193 472 663 464 358 b 243 865 435 407 261 832 b 240 869 243 868 242 868 b 25 864 193 879 78 874 b 22 857 21 864 19 860 z m 236 815 b 225 793 236 815 242 792 b 213 815 225 793 214 793 b 190 846 211 835 190 846 b 236 815 190 846 235 843 z "},"O":{"ha":518,"x_min":0,"x_max":0,"o":"m 258 4 b 496 431 475 3 496 429 b 249 867 494 429 542 874 b 21 447 249 867 14 849 b 258 4 21 446 10 1 z m 256 825 b 440 438 356 833 453 664 b 253 53 428 211 339 46 b 157 406 167 60 157 406 b 256 825 153 806 256 825 z m 318 839 b 346 836 318 839 332 842 b 365 807 358 831 372 817 b 339 818 357 796 347 806 b 318 839 333 826 325 838 z "},"P":{"ha":514,"x_min":0,"x_max":0,"o":"m 22 844 b 53 707 35 821 53 776 b 58 161 54 600 67 225 b 22 13 51 111 33 39 b 31 -1 19 6 24 0 b 222 8 68 -3 174 -1 b 231 24 229 10 233 17 b 196 335 218 56 190 158 b 492 567 389 342 476 406 b 346 851 507 726 449 826 b 36 864 265 874 99 868 b 22 844 25 864 18 853 z m 354 589 b 194 376 349 415 294 381 b 193 826 197 414 193 826 b 354 589 193 826 369 833 z m 336 832 b 371 821 336 832 354 829 b 394 792 386 813 399 801 b 385 785 392 788 389 785 b 358 806 376 785 365 794 b 336 832 351 818 342 826 z "},"Q":{"ha":553,"x_min":0,"x_max":0,"o":"m 22 446 b 276 7 21 444 26 4 b 307 10 286 7 297 8 b 385 -62 322 -26 346 -57 b 497 36 464 -76 488 -3 b 486 43 499 42 490 46 b 442 28 475 36 463 28 b 383 49 419 28 401 35 b 528 431 504 154 529 429 b 264 869 526 428 596 875 b 22 446 264 872 0 849 z m 274 829 b 469 439 386 838 489 665 b 349 94 456 281 406 154 b 318 171 332 122 326 142 b 285 214 311 196 301 210 b 276 204 279 215 275 210 b 281 164 281 186 281 164 b 293 58 281 164 281 113 b 271 57 285 57 278 56 b 168 408 183 64 168 408 b 274 829 157 808 272 829 z m 374 836 b 393 807 386 831 400 817 b 367 818 385 796 375 806 b 346 839 361 826 353 838 b 374 836 346 839 360 842 z "},"R":{"ha":515,"x_min":0,"x_max":0,"o":"m 22 847 b 54 707 35 825 54 779 b 60 161 56 600 69 225 b 25 18 53 114 33 49 b 39 -1 22 8 29 0 b 219 7 78 -3 169 -1 b 229 26 228 8 233 18 b 199 240 215 54 193 121 b 375 3 199 240 249 -3 b 482 149 474 7 483 104 b 469 153 482 154 474 157 b 375 121 453 136 428 111 b 231 272 296 135 231 272 b 493 567 397 285 478 406 b 347 851 508 726 450 826 b 33 864 264 874 93 868 b 22 847 24 864 18 854 z m 356 589 b 197 304 350 415 297 321 b 194 826 200 342 194 826 b 356 589 194 826 371 833 z m 356 822 b 390 811 356 822 374 819 b 414 782 406 803 418 792 b 404 775 413 778 408 775 b 378 796 396 775 385 785 b 356 822 371 808 361 818 z "},"S":{"ha":514,"x_min":0,"x_max":0,"o":"m 414 813 b 406 794 414 813 418 794 b 396 813 406 794 397 796 b 378 836 394 828 378 836 b 414 813 378 836 413 833 z m 246 610 b 308 803 194 689 236 807 b 383 599 367 800 375 696 b 399 599 385 590 397 590 b 433 806 410 667 428 751 b 408 849 435 824 425 840 b 294 869 360 872 294 869 b 85 642 294 871 56 881 b 203 433 85 642 99 535 b 350 249 297 340 340 269 b 253 64 367 213 369 56 b 144 342 164 71 117 250 b 136 351 146 347 142 353 b 33 281 93 349 58 325 b 21 219 22 261 19 240 b 242 3 35 7 242 3 b 489 261 499 -11 506 190 b 246 610 464 369 310 514 z "},"T":{"ha":525,"x_min":0,"x_max":0,"o":"m 21 832 b 29 714 22 804 25 750 b 42 713 29 708 40 707 b 204 817 60 783 138 815 b 207 422 204 817 213 458 b 206 53 207 413 215 85 b 188 8 200 35 194 18 b 192 -1 185 4 188 -1 b 363 -1 249 -4 307 -4 b 368 10 368 0 371 6 b 335 124 356 28 333 68 b 360 817 335 133 342 700 b 421 803 360 817 386 818 b 482 719 453 789 475 749 b 493 721 483 714 493 714 b 504 838 499 757 501 813 b 481 863 506 850 494 861 b 246 871 397 868 318 871 b 53 864 175 871 110 868 b 21 832 35 863 19 847 z m 449 846 b 485 824 449 846 483 844 b 476 806 485 824 489 804 b 467 824 476 806 468 806 b 449 846 465 839 449 846 z "},"U":{"ha":531,"x_min":0,"x_max":0,"o":"m 24 842 b 51 757 36 825 49 797 b 60 239 51 757 58 338 b 233 3 61 142 86 3 b 436 269 381 4 431 186 b 467 714 444 385 444 621 b 510 849 482 778 503 824 b 494 869 513 858 506 868 b 399 871 471 872 432 875 b 382 846 386 868 378 857 b 403 672 392 819 404 761 b 263 111 397 543 342 104 b 190 426 263 111 175 82 b 226 833 190 426 199 739 b 207 867 231 847 222 863 b 119 878 178 875 149 878 b 38 869 92 878 65 875 b 24 842 24 867 17 853 z m 200 828 b 192 811 200 828 204 810 b 182 829 192 811 183 811 b 165 851 181 843 165 851 b 200 828 165 851 199 850 z "},"V":{"ha":675,"x_min":0,"x_max":0,"o":"m 25 846 b 97 768 49 835 85 810 l 97 767 b 243 89 103 753 232 168 b 226 15 243 89 249 44 b 232 1 222 10 225 3 b 364 -10 257 -4 310 -10 b 449 -1 393 -10 422 -8 b 453 14 454 0 457 8 b 440 72 443 28 438 46 b 579 772 453 133 557 724 b 651 854 593 808 632 839 b 649 865 657 857 654 864 b 475 868 585 875 507 871 b 471 860 471 868 468 863 b 492 783 489 842 497 801 l 492 781 b 372 101 472 713 374 124 b 250 789 371 124 256 751 b 289 856 249 814 272 840 b 285 871 296 860 292 869 b 28 860 189 890 78 868 b 25 846 19 858 18 849 z m 199 856 b 235 832 199 856 233 854 b 226 815 235 832 239 814 b 217 833 226 815 218 815 b 199 856 215 847 199 856 z "},"W":{"ha":796,"x_min":0,"x_max":0,"o":"m 24 838 b 44 803 32 831 40 818 b 161 13 92 632 156 75 b 244 -8 167 -6 229 -8 b 358 17 258 -8 358 -4 b 407 608 363 82 392 551 b 482 65 408 608 483 125 b 479 10 482 65 483 28 b 488 -3 478 3 482 -1 b 574 -12 504 -7 538 -12 b 643 6 586 -12 643 -12 b 750 797 650 78 718 733 b 774 844 753 810 760 828 b 768 861 779 851 775 860 b 663 869 743 867 699 875 b 654 854 654 868 651 860 b 671 814 660 844 667 829 b 672 776 674 803 674 792 b 618 240 656 597 636 419 l 606 150 l 597 239 b 536 746 575 435 542 703 b 457 765 536 763 468 765 b 372 756 421 765 388 758 b 364 747 367 756 364 751 b 308 146 358 658 324 307 l 299 78 l 289 144 b 228 592 271 265 236 485 b 228 808 221 686 224 760 b 239 846 231 825 233 839 b 232 860 243 851 239 858 b 158 867 210 864 185 867 b 31 856 110 867 60 860 b 24 838 21 854 18 843 z m 210 821 b 201 804 210 821 214 803 b 192 821 201 804 193 804 b 174 844 190 836 174 844 b 210 821 174 844 208 842 z "},"X":{"ha":654,"x_min":0,"x_max":0,"o":"m 28 856 b 94 786 51 843 82 821 b 263 421 106 756 190 586 b 88 92 179 269 103 119 b 25 21 68 56 40 32 b 26 6 19 17 19 8 b 103 -7 49 -3 76 -7 b 178 1 133 -7 161 -3 b 183 14 183 3 186 10 b 169 53 168 36 169 53 b 294 350 163 82 221 211 b 396 89 351 219 397 106 b 367 17 393 61 376 33 b 372 0 363 10 365 1 b 483 -10 394 -4 432 -10 b 611 1 519 -10 563 -7 b 615 19 619 3 622 14 b 561 83 594 36 574 60 b 393 525 551 103 468 332 b 540 768 463 647 526 749 b 629 840 565 803 607 826 b 628 857 636 844 636 854 b 543 871 601 867 572 871 b 478 864 521 871 499 868 b 471 851 471 863 468 857 b 463 778 478 838 482 813 b 363 601 454 760 414 690 b 285 797 324 701 292 781 b 285 861 272 826 279 849 b 276 875 288 867 283 874 b 174 881 244 882 208 881 b 33 874 119 881 67 876 b 28 856 22 874 19 860 z m 224 854 b 260 832 224 854 258 853 b 250 814 260 832 264 813 b 242 832 250 814 243 814 b 224 854 240 847 224 854 z "},"Y":{"ha":692,"x_min":0,"x_max":0,"o":"m 246 821 b 236 839 246 821 238 821 b 218 861 235 853 218 861 b 254 838 218 861 253 860 b 246 821 254 838 258 819 z m 665 858 b 501 869 614 882 533 875 b 494 857 494 869 492 863 b 508 818 507 832 508 818 b 372 524 515 789 447 663 b 265 785 314 656 264 768 b 296 857 268 813 282 842 b 289 874 300 864 296 872 b 193 881 269 878 236 881 b 29 863 149 881 93 876 b 25 844 19 860 18 850 b 86 783 47 826 72 807 b 258 389 99 767 185 572 b 257 54 260 303 265 81 b 238 8 251 35 244 19 b 243 0 235 4 238 0 b 413 1 300 -3 358 -3 b 418 11 418 1 421 7 b 385 125 406 29 383 71 l 385 126 b 388 426 385 131 385 271 b 594 775 478 586 575 747 b 667 843 619 810 649 833 b 665 858 674 847 672 856 z "},"Z":{"ha":514,"x_min":0,"x_max":0,"o":"m 472 815 b 463 799 472 815 476 797 b 454 817 463 799 456 799 b 436 839 453 831 436 839 b 472 815 436 839 471 838 z m 486 751 b 490 847 486 751 500 810 b 472 861 489 854 481 861 b 69 861 419 864 217 868 b 35 833 53 860 39 849 b 36 665 29 814 29 717 b 51 664 38 658 49 657 b 213 811 69 708 126 801 b 358 817 325 824 358 817 b 150 436 303 725 217 569 b 31 192 81 303 31 192 b 22 51 21 156 18 101 b 64 8 24 28 42 10 b 435 4 186 0 371 4 b 469 32 451 6 464 15 b 482 185 478 57 482 142 b 471 189 482 192 475 193 b 193 64 411 94 271 64 b 143 71 169 64 151 67 b 328 479 167 160 247 331 b 486 751 407 626 486 751 z "},"a":{"ha":404,"x_min":0,"x_max":0,"o":"m 40 93 b 157 4 40 92 50 -11 b 236 63 194 10 219 35 b 242 26 238 36 242 26 b 376 -1 265 -12 346 -6 b 383 8 382 -1 385 4 b 379 419 363 69 379 419 b 186 589 396 606 186 590 b 33 400 58 581 36 435 b 39 383 33 394 35 388 b 143 351 60 363 99 350 b 150 363 149 353 153 358 b 142 388 146 369 142 378 b 199 550 138 424 142 549 b 258 432 238 551 254 501 b 196 326 254 403 240 361 b 40 93 129 275 32 213 z m 217 281 b 257 325 232 294 246 310 b 246 222 254 290 251 256 b 239 161 242 199 240 179 b 182 81 228 103 201 81 b 154 106 169 81 158 90 b 217 281 146 149 165 233 z m 313 540 b 326 515 322 532 329 521 b 306 522 326 515 321 507 b 299 536 301 526 301 532 b 286 553 293 544 290 550 b 313 540 286 553 300 549 z "},"b":{"ha":410,"x_min":0,"x_max":0,"o":"m 7 794 b 39 350 15 760 39 632 b 35 53 39 350 39 110 b 38 46 35 50 36 47 b 139 -1 49 33 88 -4 b 150 10 144 -1 150 4 b 149 93 149 22 149 50 b 228 0 165 43 194 3 b 386 286 268 -3 365 47 b 243 585 404 521 326 600 b 160 461 199 576 172 515 b 185 792 169 671 181 767 b 99 814 185 811 113 814 b 17 807 65 814 33 810 b 7 794 10 806 6 800 z m 156 294 b 247 525 168 364 201 522 b 288 286 247 525 304 514 b 221 61 288 286 268 56 b 156 294 194 64 168 183 z m 124 788 b 165 764 124 788 165 793 b 153 758 165 764 165 753 b 140 775 147 761 144 768 b 124 788 136 781 131 786 z m 288 560 b 314 546 288 560 303 554 b 328 521 324 539 331 528 b 307 528 328 521 319 511 b 300 542 303 533 301 538 b 288 560 297 550 292 557 z "},"c":{"ha":358,"x_min":0,"x_max":0,"o":"m 21 257 b 222 1 21 256 15 0 b 336 92 306 0 336 90 b 300 151 342 115 324 147 b 292 146 296 151 293 150 b 229 46 261 56 231 47 b 138 271 172 44 140 151 b 210 546 135 389 161 542 b 256 494 240 549 249 532 b 250 458 258 479 253 468 b 258 446 249 453 253 447 b 332 472 293 444 321 461 b 338 488 336 476 339 482 b 197 589 326 600 197 589 b 21 257 199 590 11 583 z m 275 551 b 294 542 275 551 286 549 b 304 518 304 535 310 525 b 286 533 297 510 292 522 b 275 551 282 542 278 549 z "},"d":{"ha":424,"x_min":0,"x_max":0,"o":"m 21 228 b 128 0 21 228 25 7 b 249 135 190 -4 228 69 b 247 10 249 68 247 26 b 257 -1 246 4 251 -1 b 358 46 307 -4 349 33 b 361 53 361 47 363 50 b 364 350 360 110 364 350 b 403 794 368 632 394 760 b 394 807 404 800 400 806 b 232 801 363 815 279 817 b 225 792 228 800 225 796 b 243 518 228 768 236 688 b 176 586 228 556 206 586 b 21 228 108 586 19 457 z m 121 269 b 175 535 131 508 175 535 b 247 325 226 543 243 385 b 158 50 236 174 176 50 b 121 269 144 51 111 56 z m 381 764 b 368 758 381 764 379 751 b 356 775 364 761 361 768 b 339 788 351 781 347 786 b 381 764 339 788 381 793 z "},"e":{"ha":388,"x_min":0,"x_max":0,"o":"m 21 253 b 204 1 21 253 22 -10 b 356 193 204 1 340 0 b 353 201 356 196 356 200 b 264 242 344 214 315 243 b 254 232 258 240 254 236 b 204 43 256 192 258 39 l 203 43 b 142 271 142 42 143 182 l 142 304 b 354 314 247 293 326 307 b 364 326 360 315 364 321 b 201 589 390 604 201 590 b 21 253 201 590 11 581 z m 206 543 b 222 542 211 546 217 546 b 256 349 238 531 267 490 b 144 350 256 349 199 342 b 206 543 151 440 172 526 z m 268 551 b 288 542 268 551 279 549 b 297 518 297 533 303 525 b 279 533 290 510 285 522 b 268 551 275 542 271 549 z "},"f":{"ha":346,"x_min":0,"x_max":0,"o":"m 25 296 b 33 290 26 292 31 290 b 61 297 40 293 49 294 b 29 17 58 111 38 40 b 35 6 26 13 31 6 b 128 -1 51 6 86 -1 b 213 6 154 -1 183 0 b 218 15 217 6 219 11 b 179 306 210 42 182 129 b 250 286 211 301 238 290 b 260 292 254 285 260 288 b 263 353 263 306 267 335 b 254 358 263 357 258 358 b 179 349 242 356 213 351 l 179 372 b 229 772 179 372 178 776 b 242 639 264 771 247 669 b 214 578 236 607 224 588 b 218 569 211 575 214 569 b 307 596 258 568 289 585 b 325 624 318 603 324 613 b 224 815 349 814 224 817 b 61 378 40 825 61 378 l 61 351 b 31 356 47 353 38 354 b 22 349 26 356 22 353 b 25 296 21 338 19 313 z m 290 731 b 276 733 290 731 282 722 b 275 753 274 739 275 746 b 267 774 274 760 272 768 b 290 731 267 774 306 756 z "},"g":{"ha":426,"x_min":0,"x_max":0,"o":"m 28 228 b 154 3 28 228 47 7 b 275 129 217 0 253 67 b 226 -190 279 -204 226 -190 b 190 -104 183 -185 190 -104 b 208 -51 190 -81 201 -61 b 204 -42 211 -47 208 -43 b 165 -36 190 -37 178 -36 b 111 -49 143 -36 124 -42 b 96 -76 100 -54 94 -65 b 229 -236 117 -244 229 -236 b 389 285 406 -236 386 142 b 399 578 392 439 397 549 b 390 589 400 583 396 588 b 324 600 367 594 344 600 b 247 579 311 600 247 600 b 254 533 249 569 251 553 b 182 589 236 565 213 589 b 28 228 103 589 10 457 z m 182 538 b 264 378 229 543 253 449 b 267 315 265 347 267 315 b 268 296 268 308 268 301 b 183 53 253 160 201 53 b 133 272 169 54 133 58 b 182 538 133 511 182 538 z m 340 576 b 382 553 340 576 381 582 b 369 549 382 553 382 540 b 357 564 365 551 361 558 b 340 576 353 569 347 575 z "},"h":{"ha":401,"x_min":0,"x_max":0,"o":"m 150 754 b 140 771 146 758 144 765 b 125 786 136 776 133 785 b 164 757 125 786 168 786 b 150 754 164 757 161 746 z m 308 522 b 290 536 299 515 296 525 b 276 557 286 544 282 554 b 299 550 276 557 289 557 b 308 522 307 543 317 528 z m 371 226 b 256 585 386 458 339 589 b 161 472 210 582 179 524 b 183 772 169 660 179 743 b 181 782 183 776 183 779 b 14 813 150 813 79 824 b 6 803 8 811 4 807 b 33 350 21 758 25 614 b 42 29 33 350 40 97 b 47 19 42 25 44 21 b 147 3 76 6 117 -6 b 153 11 151 4 154 8 b 156 311 153 47 151 149 b 246 521 167 369 203 517 b 263 432 249 521 269 519 b 247 18 256 336 238 90 b 265 -1 247 8 256 1 b 376 13 321 -17 361 4 b 379 24 379 14 381 19 b 371 226 367 63 371 226 z "},"i":{"ha":186,"x_min":0,"x_max":0,"o":"m 28 1 b 104 -8 42 -1 74 -8 b 163 10 114 -8 163 -6 b 157 321 160 33 149 143 b 165 561 164 471 165 538 b 89 593 165 589 107 593 b 29 578 81 593 29 590 b 39 324 32 550 38 414 b 21 11 39 235 24 51 b 28 1 21 6 24 1 z m 94 608 l 99 608 b 161 632 160 608 161 632 b 93 661 163 651 126 661 b 39 642 65 661 39 654 b 94 608 39 615 85 610 z m 147 543 b 135 540 147 543 144 531 b 125 558 131 544 128 551 b 110 574 122 564 117 571 b 147 543 110 574 151 572 z m 147 636 b 121 650 142 626 132 646 b 147 636 121 650 151 646 z "},"j":{"ha":215,"x_min":0,"x_max":0,"o":"m -126 -69 b 7 -237 -110 -244 7 -236 b 165 78 124 -236 156 -76 b 174 285 171 161 172 236 b 196 565 182 453 190 536 b 185 581 197 572 192 578 b 108 592 160 589 132 592 b 43 586 81 592 57 589 b 31 571 35 585 29 578 b 50 333 42 514 46 419 b 56 85 56 232 56 151 b 6 -190 49 -190 6 -190 b -31 -106 -39 -185 -31 -106 b -11 -50 -31 -79 -15 -60 b -14 -43 -10 -47 -11 -44 b -53 -36 -26 -36 -40 -36 b -126 -69 -69 -36 -126 -44 z m 110 617 l 113 617 b 164 638 164 617 164 638 b 107 665 165 656 135 665 b 64 647 85 665 64 660 b 110 617 63 625 100 618 z m 135 575 b 172 546 135 575 176 574 b 160 543 172 546 171 535 b 150 560 156 546 154 553 b 135 575 146 567 142 572 z m 150 640 b 124 654 144 631 136 650 b 150 640 124 654 156 650 z "},"k":{"ha":413,"x_min":0,"x_max":0,"o":"m 269 432 b 161 256 269 432 263 267 b 163 311 161 272 163 292 b 253 521 175 369 210 517 l 254 521 b 269 432 256 521 276 519 z m 157 754 b 147 771 153 758 150 765 b 132 786 143 778 139 785 b 169 757 132 786 174 786 b 157 754 169 757 168 746 z m 339 519 b 321 535 329 514 325 522 b 308 557 318 543 314 554 b 329 547 308 557 321 554 b 339 519 339 539 347 525 z m 263 585 b 168 472 217 582 186 524 b 192 772 176 660 188 743 b 189 782 192 776 190 779 b 21 813 169 822 86 824 b 13 803 15 811 11 807 b 40 350 28 758 32 614 b 49 29 40 350 47 97 b 54 19 49 25 51 21 b 154 3 83 6 124 -6 b 160 11 158 4 160 8 l 160 108 b 279 3 183 54 222 0 b 369 128 364 7 371 92 b 360 131 369 133 363 135 b 279 103 349 115 325 94 b 175 194 235 111 197 160 b 383 349 364 193 383 347 b 381 500 396 413 393 460 b 263 585 350 597 263 585 z "},"l":{"ha":232,"x_min":0,"x_max":0,"o":"m 11 803 b 40 350 22 757 33 614 b 47 29 40 350 46 97 b 53 19 47 25 50 21 b 153 1 82 6 121 -10 b 160 10 157 3 160 6 b 174 365 160 50 160 171 b 210 729 188 564 200 674 b 128 814 217 769 179 808 b 21 813 93 818 56 819 b 11 803 14 811 10 807 z m 156 774 b 189 739 156 774 197 767 b 175 738 189 739 185 728 b 168 756 171 742 171 749 b 156 774 165 763 163 769 z "},"m":{"ha":571,"x_min":0,"x_max":0,"o":"m 482 521 b 464 536 471 514 468 524 b 451 558 461 544 457 554 b 472 549 451 558 464 556 b 482 521 482 540 490 525 z m 542 226 b 431 585 557 458 511 588 b 339 463 383 583 354 517 b 233 586 319 554 281 592 b 178 540 210 582 192 564 b 179 564 178 549 179 557 b 172 576 181 569 176 574 b 94 593 151 590 122 593 b 31 583 74 593 51 590 b 21 568 24 582 19 575 b 39 351 39 481 39 351 b 47 29 39 351 46 100 b 54 18 47 25 50 21 b 156 3 79 1 124 -4 b 165 17 161 4 165 10 b 167 321 165 57 163 160 b 226 522 175 386 189 517 b 253 433 228 522 260 521 b 239 126 249 389 236 206 b 301 92 239 104 285 92 b 351 122 319 92 351 100 b 350 178 350 138 350 157 b 421 522 353 267 381 517 b 436 433 424 522 443 519 b 418 19 428 336 408 90 b 436 0 419 10 426 1 b 547 13 494 -8 532 4 b 550 24 550 14 551 19 b 542 226 538 63 542 226 z "},"n":{"ha":413,"x_min":0,"x_max":0,"o":"m 324 522 b 304 536 314 515 310 525 b 292 557 300 544 296 554 b 313 550 292 557 303 557 b 324 522 322 543 332 528 z m 383 226 b 268 585 399 458 351 589 b 178 481 225 582 196 531 b 185 563 179 510 182 540 b 97 593 185 588 114 593 b 31 583 75 593 53 590 b 21 568 24 582 19 575 b 39 351 39 481 39 351 b 47 29 39 351 46 100 b 54 18 47 25 50 21 b 156 3 79 1 124 -4 b 165 15 161 4 167 10 b 168 311 165 56 164 154 b 258 521 181 369 215 517 l 260 521 b 275 432 261 521 282 519 b 260 18 268 336 250 90 b 278 -1 261 8 268 1 b 389 13 333 -17 374 4 b 392 24 392 14 393 19 b 383 226 379 63 383 226 z "},"o":{"ha":383,"x_min":0,"x_max":0,"o":"m 21 263 b 219 3 21 261 24 -4 b 363 286 219 3 353 -6 b 206 589 375 611 204 590 b 21 263 206 590 11 588 z m 217 543 b 307 313 217 543 314 547 b 226 47 300 64 226 47 b 139 272 167 43 140 119 b 217 543 138 390 168 540 z m 257 554 b 278 549 257 554 268 554 b 292 522 289 542 299 529 b 271 535 283 514 278 522 b 257 554 267 542 261 551 z "},"p":{"ha":449,"x_min":0,"x_max":0,"o":"m 31 -233 b 192 -225 61 -236 146 -240 b 199 -214 196 -224 199 -218 b 179 68 196 -192 188 -108 b 250 3 197 32 222 6 b 424 286 292 -1 394 47 b 271 588 453 519 367 603 b 171 442 213 578 183 500 b 174 576 171 508 172 556 b 119 594 174 592 131 594 b 46 575 108 594 46 590 b 49 225 50 506 49 225 b 21 -221 50 -57 29 -186 b 31 -233 19 -226 24 -232 z m 174 299 b 275 528 186 368 224 525 b 318 289 275 528 339 517 b 243 64 318 289 292 58 b 174 299 217 67 188 186 z m 349 551 b 361 525 358 546 369 531 b 342 538 353 517 347 525 b 326 557 336 544 332 554 b 349 551 326 557 338 558 z "},"q":{"ha":422,"x_min":0,"x_max":0,"o":"m 171 53 b 128 272 157 54 121 58 b 186 538 136 511 186 538 b 268 328 244 546 263 388 b 171 53 253 176 190 53 z m 386 546 b 374 543 386 546 383 535 b 363 561 368 547 367 554 b 349 575 360 567 356 574 b 386 546 349 575 390 575 z m 401 574 b 396 583 403 578 400 582 b 339 594 378 589 358 594 b 275 576 328 594 275 592 b 274 494 275 560 275 529 b 188 589 257 542 229 589 b 21 228 108 589 13 457 b 140 3 21 228 33 7 b 261 121 200 0 238 61 b 224 -218 251 -87 231 -187 b 232 -231 222 -224 226 -229 b 324 -237 250 -235 286 -237 b 394 -228 349 -237 375 -235 b 401 -217 399 -226 401 -222 b 390 210 399 -189 389 -67 b 401 574 392 404 399 533 z "},"r":{"ha":371,"x_min":0,"x_max":0,"o":"m 21 568 b 39 351 36 481 39 351 b 47 29 39 351 46 100 b 54 18 47 25 50 21 b 156 1 79 1 124 -7 b 165 15 161 3 167 10 b 169 281 165 53 165 142 b 254 521 179 354 213 515 b 276 432 274 524 282 492 b 283 426 276 429 279 426 b 351 489 303 431 349 444 l 351 492 b 258 583 340 588 258 583 b 182 507 222 582 197 547 b 188 563 183 528 185 546 b 99 593 188 589 117 593 b 32 583 76 593 54 590 b 21 568 24 582 19 575 z m 307 550 b 317 525 315 543 324 532 b 299 542 308 518 304 531 b 288 560 294 550 290 557 b 307 550 288 560 297 557 z "},"s":{"ha":372,"x_min":0,"x_max":0,"o":"m 24 438 b 99 296 24 436 24 367 b 242 169 163 235 222 207 b 181 61 254 146 258 56 b 122 246 118 65 119 208 b 113 254 122 251 118 254 b 21 169 71 250 21 215 b 167 3 21 6 167 3 b 350 203 336 -8 358 135 b 149 425 340 281 189 361 b 204 538 115 478 160 539 b 256 397 244 538 276 483 b 264 386 254 392 258 386 b 340 413 290 385 322 389 b 350 433 346 419 350 426 b 196 589 350 594 196 590 b 24 438 196 590 6 597 z m 294 539 b 304 515 304 532 311 521 b 286 531 296 508 292 519 b 275 550 282 539 278 547 b 294 539 275 550 285 546 z "},"t":{"ha":250,"x_min":0,"x_max":0,"o":"m -54 689 b 42 699 -29 692 6 694 b 60 354 51 615 58 500 b 63 14 60 354 63 96 b 121 -10 63 -6 108 -10 b 174 11 133 -10 174 -6 b 203 710 174 244 182 478 b 407 669 300 713 389 704 b 418 669 410 664 417 664 b 425 763 431 694 447 742 b 365 781 411 776 397 781 b 207 769 335 781 288 776 b 215 836 211 804 214 828 b 208 847 215 840 213 844 b 125 858 186 856 156 858 b 31 851 88 858 50 854 b 21 840 24 851 19 846 b 36 756 24 828 29 799 b -149 792 -85 753 -131 778 b -164 788 -154 796 -162 793 b -54 689 -172 753 -168 681 z m 379 764 b 417 733 379 764 421 763 b 404 731 417 733 414 721 b 394 749 400 735 399 742 b 379 764 390 756 386 761 z m 158 839 b 196 810 158 839 200 838 b 183 806 196 810 193 799 b 174 824 178 810 178 817 b 158 839 169 831 165 836 z "},"u":{"ha":413,"x_min":0,"x_max":0,"o":"m 21 568 b 35 349 36 481 35 349 b 131 3 35 349 32 10 b 258 121 186 -3 228 54 b 254 74 257 104 256 88 b 325 -6 250 32 282 -6 b 385 3 346 -7 368 -6 b 388 10 388 4 389 7 b 383 321 386 33 374 143 b 393 561 392 471 393 538 b 326 593 393 588 344 593 b 274 576 315 593 274 592 b 275 394 275 550 275 469 b 185 104 267 261 211 99 b 171 367 156 110 169 367 b 185 563 171 367 176 493 b 101 592 185 588 118 592 b 31 583 78 592 54 589 b 21 568 24 582 19 575 z m 124 568 b 161 554 124 568 153 567 b 165 538 164 550 168 544 b 147 540 165 538 160 528 b 136 557 143 544 142 551 b 124 568 132 561 128 565 z m 369 558 b 371 536 375 551 378 539 b 357 546 371 536 361 532 b 344 567 354 554 350 564 b 369 558 344 567 361 567 z "},"v":{"ha":408,"x_min":0,"x_max":0,"o":"m 125 540 b 104 553 115 532 111 542 b 89 572 99 561 94 571 b 111 567 89 572 101 572 b 125 540 121 561 132 547 z m 382 585 b 332 589 365 592 346 590 b 303 567 318 588 308 578 b 211 160 247 426 211 160 b 139 561 199 308 154 501 b 111 589 135 575 125 585 b 6 586 71 601 26 592 b -4 569 -3 583 -7 576 b 38 439 4 547 22 494 b 124 22 65 350 115 101 b 192 -6 126 -3 174 -6 b 247 17 210 -6 242 -4 b 386 576 289 185 339 474 b 382 585 389 579 386 583 z "},"w":{"ha":518,"x_min":0,"x_max":0,"o":"m 22 561 b 43 360 43 525 43 360 b 168 7 42 126 93 0 b 251 131 211 10 238 75 b 350 3 271 39 307 1 b 468 300 351 3 446 -8 b 497 576 483 514 492 565 b 494 583 499 579 497 582 b 449 593 488 586 469 593 b 410 574 435 593 414 590 b 397 313 408 538 401 414 b 360 85 390 79 360 85 b 335 158 357 85 328 79 b 354 465 339 204 356 386 b 290 500 354 490 308 500 b 247 489 275 500 261 497 b 238 471 240 485 236 478 b 239 414 238 454 238 436 b 175 79 236 326 213 85 l 174 79 b 158 158 172 79 153 71 b 164 572 163 254 174 501 b 144 590 163 582 154 589 b 25 572 81 600 40 582 b 22 561 21 569 19 565 z m 146 563 b 147 542 151 557 154 543 b 133 551 147 542 139 538 b 121 572 131 558 126 569 b 146 563 121 572 138 572 z "},"x":{"ha":400,"x_min":0,"x_max":0,"o":"m 22 572 b 153 289 74 481 115 386 b 40 6 85 142 50 32 b 46 -1 40 3 42 -1 b 104 0 71 -7 96 -1 b 107 4 106 1 107 3 b 185 203 122 57 151 128 b 243 21 211 126 235 54 b 315 -3 249 1 301 -3 b 367 15 326 -3 367 0 b 257 353 347 101 301 238 b 379 576 311 461 360 557 b 376 585 382 579 379 583 b 319 588 360 590 339 592 b 307 578 314 586 310 583 b 225 435 282 526 249 481 b 167 569 199 500 172 549 b 93 592 161 589 108 592 b 26 582 64 592 39 586 b 22 572 22 581 19 576 z m 143 567 b 157 540 154 561 165 547 b 138 553 149 533 144 543 b 122 572 132 561 128 571 b 143 567 122 572 133 572 z "},"y":{"ha":454,"x_min":0,"x_max":0,"o":"m 21 568 b 36 347 36 453 36 347 b 135 1 36 347 32 10 b 289 172 207 -4 258 86 b 286 85 288 140 288 111 b 231 -190 272 -190 231 -190 b 196 -104 188 -185 196 -104 b 218 -50 197 -79 214 -60 b 215 -43 219 -47 218 -43 b 175 -36 201 -37 188 -36 b 103 -68 158 -36 103 -43 b 232 -236 114 -244 231 -236 b 396 78 349 -236 383 -76 b 408 285 401 161 406 236 b 435 565 418 453 429 536 b 349 592 435 592 365 592 b 285 586 322 592 299 589 b 272 571 276 585 271 578 b 285 410 281 531 283 471 b 190 103 282 274 231 100 b 164 367 157 106 164 367 b 169 549 164 406 165 506 b 147 581 171 563 161 575 b 96 590 131 588 114 590 b 32 582 76 590 56 588 b 21 568 25 581 19 574 z m 144 556 b 147 539 147 551 150 546 b 131 542 147 539 144 531 b 119 558 125 546 124 554 b 106 569 115 563 110 567 b 144 556 106 569 135 568 z m 407 560 b 410 538 413 553 417 540 b 396 547 410 538 400 533 b 382 568 393 556 388 565 b 407 560 382 568 399 568 z "},"z":{"ha":381,"x_min":0,"x_max":0,"o":"m 24 32 b 54 3 25 17 39 4 b 319 0 140 -6 274 0 b 344 18 331 0 340 8 b 347 83 350 40 349 69 b 340 86 347 86 343 88 b 181 51 303 67 235 51 b 117 60 151 51 126 54 b 356 513 150 178 283 404 b 358 578 356 513 365 551 b 346 588 357 583 351 586 b 58 588 308 589 163 592 b 33 568 46 586 35 579 b 38 506 31 551 24 526 b 49 503 40 501 44 500 b 233 531 93 532 172 536 b 25 147 147 426 22 147 b 24 32 18 124 21 67 z m 311 571 b 336 561 311 571 326 571 b 338 540 342 556 346 542 b 324 550 338 540 329 536 b 311 571 321 557 317 568 z "},"!":{"ha":365,"x_min":0,"x_max":0,"o":"m 131 476 b 133 308 131 415 131 357 b 136 243 135 283 133 261 b 139 218 138 233 138 225 b 164 126 139 193 147 143 b 181 121 172 118 181 121 b 226 494 225 125 226 418 l 226 593 b 228 675 228 624 228 651 b 231 729 228 685 229 721 b 232 765 231 743 232 754 l 232 796 b 185 876 229 828 225 874 b 147 792 160 876 150 811 b 143 764 144 783 144 774 b 139 731 142 754 140 743 b 136 694 139 719 138 707 b 133 654 136 682 136 667 b 131 476 131 599 131 536 z m 128 42 b 174 -1 128 18 149 -1 b 219 42 199 -1 219 18 b 174 85 219 65 199 85 b 128 42 149 85 128 65 z m 213 819 b 213 792 218 808 218 796 b 197 807 213 792 201 786 l 197 822 b 194 844 197 832 197 839 b 213 819 194 844 206 833 z "},"?":{"ha":619,"x_min":0,"x_max":0,"o":"m 107 675 b 247 532 113 567 210 540 b 283 540 260 529 272 532 b 328 619 310 561 326 586 b 317 631 328 626 322 632 b 250 628 303 626 278 621 b 178 719 218 636 181 664 b 279 853 167 853 279 853 b 418 721 404 863 418 721 b 261 308 433 561 336 481 b 264 126 225 225 235 161 b 286 135 272 117 288 124 b 328 260 282 168 301 217 b 525 669 376 338 526 531 b 279 883 524 803 406 890 b 107 675 279 883 99 864 z m 285 -1 b 331 42 310 -1 331 18 b 285 85 331 65 310 85 b 239 42 260 85 239 65 b 285 -1 239 18 260 -1 z m 435 821 b 446 796 444 811 450 800 b 426 806 446 796 439 788 b 421 819 424 810 422 815 b 411 838 418 828 415 835 b 435 821 411 838 424 832 z "},"¡":{"ha":394,"x_min":0,"x_max":0,"o":"m 150 -58 l 150 -99 b 151 -136 150 -111 151 -124 b 153 -168 151 -147 153 -158 b 156 -197 154 -179 154 -187 b 163 -239 156 -197 158 -218 b 189 -282 167 -261 175 -282 b 231 -247 208 -282 222 -271 b 240 -203 236 -236 239 -221 b 242 -189 240 -199 240 -193 l 242 -172 b 242 -137 242 -161 243 -150 l 242 -114 b 243 -82 243 -104 243 -93 b 246 0 244 -58 244 -31 b 250 99 247 31 249 64 l 254 203 b 251 389 256 272 257 339 b 222 474 246 439 238 471 b 207 468 222 474 215 476 b 179 397 199 460 190 440 b 174 353 176 385 174 367 b 167 288 171 335 169 313 b 156 119 161 239 160 181 b 150 -58 151 60 150 -3 z m 218 510 b 267 551 243 508 265 528 b 222 596 268 575 249 594 b 175 554 197 597 176 578 b 218 510 174 531 193 511 z m 250 558 b 240 544 250 558 250 544 b 238 558 235 546 236 551 b 228 578 238 565 238 575 b 250 558 228 578 253 576 z "},"¿":{"ha":671,"x_min":0,"x_max":0,"o":"m 364 -293 b 546 -90 364 -293 546 -279 b 413 57 544 18 450 44 b 375 50 400 61 386 58 b 328 -29 349 31 331 4 b 339 -39 328 -36 332 -40 b 404 -37 353 -36 378 -29 b 474 -132 436 -47 472 -76 b 365 -262 476 -267 365 -262 b 233 -126 240 -268 233 -126 b 408 282 225 33 324 113 b 414 464 449 363 446 432 b 392 454 406 472 390 467 b 343 332 396 422 371 375 b 128 -72 293 254 132 67 b 364 -293 124 -206 238 -297 z m 394 506 b 443 547 421 504 442 524 b 399 592 444 571 425 590 b 351 550 374 592 353 574 b 394 506 350 526 369 506 z m 407 572 b 431 553 407 572 432 571 b 421 540 431 553 431 539 b 418 554 415 540 417 546 b 407 572 418 560 418 569 z "},"/":{"ha":344,"x_min":0,"x_max":0,"o":"m 24 4 b 35 -6 28 -7 35 -6 b 90 89 47 -7 67 31 b 165 308 114 147 138 226 b 204 435 179 350 192 393 b 239 553 217 475 228 515 b 268 650 250 589 261 622 b 281 689 272 665 276 678 b 290 717 285 700 288 708 b 303 758 296 732 299 746 b 324 851 311 785 324 825 b 304 901 326 881 319 897 b 265 856 293 904 278 881 b 243 807 253 832 243 807 b 215 735 233 783 222 760 b 200 692 211 721 206 707 b 192 668 197 683 194 675 l 183 643 b 118 431 161 578 139 503 b 42 149 92 338 65 243 b 29 94 38 131 33 113 b 24 4 18 42 19 17 z m 314 858 b 304 844 314 858 314 844 b 301 858 299 846 300 851 b 292 878 301 865 301 875 b 314 858 292 878 317 876 z "},"\\":{"ha":344,"x_min":0,"x_max":0,"o":"m 21 851 b 56 717 22 808 40 757 b 76 650 64 694 71 672 b 107 553 83 622 97 589 b 142 435 117 515 129 475 b 179 308 154 393 165 350 b 254 89 207 226 231 147 b 311 -6 278 31 299 -7 b 322 4 311 -6 319 -7 b 317 94 325 17 328 42 b 304 149 313 113 308 131 b 283 228 299 171 290 199 b 226 431 269 288 247 358 b 161 643 206 503 183 578 l 153 668 b 146 692 150 675 149 683 b 131 735 140 707 136 721 b 115 774 125 749 119 761 b 103 807 111 786 107 797 b 81 856 103 807 93 832 b 42 901 68 881 53 906 b 21 851 26 896 19 881 z m 38 879 b 61 864 38 879 51 874 b 71 839 69 856 75 843 b 53 847 71 839 63 829 b 47 861 50 853 49 857 b 38 879 44 871 42 876 z "},"[":{"ha":288,"x_min":0,"x_max":0,"o":"m 21 339 l 21 246 b 22 217 21 236 21 226 l 22 189 b 24 163 24 179 24 171 b 26 113 25 144 25 128 b 28 90 26 104 26 97 l 28 68 b 163 -22 38 0 103 -22 b 253 -10 193 -22 224 -19 b 264 1 269 -4 264 1 b 217 17 260 11 225 15 b 168 24 203 19 186 21 b 115 53 147 26 125 33 l 115 54 b 114 57 115 56 114 56 l 114 61 b 113 67 114 64 113 65 l 113 69 b 114 72 113 71 113 72 b 115 104 114 83 114 93 b 117 138 115 115 115 126 l 117 171 b 118 207 117 183 117 194 l 118 243 b 119 279 118 256 119 267 l 124 429 b 126 501 124 453 125 478 b 128 569 126 524 128 547 b 133 686 129 613 132 653 b 136 721 135 697 136 710 l 136 732 b 151 828 136 750 143 810 l 151 829 l 153 831 b 154 835 153 832 154 833 l 156 836 l 154 836 l 154 838 b 164 840 158 839 161 839 b 199 846 174 844 189 844 b 249 857 221 849 238 853 b 267 875 261 861 267 868 b 242 889 268 881 257 885 b 181 897 225 893 204 896 b 146 897 169 897 158 899 l 139 897 b 136 896 138 897 136 897 b 124 894 132 896 128 896 b 118 893 122 894 121 894 b 113 892 117 893 115 893 b 104 889 110 892 107 890 l 96 885 b 90 879 94 882 92 881 b 85 875 88 878 86 876 l 81 871 b 76 865 79 869 78 867 l 75 864 b 53 818 64 847 58 838 b 43 768 49 801 46 785 b 40 742 42 760 42 750 b 39 728 40 738 40 732 l 39 715 b 33 657 36 697 35 678 b 31 628 33 647 32 638 l 31 613 b 29 596 29 607 29 601 b 26 533 28 575 28 554 b 24 468 25 511 25 490 b 22 403 24 447 24 425 b 21 339 22 382 22 360 z m 233 872 b 224 861 233 872 232 861 b 219 872 218 861 218 865 b 210 886 221 878 219 885 b 233 872 210 886 235 886 z "},"]":{"ha":288,"x_min":0,"x_max":0,"o":"m 24 874 b 71 858 28 864 63 860 b 119 851 86 856 103 854 b 172 822 136 849 168 840 l 172 821 l 174 821 l 174 815 b 175 814 175 815 175 814 l 175 801 b 174 771 174 792 174 782 b 171 704 171 750 171 725 l 171 668 b 168 596 171 644 171 619 l 164 446 b 163 374 164 422 163 397 b 160 306 161 350 161 328 b 154 189 157 263 156 222 b 153 165 154 181 153 174 l 153 154 b 151 143 153 150 151 147 b 150 111 151 131 150 119 b 135 44 147 90 143 68 b 133 40 135 43 135 42 l 133 38 l 132 36 b 39 18 119 36 49 22 b 21 -1 28 13 22 7 b 107 -22 21 -15 97 -22 b 142 -22 118 -22 131 -24 l 153 -22 b 164 -19 157 -21 160 -21 b 169 -18 167 -19 168 -19 b 175 -17 171 -18 174 -18 b 199 -4 182 -17 193 -10 l 207 4 b 214 11 210 7 211 8 b 235 57 222 24 232 43 b 247 133 240 74 247 114 b 250 160 249 139 250 154 b 254 218 251 178 251 197 b 257 247 256 228 256 238 b 258 263 257 253 257 258 l 258 279 b 261 342 260 299 261 321 b 265 472 264 385 265 429 b 267 536 267 493 267 515 l 267 658 b 264 713 267 675 267 696 b 263 763 264 731 263 747 b 261 785 261 771 261 778 b 260 796 261 789 261 792 l 260 807 b 126 897 249 875 188 897 b 36 885 97 897 64 894 b 24 874 19 879 24 874 z m 225 846 b 235 821 233 838 239 825 b 215 829 235 821 225 810 b 211 843 213 835 213 839 b 200 861 208 853 204 858 b 225 846 200 861 215 856 z "},"@":{"ha":563,"x_min":0,"x_max":0,"o":"m 256 42 b 503 164 256 42 422 22 b 503 185 506 171 508 181 b 485 176 497 189 490 182 b 265 78 454 129 386 61 b 124 328 265 78 92 90 b 325 543 124 328 147 539 b 486 397 325 543 479 546 b 382 226 490 279 425 240 b 361 222 374 224 364 222 l 360 222 b 365 271 346 222 356 250 l 378 292 l 378 293 b 392 363 389 313 422 358 b 364 433 411 425 364 433 b 238 396 288 453 238 396 b 176 292 210 368 185 331 b 174 251 172 279 171 265 b 226 204 175 228 192 206 b 318 269 283 201 313 256 b 336 201 294 208 336 201 b 349 200 340 200 344 200 b 525 326 349 200 467 204 b 319 581 583 449 494 578 b 25 344 132 583 40 456 b 256 42 25 344 -29 76 z m 253 308 b 357 403 293 381 332 407 b 361 357 357 403 375 401 b 314 308 339 347 322 324 l 314 307 l 313 306 b 308 299 311 303 310 300 b 242 232 299 278 271 232 b 253 308 242 232 211 235 z m 483 504 b 493 479 492 496 497 485 b 475 489 493 479 488 471 b 469 503 472 493 471 499 b 460 521 467 511 464 518 b 483 504 460 521 474 514 z "},"¢":{"ha":417,"x_min":0,"x_max":0,"o":"m 21 263 b 106 39 21 171 40 104 b 121 28 110 35 115 31 b 142 15 124 26 140 17 b 149 13 144 15 147 14 b 156 10 151 13 153 11 b 161 8 157 10 160 8 b 168 6 164 7 165 7 l 171 6 b 174 4 172 4 172 4 b 196 0 179 3 190 0 b 215 -3 200 -1 210 -3 l 229 -3 b 239 -17 235 -21 239 -17 b 246 -1 242 -17 244 -11 b 263 -3 250 -3 256 -3 l 271 -3 b 281 -1 274 -3 276 -1 b 378 82 324 10 363 39 b 392 121 385 100 389 114 b 393 154 397 136 399 147 b 368 167 388 161 381 165 b 349 157 360 168 351 163 b 344 150 347 154 344 151 b 342 146 343 147 342 146 b 322 100 335 131 328 115 b 319 94 321 99 321 97 b 317 90 318 93 318 92 b 306 69 313 83 311 76 b 263 35 294 56 281 40 b 260 33 261 35 260 33 l 251 38 b 260 532 263 161 258 458 l 260 564 b 258 594 260 575 260 585 b 281 594 267 596 274 597 l 282 594 b 285 592 282 593 283 593 b 289 589 286 590 288 590 b 331 531 307 575 322 551 b 339 510 333 524 336 515 b 351 479 346 496 347 485 b 369 460 357 467 364 463 b 381 458 376 457 381 458 b 396 486 389 460 394 469 b 303 635 396 549 365 614 b 296 638 300 636 299 636 l 293 638 b 290 639 292 639 292 639 b 285 640 289 639 288 639 l 281 640 b 271 642 276 642 274 642 l 253 642 b 238 663 249 656 244 663 b 228 640 233 663 229 653 l 226 640 b 210 639 221 640 215 639 b 199 636 210 639 199 636 b 194 635 196 636 194 635 b 106 586 164 629 128 608 b 21 310 33 514 25 406 z m 135 328 b 144 425 138 363 139 396 b 167 500 150 454 158 481 b 222 571 175 521 206 556 b 221 524 222 557 221 542 b 222 53 217 376 218 119 l 222 50 l 219 50 b 133 222 149 90 139 150 l 133 274 b 135 328 133 292 135 310 z m 313 610 b 336 593 313 610 325 601 b 347 568 346 585 350 574 b 328 578 347 568 340 560 b 322 590 325 582 324 588 b 313 610 318 600 317 607 z "},"$":{"ha":461,"x_min":0,"x_max":0,"o":"m 243 -10 b 254 -37 249 -43 254 -37 b 263 -8 257 -36 260 -26 b 342 14 290 -6 318 0 l 363 26 b 436 149 400 49 429 107 b 440 174 439 157 440 165 b 382 379 449 278 401 353 b 313 457 364 403 342 428 b 275 500 297 472 285 486 b 275 733 275 604 274 693 b 274 836 275 776 275 810 b 301 833 282 838 292 836 b 336 811 314 829 326 821 l 343 804 b 344 801 343 804 344 803 b 360 769 353 790 358 779 b 357 681 365 733 350 700 b 381 664 360 672 367 667 b 419 713 410 658 418 689 l 419 736 b 418 756 419 744 418 751 b 417 763 418 757 417 760 b 358 856 410 797 388 836 b 354 858 357 857 356 857 b 351 860 353 858 353 860 b 349 861 350 861 349 861 l 346 864 b 343 865 344 864 343 865 b 336 869 340 867 338 868 b 329 872 333 869 331 871 b 325 874 328 872 326 872 b 321 875 324 874 322 874 b 317 876 319 875 318 875 l 313 876 b 308 878 311 878 310 878 l 307 879 l 304 879 b 288 882 303 879 289 881 l 281 882 b 274 883 278 883 275 883 l 268 883 b 251 918 265 907 260 918 b 243 883 247 918 244 901 b 235 882 240 882 238 882 b 115 803 186 875 139 849 b 81 657 97 775 78 726 b 97 579 82 628 88 601 b 194 439 101 564 122 511 b 233 399 208 425 222 411 b 238 60 233 251 235 113 b 239 42 238 54 238 49 b 225 40 233 42 229 40 b 206 42 218 40 211 40 l 200 42 l 201 40 b 71 174 128 53 83 101 b 68 193 69 181 68 188 b 67 211 67 200 67 206 b 89 293 68 261 83 286 b 149 376 119 331 169 342 b 128 389 143 385 136 389 b 106 379 119 389 111 385 b 94 372 103 376 99 375 b 72 350 88 367 81 360 l 71 350 b 57 329 67 343 63 336 b 22 229 35 303 28 263 b 21 203 22 221 21 211 b 243 -10 21 65 111 -10 z m 267 53 b 274 351 271 128 274 239 b 333 188 310 303 331 256 b 267 53 332 118 304 74 z m 192 747 b 239 828 199 797 219 818 b 238 810 239 818 238 810 b 233 551 236 751 235 656 b 210 590 224 567 215 579 b 192 747 179 651 186 724 z m 346 842 b 369 825 346 842 360 835 b 379 800 378 817 383 804 b 361 810 379 800 374 792 b 356 822 358 814 357 818 b 346 842 353 832 350 838 z "},"€":{"ha":493,"x_min":0,"x_max":0,"o":"m 56 363 b 110 360 68 361 88 360 l 110 356 b 153 107 110 274 118 183 b 179 60 160 90 167 72 b 186 50 182 57 182 54 l 194 42 b 201 33 197 39 199 36 b 208 25 204 31 206 26 b 231 8 211 24 228 11 b 238 4 233 7 235 6 b 244 0 239 3 242 1 b 250 -3 246 -1 249 -1 b 257 -6 253 -4 254 -6 b 263 -8 257 -6 263 -8 b 274 -12 267 -10 271 -11 l 275 -12 b 343 -18 283 -15 314 -24 b 460 76 394 -18 444 28 b 464 90 461 81 463 86 b 465 97 464 92 465 94 l 467 100 l 467 103 l 468 104 b 469 111 468 107 468 110 l 469 118 b 474 171 472 136 474 154 b 428 286 474 201 460 271 b 418 292 425 288 421 289 b 410 294 415 292 413 293 b 401 296 407 294 404 296 l 390 296 b 386 294 389 294 388 294 b 381 290 383 293 382 292 b 376 285 378 289 376 286 b 375 281 375 282 375 281 b 400 247 375 271 392 264 b 403 240 401 244 403 243 b 414 169 414 218 414 194 b 411 144 414 161 413 153 b 410 132 411 140 411 136 b 408 119 410 128 408 124 l 408 118 l 407 118 l 407 115 b 406 110 407 113 406 111 b 374 56 399 89 390 72 b 364 49 371 53 367 51 b 360 47 363 49 361 47 b 356 46 358 46 357 46 b 351 43 354 44 353 44 b 319 50 335 39 319 50 b 228 231 253 94 236 154 b 222 299 225 253 224 275 b 222 358 221 318 221 339 b 293 363 254 358 281 361 b 324 381 328 367 324 381 b 222 400 322 393 275 397 b 224 436 224 413 224 424 b 296 440 256 436 283 439 b 326 458 331 444 326 458 b 225 478 325 471 278 475 b 268 721 228 551 235 653 b 346 818 279 743 313 818 b 363 811 351 818 357 815 l 364 811 l 364 810 b 397 749 381 797 393 768 b 400 738 399 747 400 739 l 400 732 l 401 726 l 401 700 b 358 579 401 656 397 606 b 338 569 350 574 343 572 b 333 568 336 569 335 568 b 324 563 332 567 325 563 b 319 556 321 560 319 557 l 319 551 b 350 533 319 540 340 533 b 375 535 357 532 367 533 b 463 713 449 547 463 654 l 463 731 b 461 739 461 733 461 736 l 461 743 b 460 749 461 744 461 746 b 342 885 453 813 407 874 l 332 885 b 325 886 329 886 326 886 l 315 886 b 299 883 310 885 304 885 b 292 882 296 883 294 883 b 288 881 290 882 289 881 b 282 879 285 879 282 879 b 111 479 138 818 118 618 l 82 479 b 24 456 42 481 24 472 b 58 440 24 443 58 440 b 110 438 71 439 89 438 l 110 401 l 79 401 b 21 378 38 403 21 394 b 56 363 21 365 56 363 z m 383 842 b 407 825 383 842 397 835 b 417 800 415 817 421 804 b 397 810 417 800 410 792 b 393 822 394 814 394 818 b 383 842 390 832 388 838 z "},"£":{"ha":469,"x_min":0,"x_max":0,"o":"m 21 383 b 54 369 21 372 54 369 b 108 365 68 368 88 367 b 113 221 110 313 111 263 b 117 108 114 171 113 132 b 119 83 118 100 118 92 l 104 83 b 33 36 72 83 43 65 b 35 24 33 32 33 28 b 50 8 38 17 44 14 b 57 4 53 6 56 6 b 64 3 60 4 63 4 l 90 3 b 100 4 93 4 96 4 l 113 4 b 146 1 122 4 133 3 b 186 -3 158 0 172 -1 b 210 -4 194 -3 201 -4 l 215 -6 l 221 -6 b 232 -7 225 -6 228 -7 b 276 -8 247 -7 263 -8 b 357 3 296 -8 339 -6 b 365 6 360 4 363 6 b 371 10 367 7 369 8 b 406 50 386 15 406 32 b 404 60 407 54 406 58 b 403 64 404 63 403 64 b 386 74 400 69 393 72 b 372 74 382 74 376 75 l 356 74 b 319 71 344 72 333 71 b 276 74 307 71 293 72 b 226 79 260 75 243 78 l 214 79 b 201 81 210 79 206 81 l 194 81 b 203 125 199 94 200 108 b 218 357 215 201 218 281 l 218 365 b 289 368 250 365 276 367 b 318 386 322 372 318 386 b 218 406 317 399 271 404 b 219 442 218 418 218 429 b 290 446 251 442 278 443 b 321 463 325 450 321 463 b 219 482 319 475 272 481 b 253 711 219 550 229 647 b 258 724 256 715 257 719 b 333 817 267 749 300 817 b 385 750 360 817 381 772 b 388 739 385 749 386 740 l 388 726 b 389 701 389 718 389 710 b 388 653 390 683 390 667 b 383 632 386 644 385 638 b 378 614 382 625 379 619 b 349 582 368 596 365 593 b 328 572 342 578 333 575 b 324 571 326 572 325 571 b 321 569 324 571 322 569 b 315 565 319 568 317 567 b 311 558 313 563 313 561 l 311 556 b 342 536 311 546 333 538 b 444 643 413 536 432 586 b 449 714 450 667 450 690 l 449 731 b 447 739 449 733 447 736 l 447 743 b 446 749 447 744 447 746 b 328 883 439 813 392 869 l 324 883 b 292 883 313 886 300 885 l 286 883 b 281 882 283 882 282 882 b 278 881 279 881 278 881 l 265 876 b 258 874 263 876 261 875 b 253 871 257 874 254 872 b 249 869 251 871 250 869 b 246 868 249 869 247 868 b 240 864 244 867 242 865 b 228 856 236 861 231 858 b 203 835 221 849 208 842 b 110 536 133 747 117 644 b 108 483 110 518 108 501 l 79 483 b 22 460 39 485 22 478 b 57 446 22 449 57 446 b 108 443 69 444 88 443 l 108 407 l 78 407 b 21 383 38 408 21 401 z m 372 838 b 396 821 372 838 386 831 b 406 796 404 813 410 801 b 388 806 406 796 400 788 b 382 819 385 810 383 815 b 372 838 379 828 376 835 z "},"&":{"ha":456,"x_min":0,"x_max":0,"o":"m 21 190 b 182 74 21 190 22 72 b 331 182 308 74 328 164 b 332 185 331 183 332 183 b 388 179 350 181 369 178 b 433 222 399 179 428 214 b 433 233 436 226 436 232 b 424 235 431 235 426 235 b 342 233 406 232 376 229 b 306 313 340 264 326 292 b 254 336 306 313 290 332 b 238 318 232 336 235 324 b 257 264 243 306 251 285 b 250 268 254 265 251 265 b 182 328 219 286 197 307 b 190 335 185 331 188 332 b 197 340 192 335 193 338 b 201 343 199 342 200 342 b 203 346 201 343 203 344 b 271 433 229 361 261 407 b 272 439 271 435 272 438 b 268 511 283 479 271 506 b 169 550 256 535 222 565 b 92 400 110 533 82 472 b 117 333 93 390 100 365 b 21 190 40 281 19 239 z m 93 204 b 94 226 93 204 92 214 b 126 282 99 247 111 267 b 143 296 131 285 136 290 b 261 207 168 264 206 232 b 254 182 260 199 257 190 l 253 181 b 204 135 253 167 215 139 b 149 129 181 125 163 128 b 93 204 126 132 94 149 z m 133 442 b 147 494 133 468 143 488 b 189 522 163 515 179 522 b 224 513 211 522 224 513 b 238 482 226 508 236 499 b 225 436 239 464 231 444 b 157 363 210 413 188 386 b 133 442 140 394 135 422 z m 236 526 b 256 510 236 526 247 519 b 261 488 261 503 264 492 b 246 499 261 488 251 482 b 243 510 244 503 243 507 b 236 526 243 518 240 524 z "},"#":{"ha":399,"x_min":0,"x_max":0,"o":"m 21 226 b 60 206 22 217 36 210 b 107 200 74 203 89 201 b 106 176 107 192 106 185 b 103 140 104 163 104 150 l 103 115 b 111 75 103 90 106 81 b 119 74 115 71 119 74 b 153 199 136 76 151 181 b 193 197 167 197 181 197 l 219 197 b 218 185 219 193 218 189 b 217 147 217 171 217 158 b 215 133 215 142 215 138 l 215 122 b 224 83 215 99 219 88 b 232 81 228 79 232 81 b 253 131 239 83 247 103 b 265 197 257 150 261 172 l 276 197 b 290 196 282 197 286 196 l 301 196 b 318 194 308 194 314 194 l 332 194 b 369 225 350 197 369 203 b 351 243 371 233 361 239 b 318 250 342 247 329 250 b 303 253 314 251 308 251 b 286 254 299 253 292 254 b 278 256 283 256 281 256 l 272 256 l 276 297 b 281 335 278 310 279 324 l 299 335 b 310 333 304 335 307 335 l 340 333 b 378 363 358 333 378 342 b 360 381 379 371 369 376 b 340 386 350 385 340 386 b 326 389 336 388 332 388 b 311 390 322 389 317 390 b 294 393 307 392 300 392 l 288 393 b 289 400 288 396 288 399 b 290 418 289 407 290 413 b 293 432 292 424 292 428 b 296 453 296 439 294 446 l 296 461 b 297 469 297 464 297 467 b 296 494 297 481 296 489 b 278 513 296 508 288 514 b 253 461 265 511 256 472 b 250 446 251 457 251 451 b 246 426 249 439 247 433 l 242 406 b 240 396 242 401 242 399 l 176 396 b 178 411 176 401 178 407 b 181 425 179 417 179 421 b 183 444 181 432 182 439 l 183 454 b 185 463 183 457 185 460 b 183 488 185 472 185 481 b 165 504 181 500 175 506 b 138 438 151 504 138 453 b 129 397 135 424 132 411 l 129 394 b 117 393 125 394 121 394 b 86 392 106 393 94 393 b 65 389 83 392 68 390 b 32 374 46 386 36 379 b 29 364 28 368 29 364 b 68 344 31 354 44 349 b 121 338 82 340 101 339 b 114 272 118 317 115 294 b 113 256 113 267 113 261 l 108 256 b 78 253 97 254 86 254 l 67 253 b 57 251 63 251 60 251 b 24 236 38 247 28 240 b 21 226 18 231 21 226 z m 161 257 b 169 336 164 283 167 310 l 232 336 b 226 281 231 318 229 299 b 224 257 225 272 225 265 b 186 258 211 258 199 258 b 161 257 178 258 169 257 z m 164 465 b 163 485 167 471 169 475 b 176 463 163 485 181 479 b 167 453 176 463 174 451 b 164 465 161 454 163 460 z m 278 481 b 278 500 281 486 283 490 b 290 476 278 500 294 493 b 279 468 290 476 286 465 b 278 481 275 469 275 475 z "},"%":{"ha":367,"x_min":0,"x_max":0,"o":"m 22 15 b 31 6 25 3 31 6 b 93 100 42 4 65 42 b 163 263 121 158 129 179 b 207 376 179 304 190 336 b 233 444 224 418 225 421 b 271 543 246 482 260 515 b 286 581 276 557 282 569 b 315 651 294 604 306 628 b 344 744 324 671 342 726 b 331 794 350 774 344 790 b 290 750 321 797 304 774 b 264 700 276 725 264 700 b 249 667 260 690 254 679 b 231 628 243 654 236 642 b 213 583 225 614 218 599 b 192 536 207 575 194 546 b 138 389 169 468 165 461 b 81 239 110 317 100 299 b 54 160 71 210 63 183 b 36 106 47 142 42 124 b 22 15 19 51 21 26 z m 250 149 b 313 219 282 149 310 181 b 261 289 315 258 292 289 b 199 218 229 289 201 257 b 250 149 196 181 219 149 z m 117 549 b 179 619 149 549 176 581 b 128 689 182 658 158 689 b 65 618 96 689 68 657 b 117 549 63 581 86 549 z m 96 618 b 126 650 99 636 111 650 b 147 619 140 650 149 636 b 118 588 146 601 132 588 b 96 618 104 588 94 601 z m 231 218 b 260 250 233 236 246 250 b 282 219 274 250 285 236 b 251 188 279 201 267 188 b 231 218 238 188 229 201 z m 317 740 b 324 753 318 746 322 749 b 331 772 326 761 331 768 b 335 744 331 772 335 758 b 322 719 333 732 328 721 b 317 740 322 719 308 721 z "},"+":{"ha":218,"x_min":0,"x_max":0,"o":"m 126 367 b 101 371 126 367 119 379 b 115 382 101 371 101 383 b 126 367 129 382 126 367 z m 158 332 b 139 335 153 333 146 333 b 138 350 139 340 139 346 b 136 365 138 356 138 361 b 108 393 136 381 122 393 b 83 354 92 390 86 368 b 81 338 83 349 82 343 l 68 338 b 54 338 61 338 57 336 b 28 329 42 338 32 335 b 21 303 24 322 19 315 b 32 288 22 294 28 290 b 42 285 36 285 42 285 b 49 283 44 285 46 285 b 56 282 50 283 53 283 b 74 281 61 282 67 282 l 78 281 l 78 267 b 79 254 79 261 79 257 b 88 228 78 242 81 233 b 114 222 93 222 101 221 b 132 243 125 224 131 233 b 133 249 133 244 133 246 b 135 256 135 251 135 253 b 138 279 136 263 138 272 l 153 279 b 169 282 160 281 165 281 b 179 283 174 282 178 283 b 196 299 190 288 194 293 b 197 308 197 304 197 308 b 158 332 197 322 169 329 z "},"-":{"ha":218,"x_min":0,"x_max":0,"o":"m 183 301 b 153 318 181 306 153 318 b 183 301 186 321 183 301 z m 135 335 b 111 336 128 336 119 336 b 88 338 103 338 94 338 l 68 338 b 54 338 61 338 57 336 b 28 329 42 338 32 335 b 21 303 24 322 19 315 b 32 288 22 294 28 290 b 42 285 36 285 42 285 b 49 283 44 285 46 285 b 56 282 50 283 53 283 b 74 281 61 282 67 282 b 114 279 86 281 100 279 l 153 279 b 169 282 160 281 165 281 b 179 283 174 282 178 283 b 196 299 190 288 194 293 b 197 308 197 304 197 308 b 135 335 197 326 151 335 z "},"−":{"ha":218,"x_min":0,"x_max":0,"o":"m 183 301 b 153 318 181 306 153 318 b 183 301 186 321 183 301 z m 135 335 b 111 336 128 336 119 336 b 88 338 103 338 94 338 l 68 338 b 54 338 61 338 57 336 b 28 329 42 338 32 335 b 21 303 24 322 19 315 b 32 288 22 294 28 290 b 42 285 36 285 42 285 b 49 283 44 285 46 285 b 56 282 50 283 53 283 b 74 281 61 282 67 282 b 114 279 86 281 100 279 l 153 279 b 169 282 160 281 165 281 b 179 283 174 282 178 283 b 196 299 190 288 194 293 b 197 308 197 304 197 308 b 135 335 197 326 151 335 z "},"×":{"ha":185,"x_min":0,"x_max":0,"o":"m 153 339 b 132 364 153 339 143 356 b 153 339 132 364 163 368 z m 157 368 b 129 368 150 374 140 372 b 97 347 118 364 106 356 l 88 357 b 78 367 83 361 79 364 b 53 379 72 378 61 379 b 29 364 44 378 38 374 b 26 346 24 358 25 351 b 31 338 28 342 31 338 b 35 332 32 336 33 335 b 39 326 36 331 38 328 b 50 314 42 322 46 318 b 53 310 51 313 53 311 b 43 300 50 306 46 303 l 33 290 b 21 267 25 282 21 274 b 36 244 21 258 26 251 b 54 242 43 240 49 239 b 64 246 60 244 64 246 b 69 249 65 247 67 247 b 75 253 71 250 74 251 b 89 264 79 257 83 258 l 93 268 b 128 243 97 264 122 243 b 150 242 138 238 146 239 b 158 247 156 244 158 247 b 157 275 164 254 163 264 b 136 307 151 286 144 297 b 146 318 139 311 143 314 b 156 329 149 324 154 326 b 163 339 158 333 161 336 b 163 361 167 349 165 356 b 157 368 160 365 157 368 z "},"÷":{"ha":218,"x_min":0,"x_max":0,"o":"m 21 303 b 42 285 22 290 31 288 b 49 283 44 285 46 285 b 56 282 50 283 53 283 b 74 281 61 282 67 282 b 114 279 86 281 100 279 l 153 279 b 169 282 160 281 165 281 b 179 283 174 282 178 283 b 196 299 190 288 193 293 b 197 308 199 304 197 308 b 135 335 197 326 150 335 b 111 336 128 336 119 336 b 88 338 103 338 94 338 l 68 338 b 54 338 61 338 57 336 b 28 329 42 338 33 335 b 21 303 22 324 19 315 z m 106 208 b 135 236 122 208 135 221 b 106 263 135 251 122 263 b 78 236 90 263 78 251 b 106 208 78 221 90 208 z m 82 381 b 111 354 82 367 96 354 b 139 381 126 354 139 367 b 111 408 139 396 126 408 b 82 381 96 408 82 396 z m 99 385 b 113 397 99 385 99 397 b 129 385 125 397 129 385 b 99 385 129 385 110 392 z "},"=":{"ha":181,"x_min":0,"x_max":0,"o":"m 144 326 b 114 343 142 331 114 343 b 144 326 147 347 144 326 z m 31 313 b 38 308 35 310 38 308 b 43 307 39 308 42 308 l 49 307 b 63 304 53 306 57 306 l 69 304 b 78 303 72 304 75 303 l 93 303 b 110 303 99 303 104 301 l 125 303 b 138 304 129 303 133 304 b 146 307 140 306 143 306 b 160 322 154 311 158 317 b 160 331 161 326 160 331 b 129 356 160 346 142 353 b 111 358 124 356 118 357 b 92 360 106 358 99 360 b 74 361 86 360 79 361 l 47 361 b 25 353 36 361 29 358 b 21 328 21 347 19 339 b 31 313 22 319 26 314 z m 131 278 b 113 282 125 279 118 281 b 74 285 100 282 85 282 l 58 285 b 47 285 54 285 50 283 b 26 276 38 285 31 282 b 22 250 22 271 21 263 b 31 235 22 243 28 238 l 39 232 b 43 231 40 232 42 232 b 49 229 46 231 47 231 b 63 228 53 229 58 229 l 69 228 b 78 226 72 226 75 226 l 94 226 b 110 225 100 225 106 225 b 138 228 113 225 135 226 b 146 231 142 228 144 229 b 160 244 156 233 158 240 b 161 254 161 250 161 254 b 131 278 158 271 144 275 z "},".":{"ha":122,"x_min":0,"x_max":0,"o":"m 21 53 b 61 14 21 31 39 14 b 101 53 83 14 101 31 b 61 92 101 74 83 92 b 21 53 39 92 21 74 z m 49 71 b 65 83 49 71 51 83 b 81 74 78 83 81 74 b 49 71 81 74 61 78 z "},",":{"ha":104,"x_min":0,"x_max":0,"o":"m 24 -32 b 38 -42 26 -35 33 -40 b 50 -40 42 -43 46 -42 b 61 -33 53 -40 60 -35 b 83 33 76 -15 83 10 b 85 57 85 44 83 53 b 76 76 85 67 82 72 b 51 81 71 81 64 82 b 35 67 46 81 35 72 b 26 18 31 56 29 36 b 22 -7 25 8 24 0 b 21 -24 21 -14 21 -21 b 24 -32 21 -28 22 -31 z m 76 51 b 56 71 72 58 56 71 b 76 51 79 74 76 51 z "},":":{"ha":108,"x_min":0,"x_max":0,"o":"m 24 315 b 56 283 24 297 38 283 b 88 315 74 283 88 297 b 56 347 88 333 74 347 b 24 315 38 347 24 333 z m 21 215 b 53 183 21 199 35 183 b 85 215 71 183 85 199 b 53 247 85 233 71 247 b 21 215 35 247 21 233 z m 39 325 b 54 338 39 325 42 338 b 69 329 68 338 69 329 b 39 325 69 329 51 333 z "},";":{"ha":107,"x_min":0,"x_max":0,"o":"m 21 147 b 35 131 21 140 28 131 b 43 131 38 129 40 129 b 65 168 57 138 61 154 b 71 201 68 179 69 192 l 71 225 b 65 243 71 233 69 239 b 46 247 61 247 54 249 b 32 233 36 247 32 242 b 25 188 29 224 28 204 b 21 147 22 175 21 160 z m 24 315 b 56 283 24 297 38 283 b 88 315 72 283 88 297 b 56 347 88 333 72 347 b 24 315 38 347 24 333 z m 54 336 b 69 328 67 336 69 328 b 38 324 69 328 50 332 b 54 336 38 324 40 336 z "},"`":{"ha":171,"x_min":0,"x_max":0,"o":"m 28 765 b 125 713 39 736 93 713 b 133 714 128 713 131 713 b 139 715 135 714 138 715 b 149 725 143 718 147 721 b 150 735 149 725 150 729 b 149 743 150 738 150 740 b 128 763 149 750 132 760 b 101 778 119 767 111 772 b 51 806 83 789 64 801 b 43 808 51 806 47 808 b 25 801 38 808 32 808 b 28 765 25 801 14 790 z m 44 799 b 60 789 56 799 60 789 b 33 788 60 789 43 797 b 44 799 33 788 33 799 z "},"´":{"ha":171,"x_min":0,"x_max":0,"o":"m 21 735 b 24 725 21 729 24 725 b 32 715 25 721 28 718 b 39 714 33 715 36 714 b 47 713 42 713 44 713 b 144 765 83 713 125 735 b 146 801 157 790 146 801 b 128 808 140 808 133 808 b 119 806 124 808 119 806 b 69 778 108 801 88 790 b 44 763 61 772 51 767 b 28 751 36 758 31 754 b 21 735 24 747 21 742 z m 139 796 b 139 781 143 789 139 781 b 119 796 139 781 136 796 b 139 796 119 796 133 803 z "},"ˆ":{"ha":224,"x_min":0,"x_max":0,"o":"m 24 718 b 33 713 26 715 29 714 b 39 711 35 711 38 711 l 47 711 b 113 738 67 711 99 725 b 176 706 129 724 156 708 l 183 706 b 190 707 186 706 188 707 b 199 713 194 708 197 710 b 203 718 199 713 201 715 l 203 725 b 199 732 203 728 200 728 b 125 783 196 738 133 779 l 124 785 b 114 786 121 786 117 786 b 106 785 111 786 108 786 b 103 783 104 785 103 783 b 61 760 92 779 78 768 b 39 747 53 756 46 751 b 25 739 33 743 28 740 l 21 731 l 21 725 b 24 718 22 721 24 718 z m 93 767 b 115 776 93 767 104 776 b 135 767 125 776 135 767 b 93 767 135 767 113 772 z "},"¨":{"ha":222,"x_min":0,"x_max":0,"o":"m 169 708 b 203 746 189 710 204 726 b 164 778 201 764 185 779 b 131 740 144 776 131 760 b 169 708 132 722 150 707 z m 21 747 b 58 715 22 728 39 714 b 92 751 79 717 93 732 b 54 783 92 771 74 785 b 21 747 35 782 19 767 z m 42 761 b 57 774 42 761 44 774 b 72 764 71 774 72 764 b 42 761 72 764 53 769 z m 172 767 b 188 758 185 767 188 758 b 156 754 188 758 168 763 b 172 767 156 754 158 767 z "},"˚":{"ha":126,"x_min":0,"x_max":0,"o":"m 21 753 b 64 711 21 731 40 711 b 107 753 88 711 107 731 b 64 794 107 775 88 794 b 21 753 40 794 21 775 z m 46 753 b 64 769 46 763 54 769 b 81 753 74 769 81 763 b 64 736 81 743 74 736 b 46 753 54 736 46 743 z m 67 786 b 81 776 79 785 81 776 b 49 779 81 776 69 781 b 67 786 49 779 53 786 z "},"˜":{"ha":219,"x_min":0,"x_max":0,"o":"m 33 778 b 42 783 33 778 33 783 b 57 774 51 783 57 774 b 33 778 57 774 46 779 z m 100 771 b 33 794 71 761 57 800 b 29 757 8 789 29 757 b 89 721 43 728 67 721 b 154 733 118 721 146 733 b 189 718 175 735 175 715 b 199 742 204 721 199 742 b 147 781 193 771 171 781 b 100 771 129 781 113 775 z "},"'":{"ha":100,"x_min":0,"x_max":0,"o":"m 24 742 b 29 738 25 740 28 739 b 36 735 33 735 36 735 b 47 735 40 733 44 733 b 53 738 49 736 51 736 b 58 740 54 739 57 738 b 79 792 68 758 76 772 l 79 810 b 72 825 79 817 78 822 b 50 828 68 828 60 828 b 33 817 44 828 33 824 b 26 779 31 808 29 793 b 22 761 25 772 24 767 b 21 749 21 756 21 750 b 24 742 21 746 22 743 z m 71 799 b 53 818 71 799 60 815 b 71 799 53 818 74 825 z "},"\"":{"ha":164,"x_min":0,"x_max":0,"o":"m 72 801 b 54 821 72 801 61 818 b 72 801 54 821 74 828 z m 138 783 b 119 803 138 783 126 800 b 138 783 119 803 140 808 z m 72 829 b 50 832 68 832 60 832 b 33 821 44 832 33 828 b 26 783 31 813 28 797 b 22 765 25 776 24 771 b 21 753 21 760 21 754 b 24 746 21 750 22 747 b 29 742 25 743 28 742 b 36 739 33 739 36 739 b 47 739 40 738 44 738 b 53 742 49 739 51 740 b 58 744 54 743 56 743 b 79 796 69 750 78 783 l 79 814 b 72 829 79 821 78 826 z m 136 810 b 114 813 132 813 124 814 b 97 801 108 813 97 808 b 90 765 94 793 92 779 b 86 746 89 758 88 751 b 85 733 85 740 85 736 b 88 726 85 731 86 728 b 93 722 89 725 92 724 b 100 719 97 719 100 719 b 111 719 104 718 108 718 b 117 722 113 721 115 721 b 122 726 118 724 119 725 b 143 776 135 732 140 764 l 143 794 b 136 810 143 801 142 807 z "},"*":{"ha":153,"x_min":0,"x_max":0,"o":"m 28 760 b 39 753 31 754 35 753 b 46 753 43 751 46 753 b 50 754 47 753 49 753 l 56 754 l 56 756 b 57 749 56 753 56 751 b 58 742 57 746 58 743 b 71 732 61 735 67 732 b 78 731 75 731 78 731 b 93 743 85 731 90 736 b 96 747 94 744 94 746 b 103 744 99 746 101 744 b 119 747 110 743 115 743 b 124 753 122 750 124 753 b 124 772 128 758 126 765 b 117 781 121 775 119 778 b 122 785 119 782 121 783 b 128 789 125 786 126 788 b 132 804 133 794 133 800 b 131 811 132 808 131 811 b 111 819 126 818 119 819 b 101 818 108 819 106 819 l 101 822 b 96 839 103 831 100 835 b 75 843 92 843 85 843 b 63 835 68 842 65 839 b 60 829 61 833 60 831 b 46 832 56 833 50 833 b 31 818 40 831 35 826 b 29 804 26 814 28 808 l 32 799 b 35 796 33 799 33 797 l 38 793 b 35 792 36 793 35 793 b 21 779 26 789 22 785 b 28 760 19 774 22 768 z m 126 807 b 124 796 129 800 124 796 b 113 813 124 796 126 806 b 126 807 113 813 124 814 z "},"Æ":{"ha":822,"x_min":0,"x_max":0,"o":"m 47 -4 b 149 -3 71 -7 114 -11 b 157 13 156 0 158 7 b 147 121 151 36 144 81 b 167 242 149 140 156 185 b 374 244 206 244 310 249 b 358 13 375 133 363 42 b 361 1 353 10 356 1 l 365 1 l 367 0 b 450 -11 392 -8 422 -11 b 532 -4 482 -11 513 -7 b 783 0 632 -7 743 -6 b 801 207 782 0 800 140 b 792 210 801 213 794 215 b 539 51 764 156 682 22 b 525 367 540 51 519 332 b 600 364 524 367 588 381 b 638 292 610 350 625 317 b 649 293 640 286 647 288 b 658 543 653 347 664 471 b 646 544 657 549 649 550 b 572 426 635 503 610 429 b 522 426 572 426 543 421 b 519 817 522 426 508 796 b 644 808 519 817 603 821 b 749 649 682 797 731 719 b 760 649 750 643 760 643 b 775 847 767 703 776 797 b 756 865 775 857 767 864 b 444 871 654 878 551 876 b 364 883 419 881 392 883 b 251 868 315 883 269 874 b 242 860 246 868 243 864 b 165 489 229 824 200 656 b 93 129 131 322 100 158 b 39 14 81 78 53 38 b 47 -4 35 7 39 -3 z m 306 814 b 371 297 306 814 363 457 b 178 299 311 293 208 288 b 306 814 221 508 304 814 z m 758 824 b 747 800 758 824 764 799 b 735 824 747 800 736 801 b 713 853 733 843 713 853 b 758 824 713 853 757 851 z m 388 856 b 440 825 388 856 440 861 b 425 819 440 825 440 814 b 408 839 418 822 413 831 b 388 856 404 847 397 854 z "},"Œ":{"ha":893,"x_min":0,"x_max":0,"o":"m 272 4 b 465 197 374 3 432 97 b 467 67 467 125 468 74 b 429 13 465 58 467 38 b 432 1 425 10 426 1 b 854 0 510 -3 786 -11 b 872 207 854 0 871 140 b 863 210 874 213 865 215 b 611 51 835 156 753 22 b 596 367 611 51 592 332 b 643 372 596 367 621 372 b 672 364 656 372 668 371 b 710 292 682 350 703 319 b 719 293 711 286 719 288 b 729 543 725 347 736 471 b 718 544 729 549 719 550 b 643 426 707 503 681 429 b 593 426 643 426 614 421 b 590 817 594 426 581 796 b 717 808 590 817 674 821 b 819 649 753 797 803 719 b 832 649 822 643 832 643 b 846 847 832 703 849 797 b 828 865 846 857 838 864 b 632 875 764 875 699 875 b 421 864 563 875 492 871 b 413 847 413 864 407 854 b 447 769 425 832 440 804 b 261 867 411 828 353 868 b 35 447 261 867 28 849 b 272 4 33 446 22 1 z m 269 825 b 454 438 369 833 468 664 b 267 53 440 211 353 46 b 171 406 181 60 171 406 b 269 825 167 806 269 825 z m 831 824 b 819 800 831 824 835 799 b 807 824 819 800 808 801 b 783 853 806 843 783 853 b 831 824 783 853 828 851 z m 358 836 b 379 807 372 831 388 815 b 353 818 368 796 363 806 b 331 839 346 826 338 838 b 358 836 331 839 346 842 z "},"ß":{"ha":585,"x_min":0,"x_max":0,"o":"m 57 126 b 107 -3 57 126 58 -3 b 163 128 164 -3 163 128 b 172 631 163 253 168 474 b 242 822 172 631 174 819 b 317 682 326 825 317 682 b 201 394 313 514 226 419 b 199 381 199 392 197 386 b 247 328 204 356 218 328 b 268 333 254 328 261 329 b 357 365 289 346 324 365 b 408 338 376 365 394 358 b 357 99 408 338 474 210 b 286 60 357 99 319 60 b 247 89 271 60 257 67 b 221 147 242 101 244 149 b 197 104 196 146 197 104 b 306 0 201 -4 306 0 b 432 36 306 0 364 -6 b 546 226 482 67 540 122 b 314 424 558 451 314 424 b 421 613 404 486 419 607 b 239 875 421 613 463 878 b 53 635 53 871 53 635 b 57 126 51 467 54 246 z m 372 778 b 336 824 354 760 343 818 b 372 778 336 824 390 796 z "},"æ":{"ha":607,"x_min":0,"x_max":0,"o":"m 28 93 b 143 4 28 92 36 -11 b 222 63 182 10 207 35 b 228 26 225 36 228 26 b 364 -1 251 -12 333 -6 b 371 7 368 -1 371 3 b 426 1 388 3 406 0 b 578 193 426 1 564 0 b 575 201 579 196 578 199 b 486 242 564 213 539 243 b 476 232 481 240 476 236 b 426 43 478 192 481 39 l 425 43 b 364 271 365 42 365 182 b 365 304 364 282 364 293 b 576 314 469 293 549 307 b 588 326 582 315 586 321 b 425 589 613 604 425 590 b 328 542 425 589 375 588 b 172 589 271 597 172 590 b 21 400 46 581 24 435 b 25 383 19 394 21 388 b 129 351 47 361 85 350 b 136 363 136 351 138 358 b 128 388 133 369 129 378 b 186 550 122 424 128 547 b 244 432 224 551 240 501 b 182 326 242 403 226 361 b 28 93 117 275 18 213 z m 428 543 b 444 542 433 546 440 544 b 479 349 460 531 489 490 b 367 350 479 349 421 342 b 428 543 374 440 394 526 z m 203 281 b 243 325 219 294 232 310 b 232 222 242 290 236 256 b 225 161 229 199 226 179 b 169 81 214 103 189 81 b 142 106 157 81 146 90 b 203 281 132 149 153 233 z m 261 554 b 288 542 261 554 276 551 b 301 517 297 533 304 522 b 281 524 301 517 293 506 b 274 538 278 528 276 533 b 261 554 268 546 265 551 z m 510 542 b 521 517 519 535 528 522 b 501 533 513 510 506 522 b 490 551 499 542 493 549 b 510 542 490 551 501 549 z "},"œ":{"ha":715,"x_min":0,"x_max":0,"o":"m 43 263 b 240 3 43 261 44 -4 b 357 114 242 3 314 -1 b 514 1 381 53 426 -4 b 665 193 514 1 650 0 b 661 201 665 196 664 199 b 572 242 650 213 625 243 b 563 232 567 240 563 236 b 513 43 565 192 567 39 l 511 43 b 451 271 451 42 451 182 l 451 304 b 663 314 556 293 636 307 b 674 326 668 315 674 321 b 511 589 699 604 511 590 b 365 471 511 589 418 585 b 226 589 322 601 228 590 b 43 263 226 590 33 586 z m 239 543 b 329 313 239 543 336 547 b 249 47 322 64 249 47 b 161 272 189 43 161 119 b 239 543 160 390 190 540 z m 514 543 b 531 542 519 546 526 544 b 565 349 546 531 575 490 b 454 350 565 349 508 342 b 514 543 461 440 482 526 z m 300 549 b 314 522 310 542 321 529 b 293 533 306 514 299 522 b 278 554 289 542 283 551 b 300 549 278 554 290 554 z m 578 551 b 597 542 578 551 588 550 b 607 517 606 535 614 524 b 589 533 599 510 594 522 b 578 551 585 542 581 549 z "},"ø":{"ha":383,"x_min":0,"x_max":0,"o":"m 21 263 b 117 32 21 261 22 100 b 114 0 113 14 113 6 b 119 -4 115 -6 119 -4 b 139 18 124 -6 131 3 b 219 3 161 7 188 1 b 363 286 219 3 350 -6 b 332 499 367 388 353 454 b 336 518 335 507 336 513 b 328 544 339 533 336 542 b 313 532 324 546 318 540 b 206 589 267 597 206 589 b 21 263 204 590 11 586 z m 217 543 b 285 479 217 543 258 544 b 282 469 285 476 285 475 b 244 372 267 439 256 404 b 164 169 233 340 176 206 b 151 135 158 153 154 143 b 139 272 143 171 139 217 b 217 543 138 390 168 540 z m 194 140 b 207 169 201 160 199 149 b 301 414 239 250 271 332 b 307 313 306 388 308 353 b 226 47 299 64 226 47 b 169 82 203 46 183 57 b 194 140 178 99 186 118 z m 278 549 b 292 522 289 542 299 529 b 271 535 283 514 278 522 b 257 554 267 542 261 551 b 278 549 257 554 268 554 z "},"Ø":{"ha":518,"x_min":0,"x_max":0,"o":"m 114 75 b 103 19 104 40 103 29 b 107 10 103 10 107 10 b 139 49 113 8 121 14 b 258 4 169 21 208 4 b 496 431 475 1 496 429 b 439 763 494 429 517 633 b 446 788 442 772 443 779 b 442 832 454 813 450 826 b 413 799 436 836 424 817 b 249 867 376 840 324 868 b 21 447 249 867 14 849 b 114 75 21 446 14 200 z m 292 406 b 331 503 306 440 318 472 b 364 585 343 533 353 561 b 376 615 369 596 371 607 b 388 639 382 624 385 632 b 407 683 390 646 399 665 b 440 438 432 617 446 532 b 253 53 426 211 339 44 b 188 158 222 56 201 101 b 292 406 224 240 258 322 z m 256 825 b 382 736 301 829 347 796 b 379 731 381 735 381 732 b 347 661 375 721 353 674 b 332 626 342 650 338 639 b 324 607 329 619 326 613 l 314 586 b 242 411 289 532 265 471 b 172 236 222 361 193 288 b 157 406 160 321 157 406 b 256 825 153 806 256 825 z m 318 839 b 346 836 318 839 332 842 b 365 807 358 831 372 817 b 339 818 357 796 347 804 b 318 839 333 828 325 838 z "},"ç":{"ha":360,"x_min":0,"x_max":0,"o":"m 21 257 b 199 1 21 256 15 21 b 201 0 200 1 200 0 l 201 -1 b 200 -4 201 -1 201 -3 l 200 -7 b 192 -11 199 -8 197 -11 b 182 -14 190 -10 185 -10 b 181 -21 181 -15 179 -18 b 199 -31 181 -28 189 -32 l 203 -31 b 192 -53 203 -35 197 -53 b 189 -47 192 -53 189 -50 l 188 -44 b 186 -42 188 -43 186 -42 b 179 -35 185 -37 182 -36 l 175 -35 b 167 -44 171 -35 169 -37 b 167 -56 165 -47 167 -51 b 175 -68 168 -56 168 -64 b 193 -72 178 -68 183 -72 b 196 -74 194 -74 194 -74 b 232 -40 213 -74 232 -58 b 224 -15 232 -29 228 -21 b 225 -10 225 -14 225 -11 b 225 -1 226 -7 226 -4 b 336 92 307 1 336 90 b 300 151 342 115 324 151 b 292 146 296 151 293 150 b 229 46 261 56 231 47 b 138 271 172 44 140 151 b 210 546 135 389 161 542 b 256 494 240 549 249 532 b 250 458 258 479 253 467 b 258 446 249 453 253 447 b 332 472 293 446 321 461 b 338 488 336 476 339 482 b 197 589 328 600 199 589 b 21 257 197 590 11 583 z m 275 551 b 294 542 275 551 286 549 b 304 518 304 533 310 525 b 286 533 297 510 292 522 b 275 551 282 542 278 549 z "},"Ç":{"ha":501,"x_min":0,"x_max":0,"o":"m 24 435 b 251 7 24 432 42 29 b 254 3 251 6 253 4 l 254 -3 b 253 -6 254 -3 254 -4 b 243 -11 251 -8 250 -11 b 231 -15 240 -11 235 -11 b 228 -25 228 -18 226 -21 b 251 -39 228 -35 239 -40 b 257 -37 253 -39 256 -37 l 257 -39 b 250 -61 257 -39 254 -47 b 243 -68 249 -65 244 -68 b 238 -58 242 -68 239 -64 l 238 -57 b 236 -53 236 -56 236 -54 b 226 -44 233 -47 229 -44 b 221 -43 224 -43 222 -43 b 210 -57 215 -44 213 -47 b 211 -71 208 -61 210 -67 b 244 -96 211 -85 233 -94 l 249 -96 b 293 -58 269 -96 293 -82 b 294 -51 294 -56 294 -53 b 285 -18 296 -36 289 -25 b 286 -10 286 -15 286 -12 b 286 1 288 -6 288 -3 l 286 7 b 479 192 401 13 456 96 b 414 292 483 247 469 274 b 404 286 410 293 406 290 b 275 47 396 174 349 42 b 185 429 178 54 183 429 b 310 828 183 740 308 829 b 375 597 335 821 360 676 b 388 597 376 590 386 590 b 419 813 401 665 410 757 b 435 851 422 828 428 843 b 424 868 440 858 433 867 b 260 864 326 882 260 863 b 24 435 258 865 -11 810 z m 375 858 b 411 836 375 858 408 857 b 401 818 411 836 414 817 b 393 836 401 818 394 818 b 375 858 392 851 375 858 z "},"À":{"ha":553,"x_min":0,"x_max":0,"o":"m 31 -4 b 133 -3 54 -7 99 -11 b 140 13 139 0 142 7 b 132 121 135 36 129 81 b 150 242 132 140 139 185 b 357 244 190 244 293 249 b 343 13 358 133 350 42 b 350 0 342 7 346 3 b 432 -11 375 -8 404 -11 b 522 -3 468 -11 503 -6 b 532 13 529 -3 535 6 b 443 858 492 113 450 785 b 347 883 443 878 363 883 b 235 868 299 883 253 874 b 226 860 231 868 226 864 b 149 489 218 822 183 656 b 76 129 114 322 83 158 b 24 14 64 78 40 35 b 31 -4 18 7 22 -3 z m 161 299 b 289 814 204 508 289 814 b 356 297 289 814 347 457 b 161 299 296 293 193 288 z m 260 976 b 357 924 271 947 325 924 b 365 925 360 924 363 924 b 371 926 367 925 369 926 b 381 936 375 929 379 932 b 382 946 381 936 382 940 b 381 954 382 949 382 951 b 360 974 381 961 364 971 b 333 989 351 978 343 983 b 283 1017 315 1000 296 1013 b 275 1019 283 1017 279 1019 b 257 1013 269 1019 264 1019 b 260 976 257 1013 246 1001 z m 371 856 b 424 825 371 856 424 861 b 408 819 424 825 425 813 b 393 839 401 822 399 832 b 371 856 386 847 381 854 z m 276 1010 b 292 1000 288 1010 292 1000 b 265 999 292 1000 275 1008 b 276 1010 265 999 265 1010 z "},"Á":{"ha":553,"x_min":0,"x_max":0,"o":"m 31 -4 b 133 -3 54 -7 99 -11 b 140 13 139 0 142 7 b 132 121 135 36 129 81 b 150 242 132 140 139 185 b 357 244 190 244 293 249 b 343 13 358 133 350 42 b 350 0 342 7 346 3 b 432 -11 375 -8 404 -11 b 522 -3 468 -11 503 -6 b 532 13 529 -3 535 6 b 443 858 492 113 450 785 b 347 883 443 878 363 883 b 235 868 299 883 253 874 b 226 860 231 868 226 864 b 149 489 218 822 183 656 b 76 129 114 322 83 158 b 24 14 64 78 40 35 b 31 -4 18 7 22 -3 z m 161 299 b 289 814 204 508 289 814 b 356 297 289 814 347 457 b 161 299 296 293 193 288 z m 271 931 b 279 921 272 926 275 924 b 286 919 281 921 283 919 b 294 918 289 918 292 918 b 392 971 331 918 372 940 b 393 1007 404 996 393 1007 b 375 1014 388 1014 381 1014 b 367 1011 371 1014 367 1011 b 317 983 356 1007 335 996 b 292 968 308 978 299 972 b 275 957 283 964 278 960 b 268 940 271 953 268 947 b 271 931 268 935 271 931 z m 424 825 b 408 819 424 825 425 813 b 393 839 401 822 399 832 b 371 856 386 847 381 854 b 424 825 371 856 424 861 z m 386 1001 b 386 986 390 994 386 986 b 367 1001 386 986 383 1001 b 386 1001 367 1001 381 1008 z "},"Â":{"ha":553,"x_min":0,"x_max":0,"o":"m 31 -4 b 133 -3 54 -7 99 -11 b 140 13 139 0 142 7 b 132 121 135 36 129 81 b 150 242 132 140 139 185 b 357 244 190 244 293 249 b 343 13 358 133 350 42 b 350 0 342 7 346 3 b 432 -11 375 -8 404 -11 b 522 -3 468 -11 503 -6 b 532 13 529 -3 535 6 b 443 858 492 113 450 785 b 347 883 443 878 363 883 b 235 868 299 883 253 874 b 226 860 231 868 226 864 b 149 489 218 822 183 656 b 76 129 114 322 83 158 b 24 14 64 78 40 35 b 31 -4 18 7 22 -3 z m 289 814 b 356 297 289 814 347 457 b 161 299 296 293 193 288 b 289 814 204 508 289 814 z m 236 946 b 246 940 239 943 242 942 b 251 939 247 939 250 939 l 260 939 b 325 965 279 939 311 953 b 389 933 342 951 368 936 l 396 933 b 403 935 399 933 400 935 b 411 940 407 936 410 938 b 415 946 411 940 414 943 l 415 953 b 411 960 415 956 413 956 b 338 1011 408 965 346 1007 l 336 1013 b 326 1014 333 1014 329 1014 b 318 1013 324 1014 321 1014 b 315 1011 317 1013 315 1011 b 274 988 304 1007 290 996 b 251 975 265 983 258 979 b 238 967 246 971 240 968 l 233 958 l 233 953 b 236 946 235 949 236 946 z m 424 825 b 408 819 424 825 425 813 b 393 839 401 822 399 832 b 371 856 386 847 381 854 b 424 825 371 856 424 861 z m 306 994 b 328 1004 306 994 317 1004 b 347 994 338 1004 347 994 b 306 994 347 994 325 1000 z "},"Ã":{"ha":553,"x_min":0,"x_max":0,"o":"m 31 -4 b 133 -3 54 -7 99 -11 b 140 13 139 0 142 7 b 132 121 135 36 129 81 b 150 242 132 140 139 185 b 357 244 190 244 293 249 b 343 13 358 133 350 42 b 350 0 342 7 346 3 b 432 -11 375 -8 404 -11 b 522 -3 468 -11 503 -6 b 532 13 529 -3 535 6 b 443 858 492 113 450 785 b 347 883 443 878 363 883 b 235 868 299 883 253 874 b 226 860 231 868 226 864 b 149 489 218 822 183 656 b 76 129 114 322 83 158 b 24 14 64 78 40 35 b 31 -4 18 7 22 -3 z m 161 299 b 289 814 204 508 289 814 b 356 297 289 814 347 457 b 161 299 296 293 193 288 z m 238 963 b 297 926 251 933 275 926 b 363 939 326 926 354 939 b 397 924 383 940 383 922 b 407 947 413 925 407 947 b 356 985 401 976 379 985 b 308 976 338 985 321 981 b 242 1000 279 967 265 1006 b 238 963 217 994 238 963 z m 371 856 b 424 825 371 856 424 861 b 408 819 424 825 425 813 b 393 839 401 822 399 832 b 371 856 386 847 381 854 z m 250 989 b 265 979 260 989 265 979 b 242 983 265 979 254 985 b 250 989 242 983 242 989 z "},"Ä":{"ha":553,"x_min":0,"x_max":0,"o":"m 31 -4 b 133 -3 54 -7 99 -11 b 140 13 139 0 142 7 b 132 121 135 36 129 81 b 150 242 132 140 139 185 b 357 244 190 244 293 249 b 343 13 358 133 350 42 b 350 0 342 7 346 3 b 432 -11 375 -8 404 -11 b 522 -3 468 -11 503 -6 b 532 13 529 -3 535 6 b 443 858 492 113 450 785 b 347 883 443 878 363 883 b 235 868 299 883 253 874 b 226 860 231 868 226 864 b 149 489 218 822 183 656 b 76 129 114 322 83 158 b 24 14 64 78 40 35 b 31 -4 18 7 22 -3 z m 161 299 b 289 814 204 508 289 814 b 356 297 289 814 347 457 b 161 299 296 293 193 288 z m 393 928 b 426 965 413 929 428 946 b 388 997 425 983 408 999 b 354 960 368 996 354 979 b 393 928 356 942 374 926 z m 244 967 b 282 935 246 947 263 933 b 315 971 303 936 317 951 b 278 1003 315 990 297 1004 b 244 967 258 1001 243 986 z m 424 825 b 408 819 424 825 425 813 b 393 839 401 822 399 832 b 371 856 386 847 381 854 b 424 825 371 856 424 861 z m 265 981 b 281 993 265 981 268 993 b 296 983 294 993 296 983 b 265 981 296 983 276 989 z m 396 986 b 411 978 408 986 411 978 b 379 974 411 978 392 982 b 396 986 379 974 382 986 z "},"Å":{"ha":553,"x_min":0,"x_max":0,"o":"m 31 -4 b 133 -3 54 -7 99 -11 b 140 13 139 0 142 7 b 132 121 135 36 129 81 b 150 242 132 140 139 185 b 357 244 190 244 293 249 b 343 13 358 133 350 42 b 350 0 342 7 346 3 b 432 -11 375 -8 404 -11 b 522 -3 468 -11 503 -6 b 532 13 529 -3 535 6 b 443 858 492 113 450 785 b 347 883 443 878 363 883 b 235 868 299 883 253 874 b 226 860 231 868 226 864 b 149 489 218 822 183 656 b 76 129 114 322 83 158 b 24 14 64 78 40 35 b 31 -4 18 7 22 -3 z m 161 299 b 289 814 204 508 289 814 b 356 297 289 814 347 457 b 161 299 296 293 193 288 z m 326 926 b 369 968 350 926 369 946 b 326 1010 369 990 350 1010 b 283 968 303 1010 283 990 b 326 926 283 946 303 926 z m 424 825 b 408 819 424 825 425 813 b 393 839 401 822 399 832 b 371 856 386 847 381 854 b 424 825 371 856 424 861 z m 326 985 b 343 968 336 985 343 978 b 326 951 343 958 336 951 b 308 968 317 951 308 958 b 326 985 308 978 317 985 z m 329 1001 b 343 992 342 1000 343 992 b 311 994 343 992 332 996 b 329 1001 311 994 315 1001 z "},"È":{"ha":504,"x_min":0,"x_max":0,"o":"m 24 847 b 61 740 38 828 60 790 b 76 67 64 664 81 92 b 40 13 75 58 81 32 b 43 1 35 10 38 1 b 465 0 121 -3 396 -11 b 483 207 465 0 482 140 b 474 210 483 213 476 215 b 222 51 446 156 364 22 b 207 367 222 51 201 332 b 282 364 207 367 269 381 b 321 292 293 350 314 319 b 331 293 322 286 329 288 b 340 543 335 347 346 471 b 329 544 339 549 331 550 b 254 426 318 503 292 429 b 204 426 254 426 225 421 b 201 817 204 426 190 796 b 328 808 201 817 285 821 b 431 649 364 797 413 719 b 442 650 432 643 442 643 b 457 847 449 703 458 797 b 439 865 457 857 449 864 b 243 875 375 875 310 875 b 32 864 174 875 103 871 b 24 847 22 864 18 854 z m 185 976 b 282 924 196 947 250 924 b 290 925 285 924 288 924 b 296 926 292 925 294 926 b 306 936 300 929 304 932 b 307 946 306 936 307 940 b 306 954 307 949 307 951 b 285 974 306 961 289 971 b 258 989 276 978 268 983 b 208 1017 240 1000 221 1013 b 200 1019 208 1017 204 1019 b 182 1013 194 1019 189 1019 b 185 976 182 1013 171 1001 z m 440 824 b 429 800 440 824 446 799 b 418 824 429 800 419 801 b 394 853 415 843 394 853 b 440 824 394 853 439 851 z m 190 999 b 201 1010 190 999 190 1010 b 217 1000 213 1010 217 1000 b 190 999 217 1000 200 1008 z "},"É":{"ha":504,"x_min":0,"x_max":0,"o":"m 24 847 b 61 740 38 828 60 790 b 76 67 64 664 81 92 b 40 13 75 58 81 32 b 43 1 35 10 38 1 b 465 0 121 -3 396 -11 b 483 207 465 0 482 140 b 474 210 483 213 476 215 b 222 51 446 156 364 22 b 207 367 222 51 201 332 b 282 364 207 367 269 381 b 321 292 293 350 314 319 b 331 293 322 286 329 288 b 340 543 335 347 346 471 b 329 544 339 549 331 550 b 254 426 318 503 292 429 b 204 426 254 426 225 421 b 201 817 204 426 190 796 b 328 808 201 817 285 821 b 431 649 364 797 413 719 b 442 650 432 643 442 643 b 457 847 449 703 458 797 b 439 865 457 857 449 864 b 243 875 375 875 310 875 b 32 864 174 875 103 871 b 24 847 22 864 18 854 z m 190 938 b 199 928 192 933 194 931 b 206 926 200 928 203 926 b 214 925 208 925 211 925 b 311 978 250 925 292 947 b 313 1014 324 1003 313 1014 b 294 1021 307 1021 300 1021 b 286 1018 290 1021 286 1018 b 236 990 275 1014 254 1003 b 211 975 228 985 218 979 b 194 964 203 971 197 967 b 188 947 190 960 188 954 b 190 938 188 942 190 938 z m 440 824 b 429 800 440 824 446 799 b 418 824 429 800 419 801 b 394 853 415 843 394 853 b 440 824 394 853 439 851 z m 306 1008 b 306 993 310 1001 306 993 b 286 1008 306 993 303 1008 b 306 1008 286 1008 300 1015 z "},"Ê":{"ha":504,"x_min":0,"x_max":0,"o":"m 24 847 b 61 740 38 828 60 790 b 76 67 64 664 81 92 b 40 13 75 58 81 32 b 43 1 35 10 38 1 b 465 0 121 -3 396 -11 b 483 207 465 0 482 140 b 474 210 483 213 476 215 b 222 51 446 156 364 22 b 207 367 222 51 201 332 b 282 364 207 367 269 381 b 321 292 293 350 314 319 b 331 293 322 286 329 288 b 340 543 335 347 346 471 b 329 544 339 549 331 550 b 254 426 318 503 292 429 b 204 426 254 426 225 421 b 201 817 204 426 190 796 b 328 808 201 817 285 821 b 431 649 364 797 413 719 b 442 650 432 643 442 643 b 457 847 449 703 458 797 b 439 865 457 857 449 864 b 243 875 375 875 310 875 b 32 864 174 875 103 871 b 24 847 22 864 18 854 z m 164 953 l 164 947 b 167 940 165 943 167 940 b 176 935 169 938 172 936 b 182 933 178 933 181 933 l 190 933 b 256 960 210 933 242 947 b 319 928 272 946 299 931 l 326 928 b 333 929 329 928 331 929 b 342 935 338 931 340 932 b 346 940 342 935 344 938 l 346 947 b 342 954 346 950 343 950 b 268 1006 339 960 276 1001 l 267 1007 b 257 1008 264 1008 260 1008 b 249 1007 254 1008 251 1008 b 246 1006 247 1007 246 1006 b 204 982 235 1001 221 990 b 182 969 196 978 189 974 b 168 961 176 965 171 963 z m 394 853 b 440 824 394 853 439 851 b 429 800 440 824 446 799 b 418 824 429 800 419 801 b 394 853 415 843 394 853 z m 258 999 b 278 989 268 999 278 989 b 236 989 278 989 256 994 b 258 999 236 989 247 999 z "},"Ë":{"ha":504,"x_min":0,"x_max":0,"o":"m 24 847 b 61 740 38 828 60 790 b 76 67 64 664 81 92 b 40 13 75 58 81 32 b 43 1 35 10 38 1 b 465 0 121 -3 396 -11 b 483 207 465 0 482 140 b 474 210 483 213 476 215 b 222 51 446 156 364 22 b 207 367 222 51 201 332 b 282 364 207 367 269 381 b 321 292 293 350 314 319 b 331 293 322 286 329 288 b 340 543 335 347 346 471 b 329 544 339 549 331 550 b 254 426 318 503 292 429 b 204 426 254 426 225 421 b 201 817 204 426 190 796 b 328 808 201 817 285 821 b 431 649 364 797 413 719 b 442 650 432 643 442 643 b 457 847 449 703 458 797 b 439 865 457 857 449 864 b 243 875 375 875 310 875 b 32 864 174 875 103 871 b 24 847 22 864 18 854 z m 304 922 b 338 960 324 924 339 940 b 299 992 336 978 319 993 b 265 954 279 990 265 974 b 304 922 267 936 285 921 z m 156 961 b 193 929 157 942 174 928 b 226 965 214 931 228 946 b 189 997 226 985 208 999 b 156 961 169 996 154 981 z m 394 853 b 440 824 394 853 439 851 b 429 800 440 824 446 799 b 418 824 429 800 419 801 b 394 853 415 843 394 853 z m 192 988 b 207 978 206 988 207 978 b 176 975 207 978 188 983 b 192 988 176 975 179 988 z m 307 981 b 322 972 319 981 322 972 b 290 968 322 972 303 976 b 307 981 290 968 293 981 z "},"Ì":{"ha":307,"x_min":0,"x_max":0,"o":"m 22 856 b 71 751 72 826 71 751 b 76 421 71 751 82 456 l 76 419 b 81 50 78 410 92 83 b 65 10 75 33 71 19 b 72 -4 61 3 65 -4 b 238 -3 128 -6 185 -6 b 243 8 243 -3 246 3 b 211 122 233 28 210 67 b 236 768 211 131 217 651 b 282 847 238 776 240 819 b 276 864 290 853 286 863 b 24 861 178 878 89 868 b 22 856 21 861 19 857 z m 100 976 b 197 924 111 947 165 924 b 206 925 200 924 203 924 b 211 926 207 925 210 926 b 221 936 215 929 219 932 b 222 946 221 936 222 940 b 221 954 222 949 222 951 b 200 974 221 961 204 971 b 174 989 192 978 183 983 b 124 1017 156 1000 136 1013 b 115 1019 124 1017 119 1019 b 97 1013 110 1019 104 1019 b 100 976 97 1013 86 1001 z m 222 814 b 210 792 222 814 226 790 b 199 815 210 792 200 792 b 175 844 196 833 175 844 b 222 814 175 844 219 842 z m 106 999 b 117 1010 106 999 106 1010 b 132 1000 128 1010 132 1000 b 106 999 132 1000 115 1008 z "},"Í":{"ha":307,"x_min":0,"x_max":0,"o":"m 22 856 b 71 751 72 826 71 751 b 76 421 71 751 82 456 l 76 419 b 81 50 78 410 92 83 b 65 10 75 33 71 19 b 72 -4 61 3 65 -4 b 238 -3 128 -6 185 -6 b 243 8 243 -3 246 3 b 211 122 233 28 210 67 b 236 768 211 131 217 651 b 282 847 238 776 240 819 b 276 864 290 853 286 863 b 24 861 178 878 89 868 b 22 856 21 861 19 857 z m 72 932 b 75 922 72 926 75 922 b 83 913 76 918 79 915 b 90 911 85 913 88 911 b 99 910 93 910 96 910 b 196 963 135 910 176 932 b 197 999 208 988 197 999 b 179 1006 192 1006 185 1006 b 171 1003 175 1006 171 1003 b 121 975 160 999 139 988 b 96 960 113 969 103 964 b 79 949 88 956 82 951 b 72 932 75 944 72 939 z m 175 844 b 222 814 175 844 219 842 b 210 792 222 814 226 790 b 199 815 210 792 200 792 b 175 844 196 833 175 844 z m 171 993 b 190 993 171 993 186 1000 b 190 978 194 986 190 978 b 171 993 190 978 188 993 z "},"Î":{"ha":307,"x_min":0,"x_max":0,"o":"m 22 856 b 71 751 72 826 71 751 b 76 421 71 751 82 456 l 76 419 b 81 50 78 410 92 83 b 65 10 75 33 71 19 b 72 -4 61 3 65 -4 b 238 -3 128 -6 185 -6 b 243 8 243 -3 246 3 b 211 122 233 28 210 67 b 236 768 211 131 217 651 b 282 847 238 776 240 819 b 276 864 290 853 286 863 b 24 861 178 878 89 868 b 22 856 21 861 19 857 z m 58 924 b 68 918 61 921 64 919 b 74 917 69 917 72 917 l 82 917 b 147 943 101 917 133 931 b 211 911 164 929 190 914 l 218 911 b 225 913 221 911 222 913 b 233 918 229 914 232 915 b 238 924 233 918 236 921 l 238 931 b 233 938 238 933 235 933 b 160 989 231 943 168 985 l 158 990 b 149 992 156 992 151 992 b 140 990 146 992 143 992 b 138 989 139 990 138 989 b 96 965 126 985 113 974 b 74 953 88 961 81 957 b 60 944 68 949 63 946 l 56 936 l 56 931 b 58 924 57 926 58 924 z m 222 814 b 210 792 222 814 226 790 b 199 815 210 792 200 792 b 175 844 196 833 175 844 b 222 814 175 844 219 842 z m 128 972 b 150 982 128 972 139 982 b 169 972 160 982 169 972 b 128 972 169 972 147 978 z "},"Ï":{"ha":307,"x_min":0,"x_max":0,"o":"m 22 856 b 71 751 72 826 71 751 b 76 421 71 751 82 456 l 76 419 b 81 50 78 410 92 83 b 65 10 75 33 71 19 b 72 -4 61 3 65 -4 b 238 -3 128 -6 185 -6 b 243 8 243 -3 246 3 b 211 122 233 28 210 67 b 236 768 211 131 217 651 b 282 847 238 776 240 819 b 276 864 290 853 286 863 b 24 861 178 878 89 868 b 22 856 21 861 19 857 z m 197 918 b 231 956 217 919 232 936 b 192 988 229 974 213 989 b 158 950 172 986 158 969 b 197 918 160 932 178 917 z m 49 957 b 86 925 50 938 67 924 b 119 961 107 926 121 942 b 82 993 119 981 101 994 b 49 957 63 992 47 976 z m 222 814 b 210 792 222 814 226 790 b 199 815 210 792 200 792 b 175 844 196 833 175 844 b 222 814 175 844 219 842 z m 69 971 b 85 983 69 971 72 983 b 100 974 99 983 100 974 b 69 971 100 974 81 979 z m 200 976 b 215 968 213 976 215 968 b 183 964 215 968 196 972 b 200 976 183 964 186 976 z "},"Ñ":{"ha":607,"x_min":0,"x_max":0,"o":"m 225 793 b 213 815 225 793 215 793 b 190 846 210 835 190 846 b 236 815 190 846 235 843 b 225 793 236 815 242 792 z m 224 1000 b 232 1006 224 1000 224 1006 b 247 996 242 1006 247 996 b 224 1000 247 996 236 1001 z m 582 868 b 447 867 556 871 490 878 b 444 863 446 867 444 864 b 475 731 451 850 478 844 b 463 193 474 663 464 358 b 243 865 435 407 261 832 b 240 869 243 868 242 868 b 25 864 193 879 78 874 b 22 857 21 864 19 860 b 67 740 38 842 67 800 b 71 94 68 732 83 213 b 26 7 69 86 71 35 b 29 -3 22 4 24 -3 b 254 3 118 -7 196 -3 b 256 8 257 4 257 7 b 215 114 214 38 215 111 b 210 442 215 119 207 381 b 210 560 210 442 211 496 b 363 22 300 357 342 164 b 378 6 364 14 369 7 b 525 -1 403 1 463 -11 b 528 7 529 -1 531 4 b 511 64 514 21 510 40 b 549 771 518 183 525 676 b 585 860 561 826 576 850 b 582 868 588 863 586 867 z m 290 993 b 224 1017 261 983 247 1022 b 219 979 199 1011 219 979 b 279 943 233 950 257 943 b 344 956 308 943 336 956 b 379 940 365 957 365 938 b 389 964 394 943 389 964 b 338 1003 383 993 361 1003 b 290 993 319 1003 303 997 z "},"Ò":{"ha":518,"x_min":0,"x_max":0,"o":"m 258 4 b 496 431 475 3 496 429 b 249 867 494 429 542 874 b 21 447 249 867 14 849 b 258 4 21 446 10 1 z m 256 825 b 440 438 356 833 453 664 b 253 53 428 211 339 46 b 157 406 167 60 157 406 b 256 825 153 806 256 825 z m 197 961 b 294 908 208 932 263 908 b 303 910 297 908 300 908 b 308 911 304 910 307 911 b 318 921 313 914 317 917 b 319 931 318 921 319 925 b 318 939 319 933 319 936 b 297 958 318 946 301 956 b 271 974 289 963 281 968 b 221 1001 253 985 233 997 b 213 1004 221 1001 217 1004 b 194 997 207 1004 201 1004 b 197 961 194 997 183 986 z m 318 839 b 346 836 318 839 332 842 b 365 807 358 831 372 817 b 339 818 357 796 347 806 b 318 839 333 826 325 838 z m 214 994 b 229 985 225 994 229 985 b 203 983 229 985 213 993 b 214 994 203 983 203 994 z "},"Ó":{"ha":518,"x_min":0,"x_max":0,"o":"m 258 4 b 496 431 475 3 496 429 b 249 867 494 429 542 874 b 21 447 249 867 14 849 b 258 4 21 446 10 1 z m 256 825 b 440 438 356 833 453 664 b 253 53 428 211 339 46 b 157 406 167 60 157 406 b 256 825 153 806 256 825 z m 199 907 b 207 897 200 903 203 900 b 214 896 208 897 211 896 b 222 894 217 894 219 894 b 319 947 258 894 300 917 b 321 983 332 972 321 983 b 303 990 315 990 308 990 b 294 988 299 990 294 988 b 244 960 283 983 263 972 b 219 944 236 954 226 949 b 203 933 211 940 206 936 b 196 917 199 929 196 924 b 199 907 196 911 199 907 z m 318 839 b 346 836 318 839 332 842 b 365 807 358 831 372 817 b 339 818 357 796 347 806 b 318 839 333 826 325 838 z m 314 978 b 314 963 318 971 314 963 b 294 978 314 963 311 978 b 314 978 294 978 308 985 z "},"Ô":{"ha":518,"x_min":0,"x_max":0,"o":"m 258 4 b 496 431 475 3 496 429 b 249 867 494 429 542 874 b 21 447 249 867 14 849 b 258 4 21 446 10 1 z m 256 825 b 440 438 356 833 453 664 b 253 53 428 211 339 46 b 157 406 167 60 157 406 b 256 825 153 806 256 825 z m 176 913 b 179 906 178 908 179 906 b 189 900 182 903 185 901 b 194 899 190 899 193 899 l 203 899 b 268 925 222 899 254 913 b 332 893 285 911 311 896 l 339 893 b 346 894 342 893 343 894 b 354 900 350 896 353 897 b 358 906 354 900 357 903 l 358 913 b 354 919 358 915 356 915 b 281 971 351 925 289 967 l 279 972 b 269 974 276 974 272 974 b 261 972 267 974 264 974 b 258 971 260 972 258 971 b 217 947 247 967 233 956 b 194 935 208 943 201 939 b 181 926 189 931 183 928 l 176 918 z m 346 836 b 365 807 358 831 372 817 b 339 818 357 796 347 806 b 318 839 333 826 325 838 b 346 836 318 839 332 842 z m 271 964 b 290 954 281 964 290 954 b 249 954 290 954 268 960 b 271 964 249 954 260 964 z "},"Õ":{"ha":518,"x_min":0,"x_max":0,"o":"m 258 4 b 496 431 475 3 496 429 b 249 867 494 429 542 874 b 21 447 249 867 14 849 b 258 4 21 446 10 1 z m 256 825 b 440 438 356 833 453 664 b 253 53 428 211 339 46 b 157 406 167 60 157 406 b 256 825 153 806 256 825 z m 178 944 b 238 908 192 915 215 908 b 303 921 267 908 294 921 b 338 906 324 922 324 904 b 347 929 353 907 347 929 b 296 967 342 958 319 967 b 249 958 278 967 261 963 b 182 982 219 949 206 988 b 178 944 157 976 178 944 z m 318 839 b 346 836 318 839 332 842 b 365 807 358 831 372 817 b 339 818 357 796 347 806 b 318 839 333 826 325 838 z m 182 965 b 190 971 182 965 182 971 b 206 961 200 971 206 961 b 182 965 206 961 194 967 z "},"Ö":{"ha":518,"x_min":0,"x_max":0,"o":"m 258 4 b 496 431 475 3 496 429 b 249 867 494 429 542 874 b 21 447 249 867 14 849 b 258 4 21 446 10 1 z m 256 825 b 440 438 356 833 453 664 b 253 53 428 211 339 46 b 157 406 167 60 157 406 b 256 825 153 806 256 825 z m 279 944 b 318 913 281 926 299 911 b 351 950 338 914 353 931 b 313 982 350 968 333 983 b 279 944 293 981 279 964 z m 169 951 b 207 919 171 932 188 918 b 240 956 228 921 242 936 b 203 988 240 975 222 989 b 169 951 183 986 168 971 z m 318 839 b 346 836 318 839 332 842 b 365 807 358 831 372 817 b 339 818 357 796 347 806 b 318 839 333 826 325 838 z m 206 978 b 221 968 219 978 221 968 b 190 965 221 968 201 974 b 206 978 190 965 193 978 z m 321 971 b 336 963 333 971 336 963 b 304 958 336 963 317 967 b 321 971 304 958 307 971 z "},"Ù":{"ha":531,"x_min":0,"x_max":0,"o":"m 24 842 b 51 757 36 825 49 797 b 60 239 51 757 58 338 b 233 3 61 142 86 3 b 436 269 381 4 431 186 b 467 714 444 385 444 621 b 510 849 482 778 503 824 b 494 869 513 858 506 868 b 399 871 471 872 432 875 b 382 846 386 868 378 857 b 403 672 392 819 404 761 b 263 111 397 543 342 104 b 190 426 263 111 175 82 b 226 833 190 426 199 739 b 207 867 231 847 222 863 b 119 878 178 875 149 878 b 38 869 92 878 65 875 b 24 842 24 867 17 853 z m 242 968 b 339 915 253 939 307 915 b 347 917 342 915 344 915 b 353 918 349 917 351 918 b 363 928 357 921 361 924 b 364 938 363 928 364 932 b 363 946 364 940 364 943 b 342 965 363 953 346 963 b 315 981 333 969 325 975 b 265 1008 297 992 278 1004 b 257 1011 265 1008 261 1011 b 239 1004 251 1011 246 1011 b 242 968 239 1004 228 993 z m 200 828 b 192 811 200 828 204 810 b 182 829 192 811 183 811 b 165 851 181 843 165 851 b 200 828 165 851 199 850 z m 258 1001 b 274 992 269 1001 274 992 b 247 990 274 992 257 1000 b 258 1001 247 990 247 1001 z "},"Ú":{"ha":531,"x_min":0,"x_max":0,"o":"m 24 842 b 51 757 36 825 49 797 b 60 239 51 757 58 338 b 233 3 61 142 86 3 b 436 269 381 4 431 186 b 467 714 444 385 444 621 b 510 849 482 778 503 824 b 494 869 513 858 506 868 b 399 871 471 872 432 875 b 382 846 386 868 378 857 b 403 672 392 819 404 761 b 263 111 397 543 342 104 b 190 426 263 111 175 82 b 226 833 190 426 199 739 b 207 867 231 847 222 863 b 119 878 178 875 149 878 b 38 869 92 878 65 875 b 24 842 24 867 17 853 z m 232 931 b 240 921 233 926 236 924 b 247 919 242 921 244 919 b 256 918 250 918 253 918 b 353 971 292 918 333 940 b 354 1007 365 996 354 1007 b 336 1014 349 1014 342 1014 b 328 1011 332 1014 328 1011 b 278 983 317 1007 296 996 b 253 968 269 978 260 972 b 236 957 244 964 239 960 b 229 940 232 953 229 947 b 232 931 229 935 232 931 z m 165 851 b 200 828 165 851 199 850 b 192 811 200 828 204 810 b 182 829 192 811 183 811 b 165 851 181 843 165 851 z m 328 1001 b 347 1001 328 1001 343 1008 b 347 986 351 994 347 986 b 328 1001 347 986 344 1001 z "},"Û":{"ha":531,"x_min":0,"x_max":0,"o":"m 24 842 b 51 757 36 825 49 797 b 60 239 51 757 58 338 b 233 3 61 142 86 3 b 436 269 381 4 431 186 b 467 714 444 385 444 621 b 510 849 482 778 503 824 b 494 869 513 858 506 868 b 399 871 471 872 432 875 b 382 846 386 868 378 857 b 403 672 392 819 404 761 b 263 111 397 543 342 104 b 190 426 263 111 175 82 b 226 833 190 426 199 739 b 207 867 231 847 222 863 b 119 878 178 875 149 878 b 38 869 92 878 65 875 b 24 842 24 867 17 853 z m 192 960 l 192 954 b 194 947 193 950 194 947 b 204 942 197 944 200 943 b 210 940 206 940 208 940 l 218 940 b 283 967 238 940 269 954 b 347 935 300 953 326 938 l 354 935 b 361 936 357 935 358 936 b 369 942 365 938 368 939 b 374 947 369 942 372 944 l 374 954 b 369 961 374 957 371 957 b 296 1013 367 967 304 1008 l 294 1014 b 285 1015 292 1015 288 1015 b 276 1014 282 1015 279 1015 b 274 1013 275 1014 274 1013 b 232 989 263 1008 249 997 b 210 976 224 985 217 981 b 196 968 204 972 199 969 z m 200 828 b 192 811 200 828 204 810 b 182 829 192 811 183 811 b 165 851 181 843 165 851 b 200 828 165 851 199 850 z m 264 996 b 286 1006 264 996 275 1006 b 306 996 296 1006 306 996 b 264 996 306 996 283 1001 z "},"Ü":{"ha":531,"x_min":0,"x_max":0,"o":"m 24 842 b 51 757 36 825 49 797 b 60 239 51 757 58 338 b 233 3 61 142 86 3 b 436 269 381 4 431 186 b 467 714 444 385 444 621 b 510 849 482 778 503 824 b 494 869 513 858 506 868 b 399 871 471 872 432 875 b 382 846 386 868 378 857 b 403 672 392 819 404 761 b 263 111 397 543 342 104 b 190 426 263 111 175 82 b 226 833 190 426 199 739 b 207 867 231 847 222 863 b 119 878 178 875 149 878 b 38 869 92 878 65 875 b 24 842 24 867 17 853 z m 339 925 b 372 963 358 926 374 943 b 333 994 371 981 354 996 b 300 957 314 993 300 976 b 339 925 301 939 319 924 z m 190 964 b 228 932 192 944 208 931 b 261 968 249 933 263 949 b 224 1000 261 988 243 1001 b 190 964 204 999 189 983 z m 165 851 b 200 828 165 851 199 850 b 192 811 200 828 204 810 b 182 829 192 811 183 811 b 165 851 181 843 165 851 z m 211 978 b 226 990 211 978 214 990 b 242 981 240 990 242 981 b 211 978 242 981 222 986 z m 342 983 b 357 975 354 983 357 975 b 325 971 357 975 338 979 b 342 983 325 971 328 983 z "},"Ÿ":{"ha":692,"x_min":0,"x_max":0,"o":"m 25 844 b 86 783 49 829 72 807 b 258 389 99 767 185 572 b 257 54 260 303 267 81 b 238 8 250 35 244 19 b 243 0 235 4 238 0 b 413 1 300 -3 358 -3 b 418 11 418 1 421 7 b 385 125 406 29 383 71 l 385 126 b 388 426 385 131 385 271 b 594 775 478 586 576 747 b 667 843 618 811 649 832 b 665 858 674 847 672 856 b 501 869 613 879 533 875 b 494 857 494 869 492 863 b 508 818 507 832 508 818 b 372 524 515 789 447 663 b 265 785 314 656 264 768 b 296 857 268 813 282 842 b 289 874 300 864 296 872 b 182 883 268 878 231 883 b 29 863 139 883 88 879 b 25 844 19 860 18 850 z m 399 956 b 438 924 400 938 418 922 b 471 961 457 925 472 942 b 432 993 469 979 453 994 b 399 956 413 992 399 975 z m 289 963 b 326 931 290 943 307 929 b 360 967 347 932 361 947 b 322 999 360 986 342 1000 b 289 963 303 997 288 982 z m 218 861 b 254 838 218 861 253 860 b 246 821 254 838 258 819 b 236 839 246 821 238 821 b 218 861 235 853 218 861 z m 310 976 b 325 989 310 976 313 989 b 340 979 339 989 340 979 b 310 976 340 979 321 985 z m 424 969 b 440 982 424 969 426 982 b 456 974 453 982 456 974 b 424 969 456 974 436 978 z "},"Ý":{"ha":692,"x_min":0,"x_max":0,"o":"m 25 844 b 86 783 49 829 72 807 b 258 389 99 767 185 572 b 257 54 260 303 267 81 b 238 8 250 35 244 19 b 243 0 235 4 238 0 b 413 1 300 -3 358 -3 b 418 11 418 1 421 7 b 385 125 406 29 383 71 l 385 126 b 388 426 385 131 385 271 b 594 775 478 586 576 747 b 667 843 618 811 649 832 b 665 858 674 847 672 856 b 501 869 613 879 533 875 b 494 857 494 869 492 863 b 508 818 507 832 508 818 b 372 524 515 789 447 663 b 265 785 314 656 264 768 b 296 857 268 813 282 842 b 289 874 300 864 296 872 b 182 883 268 878 231 883 b 29 863 139 883 88 879 b 25 844 19 860 18 850 z m 313 926 b 321 917 314 922 317 919 b 328 915 322 917 325 915 b 336 914 331 914 333 914 b 433 967 372 914 414 936 b 435 1003 446 992 435 1003 b 417 1010 429 1010 422 1010 b 408 1007 413 1010 408 1007 b 358 979 397 1003 376 992 b 333 964 350 974 340 968 b 317 953 325 960 319 956 b 310 936 313 949 310 943 b 313 926 310 931 313 926 z m 218 861 b 254 838 218 861 253 860 b 246 821 254 838 258 819 b 236 839 246 821 238 821 b 218 861 235 853 218 861 z m 408 997 b 428 997 408 997 424 1004 b 428 982 432 990 428 982 b 408 997 428 982 425 997 z "},"à":{"ha":404,"x_min":0,"x_max":0,"o":"m 40 93 b 157 4 40 92 50 -11 b 236 63 194 10 219 35 b 242 26 238 36 242 26 b 376 -1 265 -12 346 -6 b 383 8 382 -1 385 4 b 379 419 363 69 379 419 b 186 589 396 606 186 590 b 33 400 58 581 36 435 b 39 383 33 394 35 388 b 143 351 60 363 99 350 b 150 363 149 353 153 358 b 142 388 146 369 142 378 b 199 550 138 424 142 549 b 258 432 238 551 254 501 b 196 326 254 403 240 361 b 40 93 129 275 32 213 z m 217 281 b 257 325 232 294 246 310 b 246 222 254 290 251 256 b 239 161 242 199 240 179 b 182 81 228 103 201 81 b 154 106 169 81 158 90 b 217 281 146 149 165 233 z m 174 689 b 271 636 185 660 239 636 b 279 638 274 636 276 636 b 285 639 281 638 283 639 b 294 649 289 642 293 644 b 296 658 294 649 296 653 b 294 667 296 661 296 664 b 274 686 294 674 278 683 b 247 701 265 690 257 696 b 197 729 229 713 210 725 b 189 732 197 729 193 732 b 171 725 183 732 178 732 b 174 689 171 725 160 714 z m 313 540 b 326 515 322 532 329 521 b 306 522 326 515 321 507 b 299 536 301 526 301 532 b 286 553 293 544 290 550 b 313 540 286 553 300 549 z m 190 722 b 206 713 201 722 206 713 b 179 711 206 713 189 721 b 190 722 179 711 179 722 z "},"á":{"ha":404,"x_min":0,"x_max":0,"o":"m 40 93 b 157 4 40 92 50 -11 b 236 63 194 10 219 35 b 242 26 238 36 242 26 b 376 -1 265 -12 346 -6 b 383 8 382 -1 385 4 b 379 419 363 69 379 419 b 186 589 396 606 186 590 b 33 400 58 581 36 435 b 39 383 33 394 35 388 b 143 351 60 363 99 350 b 150 363 149 353 153 358 b 142 388 146 369 142 378 b 199 550 138 424 142 549 b 258 432 238 551 254 501 b 196 326 254 403 240 361 b 40 93 129 275 32 213 z m 217 281 b 257 325 232 294 246 310 b 246 222 254 290 251 256 b 239 161 242 199 240 179 b 182 81 228 103 201 81 b 154 106 169 81 158 90 b 217 281 146 149 165 233 z m 171 654 b 179 644 172 650 175 647 b 186 643 181 644 183 643 b 194 642 189 642 192 642 b 292 694 231 642 272 664 b 293 731 304 719 293 731 b 275 738 288 738 281 738 b 267 735 271 738 267 735 b 217 707 256 731 235 719 b 192 692 208 701 199 696 b 175 681 183 688 178 683 b 168 664 171 676 168 671 b 171 654 168 658 171 654 z m 313 540 b 326 515 322 532 329 521 b 306 522 326 515 321 507 b 299 536 301 526 301 532 b 286 553 293 544 290 550 b 313 540 286 553 300 549 z m 267 725 b 286 725 267 725 282 732 b 286 710 290 718 286 710 b 267 725 286 710 283 725 z "},"â":{"ha":404,"x_min":0,"x_max":0,"o":"m 40 93 b 157 4 40 92 50 -11 b 236 63 194 10 219 35 b 242 26 238 36 242 26 b 376 -1 265 -12 346 -6 b 383 8 382 -1 385 4 b 379 419 363 69 379 419 b 186 589 396 606 186 590 b 33 400 58 581 36 435 b 39 383 33 394 35 388 b 143 351 60 363 99 350 b 150 363 149 353 153 358 b 142 388 146 369 142 378 b 199 550 138 424 142 549 b 258 432 238 551 254 501 b 196 326 254 403 240 361 b 40 93 129 275 32 213 z m 217 281 b 257 325 232 294 246 310 b 246 222 254 290 251 256 b 239 161 242 199 240 179 b 182 81 228 103 201 81 b 154 106 169 81 158 90 b 217 281 146 149 165 233 z m 146 643 b 156 638 149 640 151 639 b 161 636 157 636 160 636 l 169 636 b 235 663 189 636 221 650 b 299 631 251 649 278 633 l 306 631 b 313 632 308 631 310 632 b 321 638 317 633 319 635 b 325 643 321 638 324 640 l 325 650 b 321 657 325 653 322 653 b 247 708 318 663 256 704 l 246 710 b 236 711 243 711 239 711 b 228 710 233 711 231 711 b 225 708 226 710 225 708 b 183 685 214 704 200 693 b 161 672 175 681 168 676 b 147 664 156 668 150 665 l 143 656 l 143 650 b 146 643 144 646 146 643 z m 286 553 b 313 540 286 553 301 550 b 326 515 322 532 329 521 b 306 522 326 515 321 507 b 299 536 301 526 301 532 b 286 553 293 544 290 550 z m 215 692 b 238 701 215 692 226 701 b 257 692 247 701 257 692 b 215 692 257 692 235 697 z "},"ã":{"ha":404,"x_min":0,"x_max":0,"o":"m 40 93 b 157 4 40 92 50 -11 b 236 63 194 10 219 35 b 242 26 238 36 242 26 b 376 -1 265 -12 346 -6 b 383 8 382 -1 385 4 b 379 419 363 69 379 419 b 186 589 396 606 186 590 b 33 400 58 581 36 435 b 39 383 33 394 35 388 b 143 351 60 363 99 350 b 150 363 149 353 153 358 b 142 388 146 369 142 378 b 199 550 138 424 142 549 b 258 432 238 551 254 501 b 196 326 254 403 240 361 b 40 93 129 275 32 213 z m 217 281 b 257 325 232 294 246 310 b 246 222 254 290 251 256 b 239 161 242 199 240 179 b 182 81 228 103 201 81 b 154 106 169 81 158 90 b 217 281 146 149 165 233 z m 147 681 b 207 644 161 651 185 644 b 272 657 236 644 264 657 b 307 642 293 658 293 640 b 317 665 322 643 317 665 b 265 703 311 694 289 703 b 218 694 247 703 231 699 b 151 718 189 685 175 724 b 147 681 126 713 147 681 z m 313 540 b 326 515 322 532 329 521 b 306 522 326 515 321 507 b 299 536 301 526 301 532 b 286 553 293 544 290 550 b 313 540 286 553 300 549 z m 160 707 b 175 697 169 707 175 697 b 151 701 175 697 164 703 b 160 707 151 701 151 707 z "},"ä":{"ha":404,"x_min":0,"x_max":0,"o":"m 40 93 b 157 4 40 92 50 -11 b 236 63 194 10 219 35 b 242 26 238 36 242 26 b 376 -1 265 -12 346 -6 b 383 8 382 -1 385 4 b 379 419 363 69 379 419 b 186 589 396 606 186 590 b 33 400 58 581 36 435 b 39 383 33 394 35 388 b 143 351 60 363 99 350 b 150 363 149 353 153 358 b 142 388 146 369 142 378 b 199 550 138 424 142 549 b 258 432 238 551 254 501 b 196 326 254 403 240 361 b 40 93 129 275 32 213 z m 217 281 b 257 325 232 294 246 310 b 246 222 254 290 251 256 b 239 161 242 199 240 179 b 182 81 228 103 201 81 b 154 106 169 81 158 90 b 217 281 146 149 165 233 z m 246 674 b 285 642 247 656 265 640 b 318 679 304 643 319 660 b 279 711 317 697 300 713 b 246 674 260 710 246 693 z m 136 681 b 174 649 138 661 154 647 b 207 685 194 650 208 665 b 169 717 207 704 189 718 b 136 681 150 715 135 700 z m 286 553 b 313 540 286 553 301 550 b 326 515 322 532 329 521 b 306 522 326 515 321 507 b 299 536 301 526 301 532 b 286 553 293 544 290 550 z m 157 694 b 172 707 157 694 160 707 b 188 697 186 707 188 697 b 157 694 188 697 168 703 z m 271 688 b 288 700 271 688 274 700 b 303 692 300 700 303 692 b 271 688 303 692 283 696 z "},"å":{"ha":404,"x_min":0,"x_max":0,"o":"m 40 93 b 157 4 40 92 50 -11 b 236 63 194 10 219 35 b 242 26 238 36 242 26 b 376 -1 265 -12 346 -6 b 383 8 382 -1 385 4 b 379 419 363 69 379 419 b 186 589 396 606 186 590 b 33 400 58 581 36 435 b 39 383 33 394 35 388 b 143 351 60 363 99 350 b 150 363 149 353 153 358 b 142 388 146 369 142 378 b 199 550 138 424 142 549 b 258 432 238 551 254 501 b 196 326 254 403 240 361 b 40 93 129 275 32 213 z m 217 281 b 257 325 232 294 246 310 b 246 222 254 290 251 256 b 239 161 242 199 240 179 b 182 81 228 103 201 81 b 154 106 169 81 158 90 b 217 281 146 149 165 233 z m 242 633 b 285 675 265 633 285 653 b 242 717 285 697 265 717 b 199 675 218 717 199 697 b 242 633 199 653 218 633 z m 224 675 b 242 692 224 685 232 692 b 258 675 251 692 258 685 b 242 658 258 665 251 658 b 224 675 232 658 224 665 z m 313 540 b 326 515 322 532 329 521 b 306 522 326 515 321 507 b 299 536 301 526 301 532 b 286 553 293 544 290 550 b 313 540 286 553 300 549 z m 226 701 b 244 708 226 701 231 708 b 258 699 257 707 258 699 b 226 701 258 699 247 703 z "},"è":{"ha":388,"x_min":0,"x_max":0,"o":"m 21 253 b 204 1 21 253 22 -10 b 356 193 204 1 340 0 b 353 201 356 196 356 200 b 264 242 344 214 315 243 b 254 232 258 240 254 236 b 204 43 256 192 258 39 l 203 43 b 142 271 142 42 143 182 l 142 304 b 354 314 247 293 326 307 b 364 326 360 315 364 321 b 201 589 390 604 201 590 b 21 253 201 590 11 581 z m 206 543 b 222 542 211 546 217 546 b 256 349 238 531 267 490 b 144 350 256 349 199 342 b 206 543 151 440 172 526 z m 157 688 b 254 635 168 658 222 635 b 263 636 257 635 260 635 b 268 638 264 636 267 638 b 278 647 272 640 276 643 b 279 657 278 647 279 651 b 278 665 279 660 279 663 b 257 685 278 672 261 682 b 231 700 249 689 240 694 b 181 728 213 711 193 724 b 172 731 181 728 176 731 b 154 724 167 731 161 731 b 157 688 154 724 143 713 z m 268 551 b 288 542 268 551 279 549 b 297 518 297 533 303 525 b 279 533 290 510 285 522 b 268 551 275 542 271 549 z m 174 721 b 189 711 185 721 189 711 b 163 710 189 711 172 719 b 174 721 163 710 163 721 z "},"é":{"ha":388,"x_min":0,"x_max":0,"o":"m 21 253 b 204 1 21 253 22 -10 b 356 193 204 1 340 0 b 353 201 356 196 356 200 b 264 242 344 214 315 243 b 254 232 258 240 254 236 b 204 43 256 192 258 39 l 203 43 b 142 271 142 42 143 182 l 142 304 b 354 314 247 293 326 307 b 364 326 360 315 364 321 b 201 589 390 604 201 590 b 21 253 201 590 11 581 z m 144 350 b 206 543 151 440 172 526 b 222 542 211 546 217 546 b 256 349 238 531 267 490 b 144 350 256 349 199 342 z m 151 668 b 154 658 151 663 154 658 b 163 649 156 654 158 651 b 169 647 164 649 167 647 b 178 646 172 646 175 646 b 275 699 214 646 256 668 b 276 735 288 724 276 735 b 258 742 271 742 264 742 b 250 739 254 742 250 739 b 200 711 239 735 218 724 b 175 696 192 706 182 700 b 158 685 167 692 161 688 b 151 668 154 681 151 675 z m 268 551 b 288 542 268 551 279 549 b 297 518 297 533 303 525 b 279 533 290 510 285 522 b 268 551 275 542 271 549 z m 269 729 b 269 714 274 722 269 714 b 250 729 269 714 267 729 b 269 729 250 729 264 736 z "},"ê":{"ha":388,"x_min":0,"x_max":0,"o":"m 21 253 b 204 1 21 253 22 -10 b 356 193 204 1 340 0 b 353 201 356 196 356 200 b 264 242 344 214 315 243 b 254 232 258 240 254 236 b 204 43 256 192 258 39 l 203 43 b 142 271 142 42 143 182 l 142 304 b 354 314 247 293 326 307 b 364 326 360 315 364 321 b 201 589 390 604 201 590 b 21 253 201 590 11 581 z m 144 350 b 206 543 151 440 172 526 b 222 542 211 546 217 546 b 256 349 238 531 267 490 b 144 350 256 349 199 342 z m 115 654 b 125 649 118 651 121 650 b 131 647 126 647 129 647 l 139 647 b 204 674 158 647 190 661 b 268 642 221 660 247 644 l 275 642 b 282 643 278 642 279 643 b 290 649 286 644 289 646 b 294 654 290 649 293 651 l 294 661 b 290 668 294 664 292 664 b 217 719 288 674 225 715 l 215 721 b 206 722 213 722 208 722 b 197 721 203 722 200 722 b 194 719 196 721 194 719 b 153 696 183 715 169 704 b 131 683 144 692 138 688 b 117 675 125 679 119 676 l 113 667 l 113 661 b 115 654 114 657 115 654 z m 288 542 b 297 518 297 535 303 525 b 279 533 290 510 285 522 b 268 551 275 542 271 549 b 288 542 268 551 279 549 z m 207 713 b 226 703 217 713 226 703 b 185 703 226 703 204 708 b 207 713 185 703 196 713 z "},"ë":{"ha":388,"x_min":0,"x_max":0,"o":"m 21 253 b 204 1 21 253 22 -10 b 356 193 204 1 340 0 b 353 201 356 196 356 200 b 264 242 344 214 315 243 b 254 232 258 240 254 236 b 204 43 256 192 258 39 l 203 43 b 142 271 142 42 143 182 l 142 304 b 354 314 247 293 326 307 b 364 326 360 315 364 321 b 201 589 390 604 201 590 b 21 253 201 590 11 581 z m 144 350 b 206 543 151 440 172 526 b 222 542 211 546 217 546 b 256 349 238 531 267 490 b 144 350 256 349 199 342 z m 229 675 b 268 643 231 657 249 642 b 301 681 288 644 303 661 b 263 713 300 699 283 714 b 229 675 243 711 229 694 z m 119 682 b 157 650 121 663 138 649 b 190 686 178 651 192 667 b 153 718 190 706 172 719 b 119 682 133 717 118 701 z m 288 542 b 297 518 297 535 303 525 b 279 533 290 510 285 522 b 268 551 275 542 271 549 b 288 542 268 551 279 549 z m 156 708 b 171 699 169 708 171 699 b 140 696 171 699 151 704 b 156 708 140 696 143 708 z m 271 701 b 286 693 283 701 286 693 b 254 689 286 693 267 697 b 271 701 254 689 257 701 z "},"ì":{"ha":186,"x_min":0,"x_max":0,"o":"m 28 1 b 104 -8 42 -1 74 -8 b 163 10 114 -8 163 -6 b 157 321 160 33 149 143 b 165 561 164 471 165 538 b 89 593 165 589 107 593 b 29 578 81 593 29 590 b 39 324 32 550 38 414 b 21 11 39 235 24 51 b 28 1 21 6 24 1 z m 38 682 b 135 629 49 653 103 629 b 143 631 138 629 140 629 b 149 632 144 631 147 632 b 158 642 153 635 157 638 b 160 651 158 642 160 646 b 158 660 160 654 160 657 b 138 679 158 667 142 676 b 111 694 129 683 121 689 b 61 722 93 706 74 718 b 53 725 61 722 57 725 b 35 718 47 725 42 725 b 38 682 35 718 24 707 z m 147 543 b 135 540 147 543 144 531 b 125 558 131 544 128 551 b 110 574 122 564 117 571 b 147 543 110 574 151 572 z m 43 704 b 54 715 43 704 43 715 b 69 706 65 715 69 706 b 43 704 69 706 53 714 z "},"í":{"ha":186,"x_min":0,"x_max":0,"o":"m 21 11 b 28 1 21 6 24 1 b 104 -8 42 -1 74 -8 b 163 10 114 -8 163 -6 b 157 321 160 33 149 143 b 165 561 164 471 165 538 b 89 593 165 589 107 593 b 29 578 81 593 29 590 b 39 324 32 550 38 414 b 21 11 39 235 24 51 z m 32 651 b 35 642 32 646 35 642 b 43 632 36 638 39 635 b 50 631 44 632 47 631 b 58 629 53 629 56 629 b 156 682 94 629 136 651 b 157 718 168 707 157 718 b 139 725 151 725 144 725 b 131 722 135 725 131 722 b 81 694 119 718 99 707 b 56 679 72 689 63 683 b 39 668 47 675 42 671 b 32 651 35 664 32 658 z m 147 543 b 135 540 147 543 144 531 b 125 558 131 544 128 551 b 110 574 122 564 117 571 b 147 543 110 574 151 572 z m 150 713 b 150 697 154 706 150 697 b 131 713 150 697 147 713 b 150 713 131 713 144 719 z "},"î":{"ha":186,"x_min":0,"x_max":0,"o":"m 21 11 b 28 1 21 6 24 1 b 104 -8 42 -1 74 -8 b 163 10 114 -8 163 -6 b 157 321 160 33 149 143 b 165 561 164 471 165 538 b 89 593 165 589 107 593 b 29 578 81 593 29 590 b 39 324 32 550 38 414 b 21 11 39 235 24 51 z m 7 632 b 17 626 10 629 13 628 b 22 625 18 625 21 625 l 31 625 b 96 651 50 625 82 639 b 160 619 113 638 139 622 l 167 619 b 174 621 169 619 171 621 b 182 626 178 622 181 624 b 186 632 182 626 185 629 l 186 639 b 182 646 186 642 183 642 b 108 697 179 651 117 693 l 107 699 b 97 700 104 700 100 700 b 89 699 94 700 92 700 b 86 697 88 699 86 697 b 44 674 75 693 61 682 b 22 661 36 669 29 665 b 8 653 17 657 11 654 l 4 644 l 4 639 b 7 632 6 635 7 632 z m 147 543 b 135 540 147 543 144 531 b 125 558 131 544 128 551 b 110 574 122 564 117 571 b 147 543 110 574 151 572 z m 76 681 b 99 690 76 681 88 690 b 118 681 108 690 118 681 b 76 681 118 681 96 686 z "},"ï":{"ha":186,"x_min":0,"x_max":0,"o":"m 28 1 b 104 -8 42 -1 74 -8 b 163 10 114 -8 163 -6 b 157 321 160 33 149 143 b 165 561 164 471 165 538 b 89 593 165 589 107 593 b 29 578 81 593 29 590 b 39 324 32 550 38 414 b 21 11 39 235 24 51 b 28 1 21 6 24 1 z m 153 624 b 186 661 172 625 188 642 b 147 693 185 679 168 694 b 114 656 128 692 114 675 b 153 624 115 638 133 622 z m 4 663 b 42 631 6 643 22 629 b 75 667 63 632 76 647 b 38 699 75 686 57 700 b 4 663 18 697 3 682 z m 110 574 b 147 543 110 574 151 572 b 135 540 147 543 144 531 b 125 558 131 544 128 551 b 110 574 122 564 117 571 z m 40 689 b 56 679 54 689 56 679 b 25 676 56 679 36 685 b 40 689 25 676 28 689 z m 156 682 b 171 674 168 682 171 674 b 139 669 171 674 151 678 b 156 682 139 669 142 682 z "},"ñ":{"ha":414,"x_min":0,"x_max":0,"o":"m 21 568 b 39 351 36 481 39 351 b 47 29 39 351 46 100 b 54 18 47 25 50 21 b 156 3 79 1 124 -6 b 165 15 161 4 167 10 b 168 311 165 56 164 154 b 258 521 181 369 215 517 l 260 521 b 275 432 261 521 282 519 b 260 18 268 336 250 90 b 278 -1 261 8 268 0 b 389 13 335 -10 376 0 b 392 24 392 15 393 19 b 383 226 379 63 383 226 b 268 585 399 458 351 590 b 178 481 225 582 196 531 b 185 563 179 510 182 540 b 101 592 185 588 118 592 b 31 583 78 592 54 589 b 21 568 24 582 19 575 z m 133 658 b 193 622 147 629 171 622 b 258 635 222 622 250 635 b 293 619 279 636 279 618 b 303 643 308 621 303 643 b 251 681 297 672 275 681 b 204 672 233 681 217 676 b 138 696 175 663 161 701 b 133 658 113 690 133 658 z m 313 550 b 324 522 322 543 332 528 b 304 536 314 515 310 525 b 292 557 300 544 296 554 b 313 550 292 557 303 557 z m 138 679 b 146 685 138 679 138 685 b 161 675 156 685 161 675 b 138 679 161 675 150 681 z "},"ò":{"ha":383,"x_min":0,"x_max":0,"o":"m 21 263 b 219 3 21 261 24 -4 b 363 286 219 3 353 -6 b 206 589 375 611 204 590 b 21 263 206 590 11 588 z m 217 543 b 307 313 217 543 314 547 b 226 47 300 64 226 47 b 139 272 167 43 140 119 b 217 543 138 390 168 540 z m 147 683 b 244 631 158 654 213 631 b 253 632 247 631 250 631 b 258 633 254 632 257 633 b 268 643 263 636 267 639 b 269 653 268 643 269 647 b 268 661 269 656 269 658 b 247 681 268 668 251 678 b 221 696 239 685 231 690 b 171 724 203 707 183 719 b 163 726 171 724 167 726 b 144 719 157 726 151 726 b 147 683 144 719 133 708 z m 257 554 b 278 549 257 554 268 554 b 292 522 289 542 299 529 b 271 535 283 514 278 522 b 257 554 267 542 261 551 z m 164 717 b 179 707 175 717 179 707 b 153 706 179 707 163 715 b 164 717 153 706 153 717 z "},"ó":{"ha":383,"x_min":0,"x_max":0,"o":"m 21 263 b 219 3 21 261 24 -4 b 363 286 219 3 353 -6 b 206 589 375 611 204 590 b 21 263 206 590 11 588 z m 217 543 b 307 313 217 543 314 547 b 226 47 300 64 226 47 b 139 272 167 43 140 119 b 217 543 138 390 168 540 z m 139 643 b 142 633 139 638 142 633 b 150 624 143 629 146 626 b 157 622 151 624 154 622 b 165 621 160 621 163 621 b 263 674 201 621 243 643 b 264 710 275 699 264 710 b 246 717 258 717 251 717 b 238 714 242 717 238 714 b 188 686 226 710 206 699 b 163 671 179 681 169 675 b 146 660 154 667 149 663 b 139 643 142 656 139 650 z m 257 554 b 278 549 257 554 268 554 b 292 522 289 542 299 529 b 271 535 283 514 278 522 b 257 554 267 542 261 551 z m 238 704 b 257 704 238 704 253 711 b 257 689 261 697 257 689 b 238 704 257 689 254 704 z "},"ô":{"ha":383,"x_min":0,"x_max":0,"o":"m 21 263 b 219 3 21 261 24 -4 b 363 286 219 3 353 -6 b 206 589 375 611 204 590 b 21 263 206 590 11 588 z m 217 543 b 307 313 217 543 314 547 b 226 47 300 64 226 47 b 139 272 167 43 140 119 b 217 543 138 390 168 540 z m 111 651 l 111 646 b 114 639 113 642 114 639 b 124 633 117 636 119 635 b 129 632 125 632 128 632 l 138 632 b 203 658 157 632 189 646 b 267 626 219 644 246 629 l 274 626 b 281 628 276 626 278 628 b 289 633 285 629 288 631 b 293 639 289 633 292 636 l 293 646 b 289 653 293 649 290 649 b 215 704 286 658 224 700 l 214 706 b 204 707 211 707 207 707 b 196 706 201 707 199 707 b 193 704 194 706 193 704 b 151 681 182 700 168 689 b 129 668 143 676 136 672 b 115 660 124 664 118 661 z m 278 549 b 292 522 289 542 299 529 b 271 535 283 514 278 522 b 257 554 267 542 261 551 b 278 549 257 554 268 554 z m 183 688 b 206 697 183 688 194 697 b 225 688 215 697 225 688 b 183 688 225 688 203 693 z "},"õ":{"ha":383,"x_min":0,"x_max":0,"o":"m 21 263 b 219 3 21 261 24 -4 b 363 286 219 3 353 -6 b 206 589 375 611 204 590 b 21 263 206 590 11 588 z m 217 543 b 307 313 217 543 314 547 b 226 47 300 64 226 47 b 139 272 167 43 140 119 b 217 543 138 390 168 540 z m 117 663 b 176 626 131 633 154 626 b 242 639 206 626 233 639 b 276 624 263 640 263 622 b 286 647 292 625 286 647 b 235 685 281 676 258 685 b 188 676 217 685 200 681 b 121 700 158 667 144 706 b 117 663 96 694 117 663 z m 257 554 b 278 549 257 554 268 554 b 292 522 289 542 299 529 b 271 535 283 514 278 522 b 257 554 267 542 261 551 z m 129 689 b 144 679 139 689 144 679 b 121 683 144 679 133 685 b 129 689 121 683 121 689 z "},"ö":{"ha":383,"x_min":0,"x_max":0,"o":"m 21 263 b 219 3 21 261 24 -4 b 363 286 219 3 353 -6 b 206 589 375 611 204 590 b 21 263 206 590 11 588 z m 217 543 b 307 313 217 543 314 547 b 226 47 300 64 226 47 b 139 272 167 43 140 119 b 217 543 138 390 168 540 z m 256 632 b 289 669 275 633 290 650 b 250 701 288 688 271 703 b 217 664 231 700 217 683 b 256 632 218 646 236 631 z m 107 671 b 144 639 108 651 125 638 b 178 675 165 640 179 656 b 140 707 178 694 160 708 b 107 671 121 706 106 690 z m 257 554 b 278 549 257 554 268 554 b 292 522 289 542 299 529 b 271 535 283 514 278 522 b 257 554 267 542 261 551 z m 128 685 b 143 697 128 685 131 697 b 158 688 157 697 158 688 b 128 685 158 688 139 693 z m 258 690 b 274 682 271 690 274 682 b 242 678 274 682 254 686 b 258 690 242 678 244 690 z "},"ù":{"ha":414,"x_min":0,"x_max":0,"o":"m 21 568 b 35 349 36 481 35 349 b 131 3 35 349 32 10 b 258 121 186 -3 228 54 b 254 74 257 104 256 88 b 325 -6 250 32 282 -6 b 385 3 346 -7 368 -6 b 388 10 388 4 389 7 b 383 321 386 33 374 143 b 393 561 392 471 393 538 b 326 593 393 588 344 593 b 274 576 315 593 274 592 b 275 394 275 550 275 469 b 185 104 267 261 211 99 b 171 367 156 110 169 367 b 185 563 171 367 176 493 b 101 592 185 588 118 592 b 31 583 78 592 54 589 b 21 568 24 582 19 575 z m 161 715 b 258 663 172 686 226 663 b 267 664 261 663 264 663 b 272 665 268 664 271 665 b 282 675 276 668 281 671 b 283 685 282 675 283 679 b 282 693 283 688 283 690 b 261 713 282 700 265 710 b 235 728 253 717 244 722 b 185 756 217 739 197 751 b 176 758 185 756 181 758 b 158 751 171 758 165 758 b 161 715 158 751 147 740 z m 124 568 b 161 554 124 568 153 567 b 165 538 164 550 168 544 b 147 540 165 538 160 528 b 136 557 143 544 142 551 b 124 568 132 561 128 565 z m 344 567 b 369 558 344 567 363 568 b 371 536 375 551 378 539 b 357 546 371 536 361 532 b 344 567 354 554 350 564 z m 178 749 b 193 739 189 749 193 739 b 167 738 193 739 176 747 b 178 749 167 738 167 749 z "},"ú":{"ha":414,"x_min":0,"x_max":0,"o":"m 21 568 b 35 349 36 481 35 349 b 131 3 35 349 32 10 b 258 121 186 -3 228 54 b 254 74 257 104 256 88 b 325 -6 250 32 282 -6 b 385 3 346 -7 368 -6 b 388 10 388 4 389 7 b 383 321 386 33 374 143 b 393 561 392 471 393 538 b 326 593 393 588 344 593 b 274 576 315 593 274 592 b 275 394 275 550 275 469 b 185 104 267 261 211 99 b 171 367 156 110 169 367 b 185 563 171 367 176 493 b 101 592 185 588 118 592 b 31 583 78 592 54 589 b 21 568 24 582 19 575 z m 150 672 b 153 663 150 667 153 663 b 161 653 154 658 157 656 b 168 651 163 653 165 651 b 176 650 171 650 174 650 b 274 703 213 650 254 672 b 275 739 286 728 275 739 b 257 746 269 746 263 746 b 249 743 253 746 249 743 b 199 715 238 739 217 728 b 174 700 190 710 181 704 b 157 689 165 696 160 692 b 150 672 153 685 150 679 z m 161 554 b 165 538 164 550 168 544 b 147 540 165 538 160 528 b 136 557 143 544 142 551 b 124 568 132 561 128 565 b 161 554 124 568 151 567 z m 369 558 b 371 536 375 551 378 539 b 357 546 371 536 361 532 b 344 567 354 554 350 564 b 369 558 344 567 361 567 z m 268 733 b 268 718 272 726 268 718 b 249 733 268 718 265 733 b 268 733 249 733 263 740 z "},"û":{"ha":414,"x_min":0,"x_max":0,"o":"m 165 538 b 147 540 165 538 160 528 b 136 557 143 544 140 551 b 124 568 132 561 128 565 b 161 554 124 568 151 567 b 165 538 164 550 168 544 z m 200 717 b 222 726 200 717 211 726 b 242 717 232 726 242 717 b 200 717 242 717 219 722 z m 371 536 b 357 546 371 536 361 532 b 344 567 354 554 350 564 b 369 558 344 567 361 567 b 371 536 376 551 378 539 z m 393 561 b 381 581 393 569 388 576 b 283 588 356 596 321 594 b 274 576 278 586 274 581 b 275 394 275 550 275 469 b 185 104 267 261 211 99 b 171 367 156 110 169 367 b 185 563 171 367 176 493 b 97 593 185 588 114 593 b 31 583 75 593 53 590 b 21 568 24 582 19 575 b 35 349 39 481 35 349 b 131 3 35 349 32 10 b 258 121 186 -3 228 54 b 254 74 257 104 256 88 b 325 -6 250 32 282 -6 b 385 3 346 -7 367 -4 b 388 10 388 4 389 7 b 383 321 386 33 375 143 b 393 561 390 471 393 538 z m 232 733 l 231 735 b 221 736 228 736 224 736 b 213 735 218 736 215 736 b 210 733 211 735 210 733 b 168 710 199 729 183 719 b 132 689 157 703 144 694 l 128 681 l 128 675 b 131 668 129 671 131 668 b 140 663 133 665 136 664 b 146 661 142 661 144 661 l 154 661 b 219 688 174 661 206 675 b 283 656 236 674 263 658 l 290 656 b 297 657 293 656 294 657 b 306 663 301 658 304 660 b 310 668 306 663 308 665 l 310 675 b 232 733 310 683 243 728 z "},"ü":{"ha":414,"x_min":0,"x_max":0,"o":"m 21 568 b 35 349 36 481 35 349 b 131 3 35 349 32 10 b 258 121 186 -3 228 54 b 254 74 257 104 256 88 b 325 -6 250 32 282 -6 b 385 3 346 -7 368 -6 b 388 10 388 4 389 7 b 383 321 386 33 374 143 b 393 561 392 471 393 538 b 326 593 393 588 344 593 b 274 576 315 593 274 592 b 275 394 275 550 275 469 b 185 104 267 261 211 99 b 171 367 156 110 169 367 b 185 563 171 367 176 493 b 101 592 185 588 118 592 b 31 583 78 592 54 589 b 21 568 24 582 19 575 z m 235 671 b 274 639 236 653 254 638 b 307 676 293 640 308 657 b 268 708 306 694 289 710 b 235 671 249 707 235 690 z m 125 678 b 163 646 126 658 143 644 b 196 682 183 647 197 663 b 158 714 196 701 178 715 b 125 678 139 713 124 697 z m 161 554 b 165 538 164 550 168 544 b 147 540 165 538 160 528 b 136 557 143 544 142 551 b 124 568 132 561 128 565 b 161 554 124 568 151 567 z m 369 558 b 371 536 375 551 378 539 b 357 546 371 536 361 532 b 344 567 354 554 350 564 b 369 558 344 567 361 567 z m 146 692 b 161 704 146 692 149 704 b 176 694 175 704 176 694 b 146 692 176 694 157 700 z m 276 697 b 292 689 289 697 292 689 b 260 685 292 689 272 693 b 276 697 260 685 263 697 z "},"ý":{"ha":456,"x_min":0,"x_max":0,"o":"m 21 568 b 36 347 36 453 36 347 b 135 1 36 347 32 10 b 289 172 207 -4 258 86 b 286 85 288 140 288 111 b 231 -190 272 -190 231 -190 b 196 -104 188 -185 196 -104 b 218 -50 197 -79 214 -60 b 215 -43 219 -47 218 -43 b 175 -36 201 -37 188 -36 b 103 -68 158 -36 103 -43 b 232 -236 114 -244 231 -236 b 396 78 349 -236 383 -76 b 408 285 401 161 406 236 b 435 565 418 453 429 536 b 349 592 435 592 365 592 b 285 586 322 592 299 589 b 272 571 276 585 271 578 b 285 410 281 531 283 471 b 190 103 282 274 231 100 b 164 367 157 106 164 367 b 169 549 164 406 165 506 b 147 581 171 563 161 575 b 96 590 131 588 114 590 b 32 582 76 590 56 588 b 21 568 25 581 19 574 z m 160 661 b 163 651 160 656 163 651 b 171 642 164 647 167 644 b 178 640 172 642 175 640 b 186 639 181 639 183 639 b 283 692 222 639 264 661 b 285 728 296 717 285 728 b 267 735 279 735 272 735 b 258 732 263 735 258 732 b 208 704 247 728 226 717 b 183 689 200 699 190 693 b 167 678 175 685 169 681 b 160 661 163 674 160 668 z m 144 556 b 147 539 147 551 150 546 b 131 542 147 539 144 531 b 119 558 125 546 124 554 b 106 569 115 563 110 567 b 144 556 106 569 135 568 z m 407 560 b 410 538 413 553 417 540 b 396 547 410 538 400 533 b 382 568 393 556 388 565 b 407 560 382 568 399 568 z m 258 722 b 278 722 258 722 274 729 b 278 707 282 715 278 707 b 258 722 278 707 275 722 z "},"ÿ":{"ha":456,"x_min":0,"x_max":0,"o":"m 21 568 b 36 347 36 453 36 347 b 135 1 36 347 32 10 b 289 172 207 -4 258 86 b 286 85 288 140 288 111 b 231 -190 272 -190 231 -190 b 196 -104 188 -185 196 -104 b 218 -50 197 -79 214 -60 b 215 -43 219 -47 218 -43 b 175 -36 201 -37 188 -36 b 103 -68 158 -36 103 -43 b 232 -236 114 -244 231 -236 b 396 78 349 -236 383 -76 b 408 285 401 161 406 236 b 435 565 418 453 429 536 b 349 592 435 592 365 592 b 285 586 322 592 299 589 b 272 571 276 585 271 578 b 285 410 281 531 283 471 b 190 103 282 274 231 100 b 164 367 157 106 164 367 b 169 549 164 406 165 506 b 147 581 171 563 161 575 b 96 590 131 588 114 590 b 32 582 76 590 56 588 b 21 568 25 581 19 574 z m 246 685 b 285 653 247 667 265 651 b 318 690 304 654 319 671 b 279 722 317 708 300 724 b 246 685 260 721 246 704 z m 136 692 b 174 660 138 672 154 658 b 207 696 194 661 208 676 b 169 728 207 715 189 729 b 136 692 150 726 135 711 z m 144 556 b 147 539 147 551 150 546 b 131 542 147 539 144 531 b 119 558 125 546 124 554 b 106 569 115 563 110 567 b 144 556 106 569 135 568 z m 407 560 b 410 538 413 553 417 540 b 396 547 410 538 400 533 b 382 568 393 556 388 565 b 407 560 382 568 399 568 z m 172 718 b 188 708 186 718 188 708 b 157 706 188 708 168 714 b 172 718 157 706 160 718 z m 288 711 b 303 703 300 711 303 703 b 271 699 303 703 283 707 b 288 711 271 699 274 711 z "},"(":{"ha":424,"x_min":0,"x_max":0,"o":"m 81 268 b 140 236 93 244 115 236 b 233 260 176 236 217 253 b 314 282 263 271 290 282 b 342 275 324 282 333 279 b 351 282 347 272 353 278 b 231 368 343 307 311 356 b 81 268 128 383 49 326 z m 192 107 b 221 94 201 99 211 94 b 313 204 274 94 300 164 b 331 235 317 221 319 224 b 325 246 335 239 331 247 b 257 226 311 246 289 242 b 192 107 206 201 157 139 z m 199 429 b 218 413 206 422 213 417 b 289 382 247 393 289 382 b 321 364 304 378 310 375 b 332 369 325 360 332 363 b 219 514 332 424 276 514 b 192 503 208 514 200 511 b 199 429 163 472 197 432 z m 233 496 b 260 486 247 496 254 492 b 263 475 264 482 265 476 b 250 478 254 471 250 478 b 233 496 243 488 233 496 z "},")":{"ha":456,"x_min":0,"x_max":0,"o":"m 101 275 b 210 260 132 288 169 275 b 304 236 226 253 268 236 b 364 268 329 236 351 244 b 213 368 394 326 315 385 b 93 282 133 356 101 307 b 101 275 90 278 96 272 z m 114 235 b 132 204 124 225 128 217 b 178 114 132 204 149 136 l 179 114 b 224 94 181 113 201 94 b 253 107 233 94 243 97 b 188 226 286 140 239 203 b 118 246 154 242 132 246 b 114 235 113 247 110 239 z m 124 364 l 133 374 b 154 382 139 376 144 379 b 231 415 154 382 201 394 b 244 429 236 421 239 424 b 251 503 247 432 281 472 b 224 514 243 511 235 514 b 113 369 168 514 113 422 b 124 364 111 363 119 360 z m 215 501 b 247 485 215 501 249 504 b 244 479 247 485 247 482 b 236 482 243 478 239 479 b 215 501 231 488 225 500 z "},"":{"ha":404,"x_min":0,"x_max":0,"o":"m 40 93 b 157 4 40 92 50 -11 b 260 75 194 10 244 43 b 301 -97 260 75 250 -76 b 344 -106 317 -103 331 -106 b 447 -67 393 -106 431 -78 b 446 -57 451 -64 450 -58 b 375 76 374 -33 375 76 b 379 419 368 199 379 419 b 186 589 396 606 186 590 b 33 400 58 581 36 435 b 39 383 33 394 35 388 b 143 351 60 363 99 350 b 150 363 149 353 153 358 b 142 388 146 369 142 378 b 199 550 138 424 142 549 b 258 432 238 551 254 501 b 196 326 254 403 240 361 b 40 93 129 275 32 213 z m 217 281 b 257 325 232 294 246 310 b 246 222 254 290 251 256 b 239 161 242 199 240 179 b 182 81 228 103 201 81 b 154 106 169 81 158 90 b 217 281 146 149 165 233 z m 313 540 b 326 515 322 532 329 521 b 306 522 326 515 321 507 b 299 536 301 526 301 532 b 286 553 293 544 290 550 b 313 540 286 553 300 549 z "},"":{"ha":424,"x_min":0,"x_max":0,"o":"m 21 228 b 128 0 21 228 25 7 b 249 135 190 -4 228 69 b 294 -76 249 135 243 -44 b 346 -92 311 -87 328 -92 b 424 -71 378 -92 407 -79 b 422 -64 426 -69 426 -65 b 375 10 400 -57 385 -25 b 361 150 357 72 361 150 b 364 350 361 239 364 350 b 403 794 368 632 394 760 b 394 807 404 800 400 806 b 232 801 363 815 279 817 b 225 792 228 800 225 796 b 243 518 228 768 236 688 b 176 586 228 556 206 586 b 21 228 108 586 19 457 z m 121 269 b 175 535 131 508 175 535 b 247 325 226 543 243 385 b 158 50 236 174 176 50 b 121 269 144 51 111 56 z m 339 788 b 381 764 339 788 381 793 b 368 758 381 764 379 751 b 356 775 364 761 361 768 b 339 788 351 781 347 786 z "},"":{"ha":426,"x_min":0,"x_max":0,"o":"m 29 228 b 156 3 29 228 49 7 b 276 129 218 0 254 67 b 274 -19 278 69 276 19 b 204 -15 251 -17 228 -15 b 108 -115 156 -17 106 -44 b 231 -236 114 -247 231 -236 b 351 -126 292 -236 329 -192 b 543 -206 399 -153 460 -185 b 643 -157 594 -218 629 -192 b 654 -54 657 -121 656 -75 b 644 -50 653 -50 649 -47 b 551 -74 625 -68 590 -74 b 372 -46 492 -74 421 -58 b 389 285 393 71 388 210 b 400 578 392 439 399 549 b 392 589 401 583 397 588 b 325 600 368 594 346 600 b 249 579 313 600 249 600 b 254 533 250 569 253 553 b 183 589 238 565 214 589 b 29 228 104 589 11 457 z m 135 272 b 183 538 135 511 183 538 b 265 378 231 543 254 449 b 268 315 267 347 268 315 b 269 296 269 308 269 301 b 185 53 254 160 203 53 b 135 272 171 54 135 58 z m 207 -75 b 267 -83 224 -72 244 -76 b 221 -192 250 -192 221 -192 b 172 -139 190 -196 175 -162 b 207 -75 169 -115 175 -79 z m 383 553 b 371 549 383 553 383 542 b 358 564 365 551 363 558 b 340 576 354 569 349 575 b 383 553 340 576 382 582 z "},"":{"ha":401,"x_min":0,"x_max":0,"o":"m 150 754 b 140 771 146 757 144 765 b 125 786 136 776 133 785 b 164 757 125 786 168 786 b 150 754 164 757 161 746 z m 308 522 b 290 536 299 515 296 525 b 276 557 286 544 282 554 b 299 550 276 557 289 557 b 308 522 307 543 317 528 z m 253 75 b 301 -100 253 75 250 -79 b 344 -108 317 -106 331 -108 b 447 -67 392 -108 431 -81 b 444 -57 450 -64 449 -58 b 375 76 372 -33 375 76 b 369 426 372 200 375 304 b 256 585 364 546 301 586 b 161 472 210 583 179 524 b 183 772 169 660 179 743 b 181 782 183 776 183 779 b 14 813 150 813 79 824 b 6 803 8 811 4 807 b 33 350 21 758 25 614 b 42 29 33 350 40 97 b 47 19 42 25 44 21 b 147 3 76 6 117 -6 b 153 11 151 4 154 8 b 156 311 153 47 151 149 b 246 521 167 369 203 517 b 263 432 249 521 269 519 b 253 75 258 386 253 171 z "},"":{"ha":215,"x_min":0,"x_max":0,"o":"m -1 -236 b 128 -129 60 -236 101 -193 b 313 -206 174 -156 232 -186 b 414 -157 364 -218 397 -192 b 428 -51 432 -119 429 -71 b 421 -49 428 -49 424 -47 b 325 -74 400 -67 365 -74 b 151 -47 267 -74 199 -60 b 165 78 160 -7 164 35 b 174 285 171 161 172 236 b 196 565 182 453 190 536 b 185 581 197 572 192 578 b 108 592 160 590 132 592 b 43 586 81 592 57 589 b 31 571 35 585 29 578 b 50 333 42 514 46 419 b 56 85 56 232 56 151 b 49 -19 53 44 51 10 b -19 -15 26 -17 4 -15 b -119 -115 -69 -15 -119 -44 b -1 -236 -119 -247 -1 -236 z m -18 -75 b 39 -83 -3 -72 18 -76 b -8 -192 19 -190 -8 -192 b -56 -139 -40 -196 -53 -162 b -18 -75 -58 -115 -51 -79 z m 110 617 l 113 617 b 164 638 164 617 164 638 b 107 665 165 656 135 665 b 64 647 85 665 64 660 b 110 617 63 625 100 618 z m 172 546 b 160 543 172 546 171 535 b 150 560 156 546 154 553 b 135 575 146 567 142 572 b 172 546 135 575 176 574 z m 124 654 b 150 640 124 654 156 650 b 124 654 144 631 136 650 z "},"":{"ha":413,"x_min":0,"x_max":0,"o":"m 13 803 b 40 350 22 757 32 614 b 49 29 40 350 47 97 b 54 19 49 25 51 21 b 154 3 83 6 124 -7 b 160 11 158 4 160 8 b 158 147 160 29 158 100 b 674 -203 158 147 343 -203 b 896 -87 749 -203 899 -185 b 872 -10 896 -56 893 -31 b 861 -8 869 -7 864 -6 b 660 -75 842 -28 763 -72 b 224 190 354 -83 224 190 b 383 349 357 185 383 347 b 381 500 396 413 393 460 b 263 585 350 597 263 585 b 168 472 217 582 186 524 b 192 772 176 660 188 743 b 79 819 192 813 106 819 b 21 813 60 819 40 818 b 13 803 15 811 11 807 z m 163 311 b 253 521 175 369 210 517 l 254 521 b 269 432 256 521 276 519 b 161 256 269 432 263 267 b 163 311 161 272 163 292 z m 132 786 b 169 757 132 786 174 786 b 157 754 169 757 168 746 b 147 771 153 757 150 765 b 132 786 143 778 139 785 z m 329 547 b 339 519 339 540 347 525 b 321 535 329 514 325 522 b 308 557 318 543 314 554 b 329 547 308 557 321 554 z "},"":{"ha":571,"x_min":0,"x_max":0,"o":"m 482 521 b 464 536 471 514 468 524 b 451 558 461 544 457 554 b 472 549 451 558 464 556 b 482 521 482 540 490 525 z m 599 -62 b 553 10 578 -53 563 -24 b 542 226 533 75 542 226 b 431 585 557 458 511 588 b 339 463 383 583 354 517 b 233 586 319 554 281 592 b 178 540 210 582 192 564 b 179 564 178 549 179 557 b 172 576 181 569 176 574 b 94 593 151 590 122 593 b 31 583 74 593 51 590 b 21 568 24 582 19 575 b 39 351 39 481 39 351 b 47 29 39 351 46 100 b 54 18 47 25 50 21 b 156 3 79 1 124 -4 b 165 17 161 4 165 10 b 167 321 165 57 163 160 b 226 522 175 386 189 517 b 253 433 228 522 260 521 b 239 126 249 389 236 206 b 301 92 239 104 285 92 b 351 122 319 92 351 100 b 350 178 350 138 350 157 b 421 522 353 267 381 517 b 436 433 424 522 443 519 b 417 139 431 369 421 240 b 472 -76 417 139 407 -35 b 524 -92 489 -87 506 -92 b 599 -72 554 -92 582 -81 b 599 -62 603 -71 603 -64 z "},"":{"ha":413,"x_min":0,"x_max":0,"o":"m 324 522 b 304 536 314 515 310 525 b 292 557 300 544 296 554 b 313 550 292 557 303 557 b 324 522 322 543 332 528 z m 440 -62 b 396 10 419 -53 404 -24 b 381 151 381 72 381 151 b 383 226 382 192 383 226 b 268 585 399 458 351 589 b 178 481 225 582 196 531 b 185 563 179 510 182 540 b 97 593 185 588 114 593 b 31 583 75 593 53 590 b 21 568 24 582 19 575 b 39 351 39 481 39 351 b 47 29 39 351 46 100 b 54 18 47 25 50 21 b 156 3 79 1 124 -4 b 165 15 161 4 167 10 b 168 311 165 56 164 154 b 258 521 181 369 215 517 l 260 521 b 275 432 261 521 282 519 b 257 136 269 368 260 238 b 301 -76 257 136 249 -42 b 357 -92 318 -87 338 -92 b 440 -72 390 -92 422 -81 b 440 -62 444 -71 444 -64 z "},"":{"ha":383,"x_min":0,"x_max":0,"o":"m 21 263 b 219 3 21 261 24 -4 b 361 213 219 3 357 4 b 269 457 365 415 301 456 b 349 475 281 457 319 460 b 368 569 394 499 388 540 b 344 597 360 582 350 592 b 332 594 340 601 333 599 b 285 499 311 531 285 499 b 206 589 297 603 206 589 b 21 263 206 590 11 588 z m 217 543 b 240 504 217 543 240 546 b 214 433 240 475 222 450 b 218 426 213 431 215 426 b 293 257 243 431 293 419 b 226 47 293 43 226 47 b 139 272 167 43 140 119 b 217 543 138 390 168 540 z m 360 551 b 361 525 365 540 369 529 b 349 546 351 521 350 533 b 344 567 349 556 346 564 b 360 551 344 567 354 560 z "},"":{"ha":413,"x_min":0,"x_max":0,"o":"m 21 568 b 35 349 36 481 35 349 b 131 3 35 349 32 10 b 258 121 186 -3 228 54 b 307 -97 258 121 247 -72 b 354 -107 324 -104 339 -107 b 453 -67 400 -107 438 -82 b 451 -57 456 -64 456 -58 b 381 133 382 -33 381 133 b 383 321 379 183 381 246 b 393 561 392 471 393 538 b 326 593 393 588 344 593 b 274 576 315 593 274 592 b 275 394 275 550 275 469 b 185 104 267 261 211 99 b 171 367 156 110 169 367 b 185 563 171 367 176 493 b 101 592 185 588 118 592 b 31 583 78 592 54 589 b 21 568 24 582 19 575 z m 161 554 b 165 538 164 550 168 544 b 147 540 165 538 160 528 b 136 557 143 544 142 551 b 124 568 132 561 128 565 b 161 554 124 568 151 567 z m 344 567 b 369 558 344 567 363 568 b 371 536 375 551 378 539 b 357 546 371 536 361 532 b 344 567 354 554 350 564 z "},"":{"ha":454,"x_min":0,"x_max":0,"o":"m 21 568 b 36 347 36 453 36 347 b 135 1 36 347 32 10 b 289 172 207 -4 258 86 b 286 85 288 140 288 111 b 279 -19 283 44 282 10 b 211 -15 258 -17 235 -15 b 111 -115 161 -17 111 -44 b 229 -236 111 -247 229 -236 b 357 -128 292 -236 332 -193 b 543 -206 403 -154 461 -186 b 644 -157 594 -218 628 -192 b 658 -53 663 -119 661 -74 b 651 -50 658 -50 654 -47 b 557 -74 631 -68 596 -74 b 381 -46 497 -74 428 -60 b 396 78 389 -7 393 35 b 408 285 401 161 404 236 b 435 565 418 453 429 536 b 349 592 435 592 365 592 b 285 586 322 592 299 589 b 272 571 276 585 271 578 b 285 410 281 531 283 471 b 190 103 282 274 231 100 b 164 367 157 106 164 367 b 169 549 164 406 165 506 b 147 581 171 563 161 575 b 96 590 131 588 114 590 b 32 582 76 590 56 588 b 21 568 25 581 19 574 z m 213 -75 b 271 -83 228 -72 249 -76 b 222 -192 251 -190 222 -192 b 175 -139 190 -196 178 -162 b 213 -75 172 -115 179 -79 z m 106 569 b 144 556 106 569 136 568 b 147 539 147 551 150 546 b 131 542 147 539 144 531 b 119 558 125 546 124 554 b 106 569 115 563 110 567 z m 382 568 b 407 560 382 568 400 569 b 410 538 413 553 417 540 b 396 547 410 538 400 533 b 382 568 393 556 388 565 z "},"":{"ha":568,"x_min":0,"x_max":0,"o":"m 25 296 b 33 290 26 292 31 290 b 61 297 40 293 49 294 b 29 17 58 111 38 40 b 35 6 26 13 31 6 b 128 -1 51 6 86 -1 b 213 6 154 -1 183 0 b 218 15 217 6 219 11 b 179 306 210 42 182 129 b 250 286 211 301 238 290 b 260 292 254 285 260 288 b 263 353 263 306 267 335 b 254 358 263 357 258 358 b 179 349 242 356 213 351 l 179 372 b 190 700 179 372 176 568 b 243 689 203 693 219 689 b 210 582 240 660 235 599 b 214 574 206 579 208 574 b 303 600 253 572 285 588 b 319 628 313 607 319 617 b 321 694 321 653 322 675 b 361 699 333 696 347 697 b 379 354 369 615 378 500 b 382 14 379 354 382 96 b 389 1 381 8 385 3 b 436 -7 404 -4 421 -7 b 493 11 447 -7 493 -4 b 522 710 493 244 501 478 b 726 669 619 713 707 704 b 738 669 728 664 735 664 b 744 763 750 694 767 742 b 685 781 731 776 717 781 b 526 769 654 781 607 776 b 535 836 531 804 533 828 b 528 847 535 840 532 844 b 444 858 506 856 475 858 b 350 851 407 858 369 854 b 340 840 343 851 339 846 b 354 756 343 828 349 799 b 314 756 340 756 326 756 b 219 857 290 860 219 858 b 61 378 36 867 61 378 l 61 351 b 31 356 47 353 38 354 b 22 349 26 356 22 353 b 25 296 21 338 19 313 z m 200 774 b 224 815 207 800 214 817 b 244 763 238 814 243 792 b 200 774 226 765 213 769 z m 478 839 b 515 810 478 839 519 838 b 503 806 515 810 513 799 b 492 824 497 810 494 817 b 478 839 489 831 485 836 z m 285 772 b 272 775 285 772 278 764 b 269 794 269 781 269 788 b 263 815 269 803 268 810 b 285 772 263 815 300 797 z m 736 733 b 724 731 736 733 733 724 b 714 749 718 735 718 742 b 699 764 710 756 706 761 b 736 733 699 764 740 763 z "},"":{"ha":492,"x_min":0,"x_max":0,"o":"m 11 839 b 40 350 22 793 33 614 b 47 29 40 350 46 97 b 53 19 47 25 50 21 b 153 1 82 6 121 -10 b 160 10 157 3 160 6 b 174 365 160 50 160 171 b 201 697 183 508 193 624 b 285 706 225 700 254 703 b 303 354 293 622 301 500 b 306 14 303 354 306 96 b 360 -7 306 -6 347 -7 b 417 11 372 -7 417 -6 b 444 717 417 249 428 481 b 649 676 543 719 631 711 b 661 676 651 671 658 671 b 668 769 674 701 690 749 b 608 788 654 783 640 788 b 450 776 578 788 531 783 b 458 872 454 811 457 864 b 451 883 458 876 456 881 b 368 894 429 892 399 894 b 274 888 331 894 293 890 b 264 876 267 888 263 882 b 278 763 267 864 272 806 b 210 765 251 763 229 763 b 128 850 217 806 179 844 b 21 849 93 854 56 856 b 11 839 14 847 10 843 z m 189 775 b 175 774 189 775 185 764 b 168 792 171 778 171 785 b 156 810 165 799 163 806 b 189 775 156 810 197 803 z m 622 771 b 660 740 622 771 664 769 b 647 738 660 740 657 731 b 636 756 642 742 639 749 b 622 771 633 763 629 768 z m 439 846 b 426 842 439 846 436 835 b 417 860 421 846 421 853 b 401 875 413 867 408 872 b 439 846 401 875 443 874 z "},"":{"ha":4346,"x_min":0,"x_max":0,"o":"m 347 847 b 381 707 360 825 379 779 b 385 161 381 600 394 225 b 350 18 378 114 360 49 b 364 -1 349 8 354 0 b 544 7 404 -3 496 -1 b 554 26 553 8 558 18 b 524 240 540 54 518 121 b 700 3 524 240 574 -3 b 807 149 799 7 808 104 b 794 153 807 154 799 157 b 701 121 778 136 753 113 b 556 272 621 133 557 272 b 818 567 722 285 801 406 b 672 851 835 726 775 826 b 358 864 590 874 418 868 b 347 847 349 864 343 854 z m 3219 803 b 3247 350 3229 757 3239 614 b 3256 29 3247 350 3254 97 b 3261 19 3256 25 3257 21 b 3332 -4 3279 7 3307 -4 b 3367 11 3340 -4 3367 -1 b 3365 147 3367 29 3365 100 b 3881 -203 3365 147 3550 -203 b 3971 -194 3910 -203 3939 -200 b 4101 -87 4063 -179 4104 -136 b 4078 -10 4101 -56 4092 -36 b 4068 -8 4076 -7 4071 -6 b 3865 -75 4049 -28 3969 -74 b 3429 190 3561 -82 3429 190 b 3590 349 3563 185 3590 347 b 3588 500 3601 413 3600 460 b 3469 585 3557 597 3468 585 b 3375 472 3424 582 3393 524 b 3397 772 3383 660 3388 744 b 3394 782 3399 776 3397 779 b 3286 822 3372 804 3332 822 b 3226 813 3265 822 3246 819 b 3219 803 3222 811 3218 807 z m 833 263 b 1031 3 833 261 835 -4 b 1172 213 1031 3 1168 4 b 1081 457 1178 415 1114 456 b 1161 475 1093 457 1132 460 b 1179 569 1207 499 1196 539 b 1156 597 1172 582 1163 590 b 1144 594 1151 601 1146 599 b 1096 499 1124 531 1096 499 b 1017 589 1110 603 1017 589 b 833 263 1017 590 824 588 z m 2339 435 b 2583 7 2339 432 2358 7 b 2794 192 2711 4 2769 92 b 2729 292 2799 247 2785 274 b 2719 286 2725 293 2721 290 b 2589 47 2711 174 2664 42 b 2499 429 2493 54 2499 429 b 2624 828 2499 740 2624 829 b 2690 597 2650 821 2678 676 b 2701 597 2690 590 2701 590 b 2735 813 2710 667 2725 757 b 2750 851 2738 828 2744 842 b 2739 868 2754 858 2749 867 b 2575 864 2642 882 2574 863 b 2339 435 2574 865 2304 810 z m 1585 253 b 1768 1 1585 253 1585 -10 b 1919 193 1768 1 1904 0 b 1917 201 1919 196 1918 200 b 1828 242 1908 214 1879 243 b 1818 232 1822 240 1818 236 b 1768 43 1819 192 1822 39 l 1767 43 b 1706 271 1706 42 1707 182 l 1706 304 b 1917 314 1811 293 1890 308 b 1928 326 1924 315 1928 321 b 1765 589 1954 604 1765 590 b 1585 253 1765 590 1575 581 z m 3626 253 b 3808 1 3626 253 3626 -10 b 3960 193 3810 1 3946 0 b 3957 201 3961 196 3960 200 b 3868 242 3949 214 3921 243 b 3858 232 3863 240 3858 236 b 3808 43 3861 192 3863 39 l 3807 43 b 3747 271 3747 42 3747 182 b 3747 304 3746 282 3747 293 b 3958 314 3851 293 3931 307 b 3969 326 3964 315 3969 321 b 3807 589 3994 604 3807 590 b 3626 253 3807 590 3615 581 z m 2844 93 b 2960 4 2844 92 2853 -11 b 3039 63 2999 10 3022 35 b 3044 26 3042 36 3044 26 b 3181 -1 3068 -12 3150 -6 b 3186 8 3185 -1 3189 4 b 3182 419 3167 69 3182 419 b 2989 589 3199 606 2989 590 b 2836 400 2863 581 2840 435 b 2842 383 2836 394 2838 388 b 2946 351 2864 361 2901 350 b 2953 363 2953 353 2954 358 b 2944 388 2950 369 2946 378 b 3003 550 2939 424 2944 547 b 3061 432 3040 551 3057 501 b 2999 326 3058 403 3043 361 b 2844 93 2933 275 2835 213 z m 1218 438 b 1294 296 1218 436 1219 368 b 1438 169 1358 235 1417 207 b 1376 61 1449 146 1454 56 b 1318 246 1313 65 1315 208 b 1308 254 1318 251 1314 254 b 1217 169 1267 250 1217 215 b 1363 3 1217 6 1363 3 b 1546 203 1532 -8 1554 135 b 1344 425 1536 281 1386 361 b 1400 538 1310 478 1354 539 b 1451 397 1440 538 1472 483 b 1460 386 1450 392 1454 386 b 1536 413 1486 385 1518 389 b 1544 433 1542 419 1544 426 b 1390 589 1558 594 1390 590 b 1218 438 1390 590 1200 597 z m 681 589 b 522 304 675 415 622 321 b 519 826 525 342 519 826 b 681 589 519 826 696 833 z m 950 272 b 1029 543 950 390 981 540 b 1051 504 1029 543 1051 546 b 1026 433 1051 475 1039 446 b 1031 426 1024 431 1026 426 b 1106 257 1056 431 1106 419 b 1039 47 1106 43 1039 47 b 950 272 979 43 951 119 z m 46 268 b 106 236 58 244 81 236 b 200 260 142 236 183 253 b 281 282 228 271 257 282 b 308 275 290 282 300 279 b 317 282 314 272 319 278 b 197 368 308 307 276 356 b 46 268 94 385 15 326 z m 4042 275 b 4151 260 4074 288 4110 275 b 4244 236 4169 253 4208 236 b 4304 268 4268 236 4292 244 b 4154 368 4336 326 4257 383 b 4033 282 4074 356 4042 307 b 4042 275 4032 278 4038 272 z m 3368 256 b 3369 311 3368 272 3368 292 b 3460 521 3381 369 3415 517 b 3475 432 3463 521 3483 519 b 3368 256 3476 432 3469 267 z m 1768 543 b 1786 542 1774 546 1781 546 b 1819 349 1801 531 1831 490 b 1708 350 1819 349 1763 342 b 1768 543 1715 440 1736 526 z m 3810 543 b 3826 542 3815 546 3822 544 b 3861 349 3842 531 3871 490 b 3749 350 3861 349 3803 342 b 3810 543 3757 440 3776 526 z m 3019 281 b 3060 325 3036 294 3049 310 b 3049 222 3058 290 3053 256 b 3042 161 3046 199 3043 179 b 2986 81 3031 103 3006 81 b 2958 106 2974 81 2963 90 b 3019 281 2949 149 2969 233 z m 157 107 b 186 94 167 99 176 94 b 231 114 208 94 229 113 l 232 114 b 278 204 261 136 278 204 b 296 235 282 217 288 226 b 292 246 300 239 297 247 b 222 226 278 246 256 242 b 157 107 171 203 124 139 z m 4064 364 b 4094 382 4074 374 4081 378 b 4171 415 4094 382 4146 390 b 4186 429 4176 421 4182 422 b 4192 503 4188 432 4221 471 b 4165 514 4185 511 4175 514 b 4053 369 4108 514 4053 422 b 4064 364 4053 363 4060 360 z m 165 429 b 256 382 190 404 222 390 b 276 374 265 379 271 376 l 286 364 b 297 369 290 360 299 363 b 186 514 297 422 243 514 b 158 503 175 514 167 511 b 165 429 129 472 163 432 z m 4054 235 b 4072 204 4065 224 4068 221 b 4119 114 4072 204 4093 140 b 4164 94 4121 113 4142 94 b 4193 107 4174 94 4183 99 b 4128 226 4228 139 4179 201 b 4060 246 4096 242 4074 246 b 4054 235 4053 247 4050 239 z m 715 811 b 739 782 732 803 743 792 b 729 775 738 778 733 775 b 703 796 721 775 710 785 b 682 822 696 808 686 818 b 715 811 682 822 700 819 z m 3339 786 b 3376 757 3339 786 3381 786 b 3364 754 3376 757 3374 746 b 3353 771 3358 757 3356 764 b 3339 786 3350 778 3346 785 z m 2690 858 b 2725 836 2690 858 2724 857 b 2717 818 2725 836 2729 817 b 2707 836 2717 818 2708 818 b 2690 858 2707 851 2690 858 z m 3089 553 b 3115 540 3089 553 3104 550 b 3129 515 3125 532 3132 521 b 3108 522 3129 515 3119 506 b 3101 536 3106 526 3104 532 b 3089 553 3096 544 3093 550 z m 3536 547 b 3546 519 3546 540 3554 525 b 3528 535 3536 514 3533 524 b 3515 557 3524 543 3521 554 b 3536 547 3515 557 3526 554 z m 1469 550 b 1489 539 1469 550 1481 546 b 1500 515 1499 531 1506 521 b 1481 531 1492 507 1485 519 b 1469 550 1478 539 1472 547 z m 3872 551 b 3893 542 3872 551 3883 550 b 3903 518 3901 535 3910 525 b 3885 533 3894 510 3890 522 b 3872 551 3881 542 3876 549 z m 1851 542 b 1861 518 1861 535 1867 525 b 1843 533 1854 510 1849 522 b 1832 551 1839 542 1835 549 b 1851 542 1832 551 1843 549 z m 1171 551 b 1172 525 1178 540 1181 529 b 1161 546 1163 521 1163 533 b 1157 567 1160 556 1158 564 b 1171 551 1157 567 1165 560 z m 4189 485 l 4186 479 b 4176 482 4185 478 4179 478 b 4157 501 4172 488 4167 500 b 4189 485 4157 501 4189 504 z m 226 486 b 229 475 231 482 231 476 b 215 478 222 469 215 478 b 199 496 208 488 199 496 b 226 486 213 496 222 492 z "}}}
